G04 #@! TF.GenerationSoftware,KiCad,Pcbnew,(5.0.1)-3*
G04 #@! TF.CreationDate,2022-06-15T15:10:59+08:00*
G04 #@! TF.ProjectId,Omnibot V1,4F6D6E69626F742056312E6B69636164,rev?*
G04 #@! TF.SameCoordinates,Original*
G04 #@! TF.FileFunction,Copper,L2,Bot,Signal*
G04 #@! TF.FilePolarity,Positive*
%FSLAX46Y46*%
G04 Gerber Fmt 4.6, Leading zero omitted, Abs format (unit mm)*
G04 Created by KiCad (PCBNEW (5.0.1)-3) date 15-Jun-22 3:10:59 PM*
%MOMM*%
%LPD*%
G01*
G04 APERTURE LIST*
G04 #@! TA.AperFunction,ComponentPad*
%ADD10C,3.000000*%
G04 #@! TD*
G04 #@! TA.AperFunction,ComponentPad*
%ADD11R,3.000000X3.000000*%
G04 #@! TD*
G04 #@! TA.AperFunction,ComponentPad*
%ADD12C,1.800000*%
G04 #@! TD*
G04 #@! TA.AperFunction,ComponentPad*
%ADD13R,1.800000X1.800000*%
G04 #@! TD*
G04 #@! TA.AperFunction,ComponentPad*
%ADD14R,1.700000X1.700000*%
G04 #@! TD*
G04 #@! TA.AperFunction,ComponentPad*
%ADD15O,1.700000X1.700000*%
G04 #@! TD*
G04 #@! TA.AperFunction,WasherPad*
%ADD16C,3.500000*%
G04 #@! TD*
G04 #@! TA.AperFunction,ComponentPad*
%ADD17O,1.800000X1.800000*%
G04 #@! TD*
G04 #@! TA.AperFunction,ComponentPad*
%ADD18O,1.350000X1.350000*%
G04 #@! TD*
G04 #@! TA.AperFunction,ComponentPad*
%ADD19R,1.350000X1.350000*%
G04 #@! TD*
G04 #@! TA.AperFunction,ViaPad*
%ADD20C,0.800000*%
G04 #@! TD*
G04 #@! TA.AperFunction,Conductor*
%ADD21C,0.300000*%
G04 #@! TD*
G04 #@! TA.AperFunction,Conductor*
%ADD22C,0.250000*%
G04 #@! TD*
G04 #@! TA.AperFunction,Conductor*
%ADD23C,0.500000*%
G04 #@! TD*
G04 #@! TA.AperFunction,Conductor*
%ADD24C,1.000000*%
G04 #@! TD*
G04 #@! TA.AperFunction,Conductor*
%ADD25C,0.400000*%
G04 #@! TD*
G04 #@! TA.AperFunction,Conductor*
%ADD26C,0.254000*%
G04 #@! TD*
G04 APERTURE END LIST*
D10*
G04 #@! TO.P,J6,2*
G04 #@! TO.N,GND*
X82000000Y-52540000D03*
D11*
G04 #@! TO.P,J6,1*
G04 #@! TO.N,VCC*
X82000000Y-47460000D03*
G04 #@! TD*
D12*
G04 #@! TO.P,U3,3*
G04 #@! TO.N,N/C*
X67545000Y-37300000D03*
G04 #@! TO.P,U3,4*
G04 #@! TO.N,36*
X65005000Y-37300000D03*
G04 #@! TO.P,U3,5*
G04 #@! TO.N,39*
X62465000Y-37300000D03*
G04 #@! TO.P,U3,6*
G04 #@! TO.N,34*
X59925000Y-37300000D03*
G04 #@! TO.P,U3,7*
G04 #@! TO.N,35*
X57385000Y-37300000D03*
G04 #@! TO.P,U3,8*
G04 #@! TO.N,32*
X54845000Y-37300000D03*
G04 #@! TO.P,U3,9*
G04 #@! TO.N,33*
X52305000Y-37300000D03*
G04 #@! TO.P,U3,10*
G04 #@! TO.N,25*
X49765000Y-37300000D03*
G04 #@! TO.P,U3,11*
G04 #@! TO.N,26*
X47225000Y-37300000D03*
G04 #@! TO.P,U3,12*
G04 #@! TO.N,27*
X44685000Y-37300000D03*
G04 #@! TO.P,U3,13*
G04 #@! TO.N,14*
X42145000Y-37300000D03*
G04 #@! TO.P,U3,14*
G04 #@! TO.N,12*
X39605000Y-37300000D03*
G04 #@! TO.P,U3,16*
G04 #@! TO.N,13*
X37065000Y-37300000D03*
G04 #@! TO.P,U3,15*
G04 #@! TO.N,GND*
X34525000Y-37300000D03*
G04 #@! TO.P,U3,32*
G04 #@! TO.N,VCC*
X31985000Y-37300000D03*
G04 #@! TO.P,U3,37*
G04 #@! TO.N,23*
X67545000Y-62700000D03*
G04 #@! TO.P,U3,36*
G04 #@! TO.N,22_SCL*
X65005000Y-62700000D03*
G04 #@! TO.P,U3,35*
G04 #@! TO.N,1*
X62465000Y-62700000D03*
G04 #@! TO.P,U3,34*
G04 #@! TO.N,3*
X59925000Y-62700000D03*
G04 #@! TO.P,U3,33*
G04 #@! TO.N,21_SDA*
X57385000Y-62700000D03*
G04 #@! TO.P,U3,31*
G04 #@! TO.N,19*
X54845000Y-62700000D03*
G04 #@! TO.P,U3,30*
G04 #@! TO.N,18*
X52305000Y-62700000D03*
G04 #@! TO.P,U3,29*
G04 #@! TO.N,5*
X49765000Y-62700000D03*
G04 #@! TO.P,U3,28*
G04 #@! TO.N,17*
X47225000Y-62700000D03*
G04 #@! TO.P,U3,27*
G04 #@! TO.N,16*
X44685000Y-62700000D03*
G04 #@! TO.P,U3,26*
G04 #@! TO.N,4*
X42145000Y-62700000D03*
G04 #@! TO.P,U3,24*
G04 #@! TO.N,2*
X39605000Y-62700000D03*
G04 #@! TO.P,U3,23*
G04 #@! TO.N,15*
X37065000Y-62700000D03*
G04 #@! TO.P,U3,15*
G04 #@! TO.N,GND*
X34525000Y-62700000D03*
D13*
G04 #@! TO.P,U3,2*
G04 #@! TO.N,+3V3*
X31985000Y-62700000D03*
G04 #@! TD*
D14*
G04 #@! TO.P,J7,1*
G04 #@! TO.N,VCC*
X81000000Y-36750000D03*
D15*
G04 #@! TO.P,J7,2*
G04 #@! TO.N,GND*
X81000000Y-39290000D03*
G04 #@! TD*
D14*
G04 #@! TO.P,J3,1*
G04 #@! TO.N,+3V3*
X37000000Y-32540000D03*
D15*
G04 #@! TO.P,J3,2*
G04 #@! TO.N,34*
X37000000Y-30000000D03*
G04 #@! TO.P,J3,3*
G04 #@! TO.N,GND*
X37000000Y-27460000D03*
G04 #@! TD*
D14*
G04 #@! TO.P,J2,1*
G04 #@! TO.N,+3V3*
X37000000Y-67460000D03*
D15*
G04 #@! TO.P,J2,2*
G04 #@! TO.N,35*
X37000000Y-70000000D03*
G04 #@! TO.P,J2,3*
G04 #@! TO.N,GND*
X37000000Y-72540000D03*
G04 #@! TD*
D14*
G04 #@! TO.P,J4,1*
G04 #@! TO.N,+3V3*
X63000000Y-67460000D03*
D15*
G04 #@! TO.P,J4,2*
G04 #@! TO.N,36*
X63000000Y-70000000D03*
G04 #@! TO.P,J4,3*
G04 #@! TO.N,GND*
X63000000Y-72540000D03*
G04 #@! TD*
D14*
G04 #@! TO.P,J5,1*
G04 #@! TO.N,+3V3*
X63000000Y-32540000D03*
D15*
G04 #@! TO.P,J5,2*
G04 #@! TO.N,39*
X63000000Y-30000000D03*
G04 #@! TO.P,J5,3*
G04 #@! TO.N,GND*
X63000000Y-27460000D03*
G04 #@! TD*
G04 #@! TO.P,J12,3*
G04 #@! TO.N,GND*
X52540000Y-73060000D03*
G04 #@! TO.P,J12,2*
X50000000Y-73060000D03*
D14*
G04 #@! TO.P,J12,1*
X47460000Y-73060000D03*
G04 #@! TD*
D15*
G04 #@! TO.P,J11,3*
G04 #@! TO.N,VCC*
X52540000Y-70520000D03*
G04 #@! TO.P,J11,2*
X50000000Y-70520000D03*
D14*
G04 #@! TO.P,J11,1*
X47460000Y-70520000D03*
G04 #@! TD*
D15*
G04 #@! TO.P,J10,3*
G04 #@! TO.N,1*
X52540000Y-67980000D03*
G04 #@! TO.P,J10,2*
G04 #@! TO.N,3*
X50000000Y-67980000D03*
D14*
G04 #@! TO.P,J10,1*
G04 #@! TO.N,19*
X47460000Y-67980000D03*
G04 #@! TD*
D15*
G04 #@! TO.P,J14,3*
G04 #@! TO.N,GND*
X52540000Y-26940000D03*
G04 #@! TO.P,J14,2*
X50000000Y-26940000D03*
D14*
G04 #@! TO.P,J14,1*
X47460000Y-26940000D03*
G04 #@! TD*
D15*
G04 #@! TO.P,J13,3*
G04 #@! TO.N,VCC*
X52540000Y-29480000D03*
G04 #@! TO.P,J13,2*
X50000000Y-29480000D03*
D14*
G04 #@! TO.P,J13,1*
X47460000Y-29480000D03*
G04 #@! TD*
D15*
G04 #@! TO.P,J9,3*
G04 #@! TO.N,18*
X47460000Y-32020000D03*
G04 #@! TO.P,J9,2*
G04 #@! TO.N,33*
X50000000Y-32020000D03*
D14*
G04 #@! TO.P,J9,1*
G04 #@! TO.N,32*
X52540000Y-32020000D03*
G04 #@! TD*
G04 #@! TO.P,U4,13*
G04 #@! TO.N,+3V3*
X56466600Y-58898400D03*
D15*
G04 #@! TO.P,U4,18*
G04 #@! TO.N,GND*
X56466600Y-56358400D03*
G04 #@! TO.P,U4,23*
G04 #@! TO.N,22_SCL*
X56466600Y-53818400D03*
G04 #@! TO.P,U4,24*
G04 #@! TO.N,21_SDA*
X56466600Y-51278400D03*
G04 #@! TO.P,U4,7*
G04 #@! TO.N,N/C*
X56466600Y-48738400D03*
G04 #@! TO.P,U4,6*
X56466600Y-46198400D03*
G04 #@! TO.P,U4,9*
X56466600Y-43658400D03*
G04 #@! TO.P,U4,12*
G04 #@! TO.N,23*
X56466600Y-41118400D03*
D16*
G04 #@! TO.P,U4,*
G04 #@! TO.N,*
X44920000Y-42380000D03*
X44920000Y-57620000D03*
G04 #@! TD*
D17*
G04 #@! TO.P,U1,17*
G04 #@! TO.N,16*
X75120000Y-51270000D03*
G04 #@! TO.P,U1,16*
G04 #@! TO.N,17*
X75120000Y-53810000D03*
G04 #@! TO.P,U1,15*
G04 #@! TO.N,5*
X75120000Y-56350000D03*
G04 #@! TO.P,U1,9*
G04 #@! TO.N,GND*
X75120000Y-58890000D03*
G04 #@! TO.P,U1,22*
G04 #@! TO.N,2*
X75120000Y-43650000D03*
G04 #@! TO.P,U1,19*
G04 #@! TO.N,+3V3*
X75120000Y-48730000D03*
G04 #@! TO.P,U1,21*
G04 #@! TO.N,4*
X75120000Y-46190000D03*
G04 #@! TO.P,U1,23*
G04 #@! TO.N,15*
X75120000Y-41110000D03*
G04 #@! TO.P,U1,7*
G04 #@! TO.N,Net-(M4-Pad2)*
X59880000Y-53810000D03*
G04 #@! TO.P,U1,4*
G04 #@! TO.N,GND*
X59880000Y-58890000D03*
G04 #@! TO.P,U1,11*
G04 #@! TO.N,Net-(M4-Pad1)*
X59880000Y-56350000D03*
G04 #@! TO.P,U1,5*
G04 #@! TO.N,Net-(M3-Pad2)*
X59880000Y-51270000D03*
G04 #@! TO.P,U1,14*
G04 #@! TO.N,VCC*
X59880000Y-41110000D03*
G04 #@! TO.P,U1,18*
G04 #@! TO.N,GND*
X59880000Y-46190000D03*
G04 #@! TO.P,U1,20*
G04 #@! TO.N,+3V3*
X59880000Y-43650000D03*
G04 #@! TO.P,U1,1*
G04 #@! TO.N,Net-(M3-Pad1)*
X59880000Y-48730000D03*
G04 #@! TD*
G04 #@! TO.P,U2,1*
G04 #@! TO.N,Net-(M1-Pad1)*
X24380000Y-48730000D03*
G04 #@! TO.P,U2,20*
G04 #@! TO.N,+3V3*
X24380000Y-43650000D03*
G04 #@! TO.P,U2,18*
G04 #@! TO.N,GND*
X24380000Y-46190000D03*
G04 #@! TO.P,U2,14*
G04 #@! TO.N,VCC*
X24380000Y-41110000D03*
G04 #@! TO.P,U2,5*
G04 #@! TO.N,Net-(M1-Pad2)*
X24380000Y-51270000D03*
G04 #@! TO.P,U2,11*
G04 #@! TO.N,Net-(M2-Pad1)*
X24380000Y-56350000D03*
G04 #@! TO.P,U2,4*
G04 #@! TO.N,GND*
X24380000Y-58890000D03*
G04 #@! TO.P,U2,7*
G04 #@! TO.N,Net-(M2-Pad2)*
X24380000Y-53810000D03*
G04 #@! TO.P,U2,23*
G04 #@! TO.N,13*
X39620000Y-41110000D03*
G04 #@! TO.P,U2,21*
G04 #@! TO.N,14*
X39620000Y-46190000D03*
G04 #@! TO.P,U2,19*
G04 #@! TO.N,+3V3*
X39620000Y-48730000D03*
G04 #@! TO.P,U2,22*
G04 #@! TO.N,12*
X39620000Y-43650000D03*
G04 #@! TO.P,U2,9*
G04 #@! TO.N,GND*
X39620000Y-58890000D03*
G04 #@! TO.P,U2,15*
G04 #@! TO.N,25*
X39620000Y-56350000D03*
G04 #@! TO.P,U2,16*
G04 #@! TO.N,26*
X39620000Y-53810000D03*
G04 #@! TO.P,U2,17*
G04 #@! TO.N,27*
X39620000Y-51270000D03*
G04 #@! TD*
D18*
G04 #@! TO.P,J1,4*
G04 #@! TO.N,22_SCL*
X18500000Y-63000000D03*
G04 #@! TO.P,J1,3*
G04 #@! TO.N,21_SDA*
X18500000Y-61000000D03*
G04 #@! TO.P,J1,2*
G04 #@! TO.N,+3V3*
X18500000Y-59000000D03*
D19*
G04 #@! TO.P,J1,1*
G04 #@! TO.N,GND*
X18500000Y-57000000D03*
G04 #@! TD*
D15*
G04 #@! TO.P,M1,2*
G04 #@! TO.N,Net-(M1-Pad2)*
X29290000Y-30000000D03*
D14*
G04 #@! TO.P,M1,1*
G04 #@! TO.N,Net-(M1-Pad1)*
X26750000Y-30000000D03*
G04 #@! TD*
D15*
G04 #@! TO.P,M3,2*
G04 #@! TO.N,Net-(M3-Pad2)*
X73290000Y-30000000D03*
D14*
G04 #@! TO.P,M3,1*
G04 #@! TO.N,Net-(M3-Pad1)*
X70750000Y-30000000D03*
G04 #@! TD*
G04 #@! TO.P,M2,1*
G04 #@! TO.N,Net-(M2-Pad1)*
X26750000Y-70000000D03*
D15*
G04 #@! TO.P,M2,2*
G04 #@! TO.N,Net-(M2-Pad2)*
X29290000Y-70000000D03*
G04 #@! TD*
G04 #@! TO.P,M4,2*
G04 #@! TO.N,Net-(M4-Pad2)*
X73290000Y-70000000D03*
D14*
G04 #@! TO.P,M4,1*
G04 #@! TO.N,Net-(M4-Pad1)*
X70750000Y-70000000D03*
G04 #@! TD*
D18*
G04 #@! TO.P,J8,4*
G04 #@! TO.N,22_SCL*
X18500000Y-43000000D03*
G04 #@! TO.P,J8,3*
G04 #@! TO.N,21_SDA*
X18500000Y-41000000D03*
G04 #@! TO.P,J8,2*
G04 #@! TO.N,+3V3*
X18500000Y-39000000D03*
D19*
G04 #@! TO.P,J8,1*
G04 #@! TO.N,GND*
X18500000Y-37000000D03*
G04 #@! TD*
D20*
G04 #@! TO.N,GND*
X68250000Y-46000000D03*
X68481764Y-54000000D03*
X70000000Y-65500000D03*
G04 #@! TO.N,18*
X53600000Y-40400000D03*
G04 #@! TD*
D21*
G04 #@! TO.N,GND*
X57316599Y-55508401D02*
X56466600Y-56358400D01*
X57725001Y-55099999D02*
X57316599Y-55508401D01*
X67381765Y-55099999D02*
X57725001Y-55099999D01*
X68060000Y-46190000D02*
X68250000Y-46000000D01*
X68481764Y-54000000D02*
X67381765Y-55099999D01*
X72481764Y-50000000D02*
X68481764Y-54000000D01*
X79460000Y-50000000D02*
X82000000Y-52540000D01*
X72481764Y-50000000D02*
X79460000Y-50000000D01*
G04 #@! TO.N,33*
X52305000Y-34325000D02*
X52305000Y-37300000D01*
X50000000Y-32020000D02*
X52305000Y-34325000D01*
G04 #@! TO.N,5*
X50664999Y-61800001D02*
X49765000Y-62700000D01*
X51849989Y-60615011D02*
X50664999Y-61800001D01*
X70854989Y-60615011D02*
X51849989Y-60615011D01*
X75120000Y-56350000D02*
X70854989Y-60615011D01*
D22*
G04 #@! TO.N,17*
X49809999Y-60115001D02*
X47225000Y-62700000D01*
D21*
X68814999Y-60115001D02*
X63750000Y-60115001D01*
X75120000Y-53810000D02*
X68814999Y-60115001D01*
D22*
X63750000Y-60115001D02*
X49809999Y-60115001D01*
G04 #@! TO.N,16*
X49809999Y-57575001D02*
X44685000Y-62700000D01*
X75120000Y-51270000D02*
X68814999Y-57575001D01*
X68814999Y-57575001D02*
X49809999Y-57575001D01*
G04 #@! TO.N,4*
X69225001Y-52084999D02*
X75120000Y-46190000D01*
D21*
X43044999Y-61800001D02*
X42145000Y-62700000D01*
X43395001Y-61449999D02*
X43044999Y-61800001D01*
X44905123Y-61449999D02*
X43395001Y-61449999D01*
X53835121Y-52520001D02*
X44905123Y-61449999D01*
X68789999Y-52520001D02*
X53835121Y-52520001D01*
X69225001Y-52084999D02*
X68789999Y-52520001D01*
D22*
G04 #@! TO.N,2*
X56050997Y-49955001D02*
X69314999Y-49955001D01*
X69314999Y-49455001D02*
X75120000Y-43650000D01*
X69314999Y-49955001D02*
X69314999Y-49455001D01*
D21*
X45928001Y-59720001D02*
X43220001Y-59720001D01*
X40504999Y-61800001D02*
X39605000Y-62700000D01*
X43000000Y-59940002D02*
X43220001Y-59720001D01*
X43000000Y-59972120D02*
X43000000Y-59940002D01*
X39605000Y-62700000D02*
X42584999Y-59720001D01*
X42584999Y-59720001D02*
X45928001Y-59720001D01*
X47020001Y-58628001D02*
X45928001Y-59720001D01*
X47020001Y-57479999D02*
X47020001Y-58628001D01*
X47500000Y-57000000D02*
X47020001Y-57479999D01*
X47500000Y-53500000D02*
X47500000Y-57000000D01*
X51044999Y-49955001D02*
X47500000Y-53500000D01*
X56050997Y-49955001D02*
X51044999Y-49955001D01*
G04 #@! TO.N,15*
X41868997Y-57600001D02*
X52053997Y-47415001D01*
X39059997Y-57600001D02*
X41868997Y-57600001D01*
X37964999Y-58694999D02*
X39059997Y-57600001D01*
X37065000Y-62700000D02*
X37964999Y-61800001D01*
X37964999Y-61800001D02*
X37964999Y-58694999D01*
X74220001Y-42009999D02*
X75120000Y-41110000D01*
X68750001Y-47479999D02*
X74220001Y-42009999D01*
X59319997Y-47479999D02*
X68750001Y-47479999D01*
X59254999Y-47415001D02*
X59319997Y-47479999D01*
X52053997Y-47415001D02*
X59254999Y-47415001D01*
D23*
G04 #@! TO.N,+3V3*
X38350000Y-32540000D02*
X37000000Y-32540000D01*
X45250001Y-25639999D02*
X38350000Y-32540000D01*
X54749999Y-25639999D02*
X45250001Y-25639999D01*
X61650000Y-32540000D02*
X54749999Y-25639999D01*
X63000000Y-32540000D02*
X61650000Y-32540000D01*
X23650000Y-43650000D02*
X24380000Y-43650000D01*
X37000000Y-67460000D02*
X27460000Y-67460000D01*
X38350000Y-67460000D02*
X37000000Y-67460000D01*
X45250001Y-74360001D02*
X38350000Y-67460000D01*
X54749999Y-74360001D02*
X45250001Y-74360001D01*
X61650000Y-67460000D02*
X54749999Y-74360001D01*
X63000000Y-67460000D02*
X61650000Y-67460000D01*
X55781601Y-39818399D02*
X57090601Y-39818399D01*
X39620000Y-48730000D02*
X46870000Y-48730000D01*
X46870000Y-48730000D02*
X55781601Y-39818399D01*
X20125001Y-47904999D02*
X24380000Y-43650000D01*
X20125001Y-57374999D02*
X20125001Y-47904999D01*
X18500000Y-59000000D02*
X20125001Y-57374999D01*
X19174999Y-38325001D02*
X18500000Y-39000000D01*
X19625001Y-37874999D02*
X19174999Y-38325001D01*
X19625001Y-36374999D02*
X19625001Y-37874999D01*
X23460000Y-32540000D02*
X19625001Y-36374999D01*
X37000000Y-32540000D02*
X23460000Y-32540000D01*
X19730000Y-39000000D02*
X18500000Y-39000000D01*
X24380000Y-43650000D02*
X19730000Y-39000000D01*
D21*
X31985000Y-63900000D02*
X31985000Y-62700000D01*
X45285001Y-63950001D02*
X32035001Y-63950001D01*
X32035001Y-63950001D02*
X31985000Y-63900000D01*
X45935001Y-63300001D02*
X45285001Y-63950001D01*
X45935001Y-62139997D02*
X45935001Y-63300001D01*
X49176598Y-58898400D02*
X45935001Y-62139997D01*
X56466600Y-58898400D02*
X49176598Y-58898400D01*
D23*
X58980001Y-42750001D02*
X59880000Y-43650000D01*
X57766601Y-41536601D02*
X58980001Y-42750001D01*
X57766601Y-40494399D02*
X57766601Y-41536601D01*
X57090601Y-39818399D02*
X57766601Y-40494399D01*
X31985000Y-56365000D02*
X31985000Y-62700000D01*
X39620000Y-48730000D02*
X31985000Y-56365000D01*
X76019999Y-47830001D02*
X75120000Y-48730000D01*
X76470001Y-47379999D02*
X76019999Y-47830001D01*
X76470001Y-40461999D02*
X76470001Y-47379999D01*
X75768001Y-39759999D02*
X76470001Y-40461999D01*
X74333518Y-39759999D02*
X75768001Y-39759999D01*
X73633508Y-40460009D02*
X74333518Y-39759999D01*
X63069991Y-40460009D02*
X73633508Y-40460009D01*
X59880000Y-43650000D02*
X63069991Y-40460009D01*
D24*
G04 #@! TO.N,VCC*
X47460000Y-29480000D02*
X52540000Y-29480000D01*
X28190000Y-37300000D02*
X24380000Y-41110000D01*
X52540000Y-70520000D02*
X47460000Y-70520000D01*
X70203003Y-39509999D02*
X70200000Y-39509999D01*
X70200000Y-39509999D02*
X68500000Y-39509999D01*
X73240001Y-39509999D02*
X68500000Y-39509999D01*
X82000000Y-44960000D02*
X82000000Y-47460000D01*
X31085001Y-38199999D02*
X31985000Y-37300000D01*
X47460000Y-70520000D02*
X45610000Y-70520000D01*
X45610000Y-70520000D02*
X40999999Y-65909999D01*
X40999999Y-65909999D02*
X32134997Y-65909999D01*
X32134997Y-65909999D02*
X30384999Y-64160001D01*
X30384999Y-64160001D02*
X30384999Y-38900001D01*
X30384999Y-38900001D02*
X31085001Y-38199999D01*
X28190000Y-37300000D02*
X31985000Y-37300000D01*
X33585001Y-35699999D02*
X31985000Y-37300000D01*
X39390001Y-35699999D02*
X33585001Y-35699999D01*
X47460000Y-29480000D02*
X45610000Y-29480000D01*
X45610000Y-29480000D02*
X39390001Y-35699999D01*
X61480001Y-39509999D02*
X59880000Y-41110000D01*
X68500000Y-39509999D02*
X61480001Y-39509999D01*
X76101519Y-38750000D02*
X74000000Y-38750000D01*
X82000000Y-44648481D02*
X76101519Y-38750000D01*
X82000000Y-47460000D02*
X82000000Y-44648481D01*
X73240001Y-39509999D02*
X74000000Y-38750000D01*
X54230000Y-29480000D02*
X52540000Y-29480000D01*
X59500000Y-34750000D02*
X54230000Y-29480000D01*
X70000000Y-34750000D02*
X59500000Y-34750000D01*
X74000000Y-38750000D02*
X70000000Y-34750000D01*
X78101519Y-36750000D02*
X81000000Y-36750000D01*
X76101519Y-38750000D02*
X78101519Y-36750000D01*
D25*
G04 #@! TO.N,3*
X61124999Y-64875001D02*
X59500000Y-66500000D01*
X51480000Y-66500000D02*
X50000000Y-67980000D01*
X59500000Y-66500000D02*
X51480000Y-66500000D01*
X61124999Y-63899999D02*
X59925000Y-62700000D01*
X61124999Y-64875001D02*
X61124999Y-63899999D01*
G04 #@! TO.N,1*
X59685000Y-67980000D02*
X52540000Y-67980000D01*
X62465000Y-65200000D02*
X62465000Y-62700000D01*
X59685000Y-67980000D02*
X62465000Y-65200000D01*
G04 #@! TO.N,19*
X47460000Y-66730000D02*
X47460000Y-67980000D01*
X48290010Y-65899990D02*
X47460000Y-66730000D01*
X54145010Y-65899990D02*
X48290010Y-65899990D01*
X54845000Y-65200000D02*
X54845000Y-62700000D01*
X54145010Y-65899990D02*
X54845000Y-65200000D01*
D21*
G04 #@! TO.N,18*
X53514998Y-40400000D02*
X53600000Y-40400000D01*
X47460000Y-32020000D02*
X51014999Y-35574999D01*
X51054999Y-37854999D02*
X51054999Y-35554999D01*
X53600000Y-40400000D02*
X51054999Y-37854999D01*
X50994999Y-35554999D02*
X51054999Y-35554999D01*
X50994999Y-35554999D02*
X47460000Y-32020000D01*
G04 #@! TD*
D26*
G04 #@! TO.N,GND*
G36*
X80754747Y-25805281D02*
X81485643Y-26005231D01*
X82169575Y-26331450D01*
X82784928Y-26773626D01*
X83312259Y-27317789D01*
X83734886Y-27946726D01*
X84039463Y-28640570D01*
X84217715Y-29383039D01*
X84265001Y-30026963D01*
X84265000Y-69967269D01*
X84194719Y-70754748D01*
X83994769Y-71485643D01*
X83668550Y-72169575D01*
X83226374Y-72784928D01*
X82682211Y-73312259D01*
X82053274Y-73734886D01*
X81359429Y-74039464D01*
X80616961Y-74217714D01*
X79973051Y-74265000D01*
X56096578Y-74265000D01*
X57464688Y-72896890D01*
X61558524Y-72896890D01*
X61728355Y-73306924D01*
X62118642Y-73735183D01*
X62643108Y-73981486D01*
X62873000Y-73860819D01*
X62873000Y-72667000D01*
X63127000Y-72667000D01*
X63127000Y-73860819D01*
X63356892Y-73981486D01*
X63881358Y-73735183D01*
X64271645Y-73306924D01*
X64441476Y-72896890D01*
X64320155Y-72667000D01*
X63127000Y-72667000D01*
X62873000Y-72667000D01*
X61679845Y-72667000D01*
X61558524Y-72896890D01*
X57464688Y-72896890D01*
X61652769Y-68708810D01*
X61692191Y-68767809D01*
X61902235Y-68908157D01*
X61947619Y-68917184D01*
X61929375Y-68929375D01*
X61601161Y-69420582D01*
X61485908Y-70000000D01*
X61601161Y-70579418D01*
X61929375Y-71070625D01*
X62248478Y-71283843D01*
X62118642Y-71344817D01*
X61728355Y-71773076D01*
X61558524Y-72183110D01*
X61679845Y-72413000D01*
X62873000Y-72413000D01*
X62873000Y-72393000D01*
X63127000Y-72393000D01*
X63127000Y-72413000D01*
X64320155Y-72413000D01*
X64441476Y-72183110D01*
X64271645Y-71773076D01*
X63881358Y-71344817D01*
X63751522Y-71283843D01*
X64070625Y-71070625D01*
X64398839Y-70579418D01*
X64514092Y-70000000D01*
X64398839Y-69420582D01*
X64218042Y-69150000D01*
X69252560Y-69150000D01*
X69252560Y-70850000D01*
X69301843Y-71097765D01*
X69442191Y-71307809D01*
X69652235Y-71448157D01*
X69900000Y-71497440D01*
X71600000Y-71497440D01*
X71847765Y-71448157D01*
X72057809Y-71307809D01*
X72198157Y-71097765D01*
X72207184Y-71052381D01*
X72219375Y-71070625D01*
X72710582Y-71398839D01*
X73143744Y-71485000D01*
X73436256Y-71485000D01*
X73869418Y-71398839D01*
X74360625Y-71070625D01*
X74688839Y-70579418D01*
X74804092Y-70000000D01*
X77645000Y-70000000D01*
X77760262Y-70727735D01*
X78094765Y-71384234D01*
X78615766Y-71905235D01*
X79272265Y-72239738D01*
X80000000Y-72355000D01*
X80727735Y-72239738D01*
X81384234Y-71905235D01*
X81905235Y-71384234D01*
X82239738Y-70727735D01*
X82355000Y-70000000D01*
X82239738Y-69272265D01*
X81905235Y-68615766D01*
X81384234Y-68094765D01*
X80727735Y-67760262D01*
X80000000Y-67645000D01*
X79272265Y-67760262D01*
X78615766Y-68094765D01*
X78094765Y-68615766D01*
X77760262Y-69272265D01*
X77645000Y-70000000D01*
X74804092Y-70000000D01*
X74688839Y-69420582D01*
X74360625Y-68929375D01*
X73869418Y-68601161D01*
X73436256Y-68515000D01*
X73143744Y-68515000D01*
X72710582Y-68601161D01*
X72219375Y-68929375D01*
X72207184Y-68947619D01*
X72198157Y-68902235D01*
X72057809Y-68692191D01*
X71847765Y-68551843D01*
X71600000Y-68502560D01*
X69900000Y-68502560D01*
X69652235Y-68551843D01*
X69442191Y-68692191D01*
X69301843Y-68902235D01*
X69252560Y-69150000D01*
X64218042Y-69150000D01*
X64070625Y-68929375D01*
X64052381Y-68917184D01*
X64097765Y-68908157D01*
X64307809Y-68767809D01*
X64448157Y-68557765D01*
X64497440Y-68310000D01*
X64497440Y-66610000D01*
X64448157Y-66362235D01*
X64307809Y-66152191D01*
X64097765Y-66011843D01*
X63850000Y-65962560D01*
X62883308Y-65962560D01*
X62997283Y-65848585D01*
X63067001Y-65802001D01*
X63251552Y-65525801D01*
X63300000Y-65282237D01*
X63300000Y-65282236D01*
X63316358Y-65200000D01*
X63300000Y-65117763D01*
X63300000Y-64015603D01*
X63334507Y-64001310D01*
X63735000Y-63600817D01*
X64135493Y-64001310D01*
X64699670Y-64235000D01*
X65310330Y-64235000D01*
X65874507Y-64001310D01*
X66275000Y-63600817D01*
X66675493Y-64001310D01*
X67239670Y-64235000D01*
X67850330Y-64235000D01*
X68414507Y-64001310D01*
X68846310Y-63569507D01*
X69080000Y-63005330D01*
X69080000Y-62394670D01*
X68846310Y-61830493D01*
X68415828Y-61400011D01*
X70777677Y-61400011D01*
X70854989Y-61415389D01*
X70932301Y-61400011D01*
X70932305Y-61400011D01*
X71161281Y-61354465D01*
X71420942Y-61180964D01*
X71464738Y-61115419D01*
X73585000Y-58995158D01*
X73585000Y-59017002D01*
X73749621Y-59017002D01*
X73628964Y-59254740D01*
X73807760Y-59686417D01*
X74212424Y-60127966D01*
X74755258Y-60381046D01*
X74993000Y-60260997D01*
X74993000Y-59017000D01*
X75247000Y-59017000D01*
X75247000Y-60260997D01*
X75484742Y-60381046D01*
X76027576Y-60127966D01*
X76432240Y-59686417D01*
X76611036Y-59254740D01*
X76490378Y-59017000D01*
X75247000Y-59017000D01*
X74993000Y-59017000D01*
X74973000Y-59017000D01*
X74973000Y-58763000D01*
X74993000Y-58763000D01*
X74993000Y-58743000D01*
X75247000Y-58743000D01*
X75247000Y-58763000D01*
X76490378Y-58763000D01*
X76611036Y-58525260D01*
X76432240Y-58093583D01*
X76027576Y-57652034D01*
X75972632Y-57626418D01*
X76226673Y-57456673D01*
X76565938Y-56948927D01*
X76685072Y-56350000D01*
X76565938Y-55751073D01*
X76226673Y-55243327D01*
X75982237Y-55080000D01*
X76226673Y-54916673D01*
X76565938Y-54408927D01*
X76636543Y-54053970D01*
X80665635Y-54053970D01*
X80825418Y-54372739D01*
X81616187Y-54682723D01*
X82465387Y-54666497D01*
X83174582Y-54372739D01*
X83334365Y-54053970D01*
X82000000Y-52719605D01*
X80665635Y-54053970D01*
X76636543Y-54053970D01*
X76685072Y-53810000D01*
X76565938Y-53211073D01*
X76226673Y-52703327D01*
X75982237Y-52540000D01*
X76226673Y-52376673D01*
X76373997Y-52156187D01*
X79857277Y-52156187D01*
X79873503Y-53005387D01*
X80167261Y-53714582D01*
X80486030Y-53874365D01*
X81820395Y-52540000D01*
X82179605Y-52540000D01*
X83513970Y-53874365D01*
X83832739Y-53714582D01*
X84142723Y-52923813D01*
X84126497Y-52074613D01*
X83832739Y-51365418D01*
X83513970Y-51205635D01*
X82179605Y-52540000D01*
X81820395Y-52540000D01*
X80486030Y-51205635D01*
X80167261Y-51365418D01*
X79857277Y-52156187D01*
X76373997Y-52156187D01*
X76565938Y-51868927D01*
X76685072Y-51270000D01*
X76636544Y-51026030D01*
X80665635Y-51026030D01*
X82000000Y-52360395D01*
X83334365Y-51026030D01*
X83174582Y-50707261D01*
X82383813Y-50397277D01*
X81534613Y-50413503D01*
X80825418Y-50707261D01*
X80665635Y-51026030D01*
X76636544Y-51026030D01*
X76565938Y-50671073D01*
X76226673Y-50163327D01*
X75982237Y-50000000D01*
X76226673Y-49836673D01*
X76565938Y-49328927D01*
X76685072Y-48730000D01*
X76633060Y-48468519D01*
X76707423Y-48394156D01*
X76707425Y-48394153D01*
X77034154Y-48067424D01*
X77108050Y-48018048D01*
X77303653Y-47725309D01*
X77355001Y-47467164D01*
X77355001Y-47467160D01*
X77372338Y-47379999D01*
X77355001Y-47292838D01*
X77355001Y-41608613D01*
X80865000Y-45118613D01*
X80865000Y-45312560D01*
X80500000Y-45312560D01*
X80252235Y-45361843D01*
X80042191Y-45502191D01*
X79901843Y-45712235D01*
X79852560Y-45960000D01*
X79852560Y-48960000D01*
X79901843Y-49207765D01*
X80042191Y-49417809D01*
X80252235Y-49558157D01*
X80500000Y-49607440D01*
X83500000Y-49607440D01*
X83747765Y-49558157D01*
X83957809Y-49417809D01*
X84098157Y-49207765D01*
X84147440Y-48960000D01*
X84147440Y-45960000D01*
X84098157Y-45712235D01*
X83957809Y-45502191D01*
X83747765Y-45361843D01*
X83500000Y-45312560D01*
X83135000Y-45312560D01*
X83135000Y-44760264D01*
X83157235Y-44648481D01*
X83069146Y-44205626D01*
X83021603Y-44134473D01*
X82818289Y-43830192D01*
X82723521Y-43766870D01*
X78603541Y-39646890D01*
X79558524Y-39646890D01*
X79728355Y-40056924D01*
X80118642Y-40485183D01*
X80643108Y-40731486D01*
X80873000Y-40610819D01*
X80873000Y-39417000D01*
X81127000Y-39417000D01*
X81127000Y-40610819D01*
X81356892Y-40731486D01*
X81881358Y-40485183D01*
X82271645Y-40056924D01*
X82441476Y-39646890D01*
X82320155Y-39417000D01*
X81127000Y-39417000D01*
X80873000Y-39417000D01*
X79679845Y-39417000D01*
X79558524Y-39646890D01*
X78603541Y-39646890D01*
X77706650Y-38750000D01*
X78571651Y-37885000D01*
X79576723Y-37885000D01*
X79692191Y-38057809D01*
X79902235Y-38198157D01*
X80005708Y-38218739D01*
X79728355Y-38523076D01*
X79558524Y-38933110D01*
X79679845Y-39163000D01*
X80873000Y-39163000D01*
X80873000Y-39143000D01*
X81127000Y-39143000D01*
X81127000Y-39163000D01*
X82320155Y-39163000D01*
X82441476Y-38933110D01*
X82271645Y-38523076D01*
X81994292Y-38218739D01*
X82097765Y-38198157D01*
X82307809Y-38057809D01*
X82448157Y-37847765D01*
X82497440Y-37600000D01*
X82497440Y-35900000D01*
X82448157Y-35652235D01*
X82307809Y-35442191D01*
X82097765Y-35301843D01*
X81850000Y-35252560D01*
X80150000Y-35252560D01*
X79902235Y-35301843D01*
X79692191Y-35442191D01*
X79576723Y-35615000D01*
X78213301Y-35615000D01*
X78101518Y-35592765D01*
X77802542Y-35652235D01*
X77658664Y-35680854D01*
X77283230Y-35931711D01*
X77219908Y-36026479D01*
X75631388Y-37615000D01*
X74470132Y-37615000D01*
X70881613Y-34026482D01*
X70818289Y-33931711D01*
X70442855Y-33680854D01*
X70111783Y-33615000D01*
X70000000Y-33592765D01*
X69888217Y-33615000D01*
X64452685Y-33615000D01*
X64497440Y-33390000D01*
X64497440Y-31690000D01*
X64448157Y-31442235D01*
X64307809Y-31232191D01*
X64097765Y-31091843D01*
X64052381Y-31082816D01*
X64070625Y-31070625D01*
X64398839Y-30579418D01*
X64514092Y-30000000D01*
X64398839Y-29420582D01*
X64218042Y-29150000D01*
X69252560Y-29150000D01*
X69252560Y-30850000D01*
X69301843Y-31097765D01*
X69442191Y-31307809D01*
X69652235Y-31448157D01*
X69900000Y-31497440D01*
X71600000Y-31497440D01*
X71847765Y-31448157D01*
X72057809Y-31307809D01*
X72198157Y-31097765D01*
X72207184Y-31052381D01*
X72219375Y-31070625D01*
X72710582Y-31398839D01*
X73143744Y-31485000D01*
X73436256Y-31485000D01*
X73869418Y-31398839D01*
X74360625Y-31070625D01*
X74688839Y-30579418D01*
X74804092Y-30000000D01*
X77645000Y-30000000D01*
X77760262Y-30727735D01*
X78094765Y-31384234D01*
X78615766Y-31905235D01*
X79272265Y-32239738D01*
X80000000Y-32355000D01*
X80727735Y-32239738D01*
X81384234Y-31905235D01*
X81905235Y-31384234D01*
X82239738Y-30727735D01*
X82355000Y-30000000D01*
X82239738Y-29272265D01*
X81905235Y-28615766D01*
X81384234Y-28094765D01*
X80727735Y-27760262D01*
X80000000Y-27645000D01*
X79272265Y-27760262D01*
X78615766Y-28094765D01*
X78094765Y-28615766D01*
X77760262Y-29272265D01*
X77645000Y-30000000D01*
X74804092Y-30000000D01*
X74688839Y-29420582D01*
X74360625Y-28929375D01*
X73869418Y-28601161D01*
X73436256Y-28515000D01*
X73143744Y-28515000D01*
X72710582Y-28601161D01*
X72219375Y-28929375D01*
X72207184Y-28947619D01*
X72198157Y-28902235D01*
X72057809Y-28692191D01*
X71847765Y-28551843D01*
X71600000Y-28502560D01*
X69900000Y-28502560D01*
X69652235Y-28551843D01*
X69442191Y-28692191D01*
X69301843Y-28902235D01*
X69252560Y-29150000D01*
X64218042Y-29150000D01*
X64070625Y-28929375D01*
X63751522Y-28716157D01*
X63881358Y-28655183D01*
X64271645Y-28226924D01*
X64441476Y-27816890D01*
X64320155Y-27587000D01*
X63127000Y-27587000D01*
X63127000Y-27607000D01*
X62873000Y-27607000D01*
X62873000Y-27587000D01*
X61679845Y-27587000D01*
X61558524Y-27816890D01*
X61728355Y-28226924D01*
X62118642Y-28655183D01*
X62248478Y-28716157D01*
X61929375Y-28929375D01*
X61601161Y-29420582D01*
X61485908Y-30000000D01*
X61601161Y-30579418D01*
X61929375Y-31070625D01*
X61947619Y-31082816D01*
X61902235Y-31091843D01*
X61692191Y-31232191D01*
X61652769Y-31291190D01*
X57464689Y-27103110D01*
X61558524Y-27103110D01*
X61679845Y-27333000D01*
X62873000Y-27333000D01*
X62873000Y-26139181D01*
X63127000Y-26139181D01*
X63127000Y-27333000D01*
X64320155Y-27333000D01*
X64441476Y-27103110D01*
X64271645Y-26693076D01*
X63881358Y-26264817D01*
X63356892Y-26018514D01*
X63127000Y-26139181D01*
X62873000Y-26139181D01*
X62643108Y-26018514D01*
X62118642Y-26264817D01*
X61728355Y-26693076D01*
X61558524Y-27103110D01*
X57464689Y-27103110D01*
X56096578Y-25735000D01*
X79967269Y-25735000D01*
X80754747Y-25805281D01*
X80754747Y-25805281D01*
G37*
X80754747Y-25805281D02*
X81485643Y-26005231D01*
X82169575Y-26331450D01*
X82784928Y-26773626D01*
X83312259Y-27317789D01*
X83734886Y-27946726D01*
X84039463Y-28640570D01*
X84217715Y-29383039D01*
X84265001Y-30026963D01*
X84265000Y-69967269D01*
X84194719Y-70754748D01*
X83994769Y-71485643D01*
X83668550Y-72169575D01*
X83226374Y-72784928D01*
X82682211Y-73312259D01*
X82053274Y-73734886D01*
X81359429Y-74039464D01*
X80616961Y-74217714D01*
X79973051Y-74265000D01*
X56096578Y-74265000D01*
X57464688Y-72896890D01*
X61558524Y-72896890D01*
X61728355Y-73306924D01*
X62118642Y-73735183D01*
X62643108Y-73981486D01*
X62873000Y-73860819D01*
X62873000Y-72667000D01*
X63127000Y-72667000D01*
X63127000Y-73860819D01*
X63356892Y-73981486D01*
X63881358Y-73735183D01*
X64271645Y-73306924D01*
X64441476Y-72896890D01*
X64320155Y-72667000D01*
X63127000Y-72667000D01*
X62873000Y-72667000D01*
X61679845Y-72667000D01*
X61558524Y-72896890D01*
X57464688Y-72896890D01*
X61652769Y-68708810D01*
X61692191Y-68767809D01*
X61902235Y-68908157D01*
X61947619Y-68917184D01*
X61929375Y-68929375D01*
X61601161Y-69420582D01*
X61485908Y-70000000D01*
X61601161Y-70579418D01*
X61929375Y-71070625D01*
X62248478Y-71283843D01*
X62118642Y-71344817D01*
X61728355Y-71773076D01*
X61558524Y-72183110D01*
X61679845Y-72413000D01*
X62873000Y-72413000D01*
X62873000Y-72393000D01*
X63127000Y-72393000D01*
X63127000Y-72413000D01*
X64320155Y-72413000D01*
X64441476Y-72183110D01*
X64271645Y-71773076D01*
X63881358Y-71344817D01*
X63751522Y-71283843D01*
X64070625Y-71070625D01*
X64398839Y-70579418D01*
X64514092Y-70000000D01*
X64398839Y-69420582D01*
X64218042Y-69150000D01*
X69252560Y-69150000D01*
X69252560Y-70850000D01*
X69301843Y-71097765D01*
X69442191Y-71307809D01*
X69652235Y-71448157D01*
X69900000Y-71497440D01*
X71600000Y-71497440D01*
X71847765Y-71448157D01*
X72057809Y-71307809D01*
X72198157Y-71097765D01*
X72207184Y-71052381D01*
X72219375Y-71070625D01*
X72710582Y-71398839D01*
X73143744Y-71485000D01*
X73436256Y-71485000D01*
X73869418Y-71398839D01*
X74360625Y-71070625D01*
X74688839Y-70579418D01*
X74804092Y-70000000D01*
X77645000Y-70000000D01*
X77760262Y-70727735D01*
X78094765Y-71384234D01*
X78615766Y-71905235D01*
X79272265Y-72239738D01*
X80000000Y-72355000D01*
X80727735Y-72239738D01*
X81384234Y-71905235D01*
X81905235Y-71384234D01*
X82239738Y-70727735D01*
X82355000Y-70000000D01*
X82239738Y-69272265D01*
X81905235Y-68615766D01*
X81384234Y-68094765D01*
X80727735Y-67760262D01*
X80000000Y-67645000D01*
X79272265Y-67760262D01*
X78615766Y-68094765D01*
X78094765Y-68615766D01*
X77760262Y-69272265D01*
X77645000Y-70000000D01*
X74804092Y-70000000D01*
X74688839Y-69420582D01*
X74360625Y-68929375D01*
X73869418Y-68601161D01*
X73436256Y-68515000D01*
X73143744Y-68515000D01*
X72710582Y-68601161D01*
X72219375Y-68929375D01*
X72207184Y-68947619D01*
X72198157Y-68902235D01*
X72057809Y-68692191D01*
X71847765Y-68551843D01*
X71600000Y-68502560D01*
X69900000Y-68502560D01*
X69652235Y-68551843D01*
X69442191Y-68692191D01*
X69301843Y-68902235D01*
X69252560Y-69150000D01*
X64218042Y-69150000D01*
X64070625Y-68929375D01*
X64052381Y-68917184D01*
X64097765Y-68908157D01*
X64307809Y-68767809D01*
X64448157Y-68557765D01*
X64497440Y-68310000D01*
X64497440Y-66610000D01*
X64448157Y-66362235D01*
X64307809Y-66152191D01*
X64097765Y-66011843D01*
X63850000Y-65962560D01*
X62883308Y-65962560D01*
X62997283Y-65848585D01*
X63067001Y-65802001D01*
X63251552Y-65525801D01*
X63300000Y-65282237D01*
X63300000Y-65282236D01*
X63316358Y-65200000D01*
X63300000Y-65117763D01*
X63300000Y-64015603D01*
X63334507Y-64001310D01*
X63735000Y-63600817D01*
X64135493Y-64001310D01*
X64699670Y-64235000D01*
X65310330Y-64235000D01*
X65874507Y-64001310D01*
X66275000Y-63600817D01*
X66675493Y-64001310D01*
X67239670Y-64235000D01*
X67850330Y-64235000D01*
X68414507Y-64001310D01*
X68846310Y-63569507D01*
X69080000Y-63005330D01*
X69080000Y-62394670D01*
X68846310Y-61830493D01*
X68415828Y-61400011D01*
X70777677Y-61400011D01*
X70854989Y-61415389D01*
X70932301Y-61400011D01*
X70932305Y-61400011D01*
X71161281Y-61354465D01*
X71420942Y-61180964D01*
X71464738Y-61115419D01*
X73585000Y-58995158D01*
X73585000Y-59017002D01*
X73749621Y-59017002D01*
X73628964Y-59254740D01*
X73807760Y-59686417D01*
X74212424Y-60127966D01*
X74755258Y-60381046D01*
X74993000Y-60260997D01*
X74993000Y-59017000D01*
X75247000Y-59017000D01*
X75247000Y-60260997D01*
X75484742Y-60381046D01*
X76027576Y-60127966D01*
X76432240Y-59686417D01*
X76611036Y-59254740D01*
X76490378Y-59017000D01*
X75247000Y-59017000D01*
X74993000Y-59017000D01*
X74973000Y-59017000D01*
X74973000Y-58763000D01*
X74993000Y-58763000D01*
X74993000Y-58743000D01*
X75247000Y-58743000D01*
X75247000Y-58763000D01*
X76490378Y-58763000D01*
X76611036Y-58525260D01*
X76432240Y-58093583D01*
X76027576Y-57652034D01*
X75972632Y-57626418D01*
X76226673Y-57456673D01*
X76565938Y-56948927D01*
X76685072Y-56350000D01*
X76565938Y-55751073D01*
X76226673Y-55243327D01*
X75982237Y-55080000D01*
X76226673Y-54916673D01*
X76565938Y-54408927D01*
X76636543Y-54053970D01*
X80665635Y-54053970D01*
X80825418Y-54372739D01*
X81616187Y-54682723D01*
X82465387Y-54666497D01*
X83174582Y-54372739D01*
X83334365Y-54053970D01*
X82000000Y-52719605D01*
X80665635Y-54053970D01*
X76636543Y-54053970D01*
X76685072Y-53810000D01*
X76565938Y-53211073D01*
X76226673Y-52703327D01*
X75982237Y-52540000D01*
X76226673Y-52376673D01*
X76373997Y-52156187D01*
X79857277Y-52156187D01*
X79873503Y-53005387D01*
X80167261Y-53714582D01*
X80486030Y-53874365D01*
X81820395Y-52540000D01*
X82179605Y-52540000D01*
X83513970Y-53874365D01*
X83832739Y-53714582D01*
X84142723Y-52923813D01*
X84126497Y-52074613D01*
X83832739Y-51365418D01*
X83513970Y-51205635D01*
X82179605Y-52540000D01*
X81820395Y-52540000D01*
X80486030Y-51205635D01*
X80167261Y-51365418D01*
X79857277Y-52156187D01*
X76373997Y-52156187D01*
X76565938Y-51868927D01*
X76685072Y-51270000D01*
X76636544Y-51026030D01*
X80665635Y-51026030D01*
X82000000Y-52360395D01*
X83334365Y-51026030D01*
X83174582Y-50707261D01*
X82383813Y-50397277D01*
X81534613Y-50413503D01*
X80825418Y-50707261D01*
X80665635Y-51026030D01*
X76636544Y-51026030D01*
X76565938Y-50671073D01*
X76226673Y-50163327D01*
X75982237Y-50000000D01*
X76226673Y-49836673D01*
X76565938Y-49328927D01*
X76685072Y-48730000D01*
X76633060Y-48468519D01*
X76707423Y-48394156D01*
X76707425Y-48394153D01*
X77034154Y-48067424D01*
X77108050Y-48018048D01*
X77303653Y-47725309D01*
X77355001Y-47467164D01*
X77355001Y-47467160D01*
X77372338Y-47379999D01*
X77355001Y-47292838D01*
X77355001Y-41608613D01*
X80865000Y-45118613D01*
X80865000Y-45312560D01*
X80500000Y-45312560D01*
X80252235Y-45361843D01*
X80042191Y-45502191D01*
X79901843Y-45712235D01*
X79852560Y-45960000D01*
X79852560Y-48960000D01*
X79901843Y-49207765D01*
X80042191Y-49417809D01*
X80252235Y-49558157D01*
X80500000Y-49607440D01*
X83500000Y-49607440D01*
X83747765Y-49558157D01*
X83957809Y-49417809D01*
X84098157Y-49207765D01*
X84147440Y-48960000D01*
X84147440Y-45960000D01*
X84098157Y-45712235D01*
X83957809Y-45502191D01*
X83747765Y-45361843D01*
X83500000Y-45312560D01*
X83135000Y-45312560D01*
X83135000Y-44760264D01*
X83157235Y-44648481D01*
X83069146Y-44205626D01*
X83021603Y-44134473D01*
X82818289Y-43830192D01*
X82723521Y-43766870D01*
X78603541Y-39646890D01*
X79558524Y-39646890D01*
X79728355Y-40056924D01*
X80118642Y-40485183D01*
X80643108Y-40731486D01*
X80873000Y-40610819D01*
X80873000Y-39417000D01*
X81127000Y-39417000D01*
X81127000Y-40610819D01*
X81356892Y-40731486D01*
X81881358Y-40485183D01*
X82271645Y-40056924D01*
X82441476Y-39646890D01*
X82320155Y-39417000D01*
X81127000Y-39417000D01*
X80873000Y-39417000D01*
X79679845Y-39417000D01*
X79558524Y-39646890D01*
X78603541Y-39646890D01*
X77706650Y-38750000D01*
X78571651Y-37885000D01*
X79576723Y-37885000D01*
X79692191Y-38057809D01*
X79902235Y-38198157D01*
X80005708Y-38218739D01*
X79728355Y-38523076D01*
X79558524Y-38933110D01*
X79679845Y-39163000D01*
X80873000Y-39163000D01*
X80873000Y-39143000D01*
X81127000Y-39143000D01*
X81127000Y-39163000D01*
X82320155Y-39163000D01*
X82441476Y-38933110D01*
X82271645Y-38523076D01*
X81994292Y-38218739D01*
X82097765Y-38198157D01*
X82307809Y-38057809D01*
X82448157Y-37847765D01*
X82497440Y-37600000D01*
X82497440Y-35900000D01*
X82448157Y-35652235D01*
X82307809Y-35442191D01*
X82097765Y-35301843D01*
X81850000Y-35252560D01*
X80150000Y-35252560D01*
X79902235Y-35301843D01*
X79692191Y-35442191D01*
X79576723Y-35615000D01*
X78213301Y-35615000D01*
X78101518Y-35592765D01*
X77802542Y-35652235D01*
X77658664Y-35680854D01*
X77283230Y-35931711D01*
X77219908Y-36026479D01*
X75631388Y-37615000D01*
X74470132Y-37615000D01*
X70881613Y-34026482D01*
X70818289Y-33931711D01*
X70442855Y-33680854D01*
X70111783Y-33615000D01*
X70000000Y-33592765D01*
X69888217Y-33615000D01*
X64452685Y-33615000D01*
X64497440Y-33390000D01*
X64497440Y-31690000D01*
X64448157Y-31442235D01*
X64307809Y-31232191D01*
X64097765Y-31091843D01*
X64052381Y-31082816D01*
X64070625Y-31070625D01*
X64398839Y-30579418D01*
X64514092Y-30000000D01*
X64398839Y-29420582D01*
X64218042Y-29150000D01*
X69252560Y-29150000D01*
X69252560Y-30850000D01*
X69301843Y-31097765D01*
X69442191Y-31307809D01*
X69652235Y-31448157D01*
X69900000Y-31497440D01*
X71600000Y-31497440D01*
X71847765Y-31448157D01*
X72057809Y-31307809D01*
X72198157Y-31097765D01*
X72207184Y-31052381D01*
X72219375Y-31070625D01*
X72710582Y-31398839D01*
X73143744Y-31485000D01*
X73436256Y-31485000D01*
X73869418Y-31398839D01*
X74360625Y-31070625D01*
X74688839Y-30579418D01*
X74804092Y-30000000D01*
X77645000Y-30000000D01*
X77760262Y-30727735D01*
X78094765Y-31384234D01*
X78615766Y-31905235D01*
X79272265Y-32239738D01*
X80000000Y-32355000D01*
X80727735Y-32239738D01*
X81384234Y-31905235D01*
X81905235Y-31384234D01*
X82239738Y-30727735D01*
X82355000Y-30000000D01*
X82239738Y-29272265D01*
X81905235Y-28615766D01*
X81384234Y-28094765D01*
X80727735Y-27760262D01*
X80000000Y-27645000D01*
X79272265Y-27760262D01*
X78615766Y-28094765D01*
X78094765Y-28615766D01*
X77760262Y-29272265D01*
X77645000Y-30000000D01*
X74804092Y-30000000D01*
X74688839Y-29420582D01*
X74360625Y-28929375D01*
X73869418Y-28601161D01*
X73436256Y-28515000D01*
X73143744Y-28515000D01*
X72710582Y-28601161D01*
X72219375Y-28929375D01*
X72207184Y-28947619D01*
X72198157Y-28902235D01*
X72057809Y-28692191D01*
X71847765Y-28551843D01*
X71600000Y-28502560D01*
X69900000Y-28502560D01*
X69652235Y-28551843D01*
X69442191Y-28692191D01*
X69301843Y-28902235D01*
X69252560Y-29150000D01*
X64218042Y-29150000D01*
X64070625Y-28929375D01*
X63751522Y-28716157D01*
X63881358Y-28655183D01*
X64271645Y-28226924D01*
X64441476Y-27816890D01*
X64320155Y-27587000D01*
X63127000Y-27587000D01*
X63127000Y-27607000D01*
X62873000Y-27607000D01*
X62873000Y-27587000D01*
X61679845Y-27587000D01*
X61558524Y-27816890D01*
X61728355Y-28226924D01*
X62118642Y-28655183D01*
X62248478Y-28716157D01*
X61929375Y-28929375D01*
X61601161Y-29420582D01*
X61485908Y-30000000D01*
X61601161Y-30579418D01*
X61929375Y-31070625D01*
X61947619Y-31082816D01*
X61902235Y-31091843D01*
X61692191Y-31232191D01*
X61652769Y-31291190D01*
X57464689Y-27103110D01*
X61558524Y-27103110D01*
X61679845Y-27333000D01*
X62873000Y-27333000D01*
X62873000Y-26139181D01*
X63127000Y-26139181D01*
X63127000Y-27333000D01*
X64320155Y-27333000D01*
X64441476Y-27103110D01*
X64271645Y-26693076D01*
X63881358Y-26264817D01*
X63356892Y-26018514D01*
X63127000Y-26139181D01*
X62873000Y-26139181D01*
X62643108Y-26018514D01*
X62118642Y-26264817D01*
X61728355Y-26693076D01*
X61558524Y-27103110D01*
X57464689Y-27103110D01*
X56096578Y-25735000D01*
X79967269Y-25735000D01*
X80754747Y-25805281D01*
G36*
X38347231Y-31291190D02*
X38307809Y-31232191D01*
X38097765Y-31091843D01*
X38052381Y-31082816D01*
X38070625Y-31070625D01*
X38398839Y-30579418D01*
X38514092Y-30000000D01*
X38398839Y-29420582D01*
X38070625Y-28929375D01*
X37751522Y-28716157D01*
X37881358Y-28655183D01*
X38271645Y-28226924D01*
X38441476Y-27816890D01*
X38320155Y-27587000D01*
X37127000Y-27587000D01*
X37127000Y-27607000D01*
X36873000Y-27607000D01*
X36873000Y-27587000D01*
X35679845Y-27587000D01*
X35558524Y-27816890D01*
X35728355Y-28226924D01*
X36118642Y-28655183D01*
X36248478Y-28716157D01*
X35929375Y-28929375D01*
X35601161Y-29420582D01*
X35485908Y-30000000D01*
X35601161Y-30579418D01*
X35929375Y-31070625D01*
X35947619Y-31082816D01*
X35902235Y-31091843D01*
X35692191Y-31232191D01*
X35551843Y-31442235D01*
X35509522Y-31655000D01*
X23547161Y-31655000D01*
X23460000Y-31637663D01*
X23372839Y-31655000D01*
X23372835Y-31655000D01*
X23114690Y-31706348D01*
X22895845Y-31852576D01*
X22895844Y-31852577D01*
X22821951Y-31901951D01*
X22772577Y-31975844D01*
X19060848Y-35687574D01*
X19057217Y-35690000D01*
X18785750Y-35690000D01*
X18627000Y-35848750D01*
X18627000Y-36873000D01*
X18647000Y-36873000D01*
X18647000Y-37127000D01*
X18627000Y-37127000D01*
X18627000Y-37147000D01*
X18373000Y-37147000D01*
X18373000Y-37127000D01*
X17348750Y-37127000D01*
X17190000Y-37285750D01*
X17190000Y-37801310D01*
X17286673Y-38034699D01*
X17456198Y-38204223D01*
X17266007Y-38488864D01*
X17164336Y-39000000D01*
X17266007Y-39511136D01*
X17555543Y-39944457D01*
X17638669Y-40000000D01*
X17555543Y-40055543D01*
X17266007Y-40488864D01*
X17164336Y-41000000D01*
X17266007Y-41511136D01*
X17555543Y-41944457D01*
X17638669Y-42000000D01*
X17555543Y-42055543D01*
X17266007Y-42488864D01*
X17164336Y-43000000D01*
X17266007Y-43511136D01*
X17555543Y-43944457D01*
X17988864Y-44233993D01*
X18370978Y-44310000D01*
X18629022Y-44310000D01*
X19011136Y-44233993D01*
X19444457Y-43944457D01*
X19733993Y-43511136D01*
X19835664Y-43000000D01*
X19733993Y-42488864D01*
X19444457Y-42055543D01*
X19361331Y-42000000D01*
X19444457Y-41944457D01*
X19733993Y-41511136D01*
X19835664Y-41000000D01*
X19733993Y-40488864D01*
X19444457Y-40055543D01*
X19361331Y-40000000D01*
X19431522Y-39953100D01*
X22810834Y-43332412D01*
X22747662Y-43650000D01*
X22810834Y-43967588D01*
X19560846Y-47217576D01*
X19486953Y-47266950D01*
X19437579Y-47340843D01*
X19437577Y-47340845D01*
X19291349Y-47559690D01*
X19222664Y-47904999D01*
X19240002Y-47992164D01*
X19240001Y-55690000D01*
X18785750Y-55690000D01*
X18627000Y-55848750D01*
X18627000Y-56873000D01*
X18647000Y-56873000D01*
X18647000Y-57127000D01*
X18627000Y-57127000D01*
X18627000Y-57147000D01*
X18373000Y-57147000D01*
X18373000Y-57127000D01*
X17348750Y-57127000D01*
X17190000Y-57285750D01*
X17190000Y-57801310D01*
X17286673Y-58034699D01*
X17456198Y-58204223D01*
X17266007Y-58488864D01*
X17164336Y-59000000D01*
X17266007Y-59511136D01*
X17555543Y-59944457D01*
X17638669Y-60000000D01*
X17555543Y-60055543D01*
X17266007Y-60488864D01*
X17164336Y-61000000D01*
X17266007Y-61511136D01*
X17555543Y-61944457D01*
X17638669Y-62000000D01*
X17555543Y-62055543D01*
X17266007Y-62488864D01*
X17164336Y-63000000D01*
X17266007Y-63511136D01*
X17555543Y-63944457D01*
X17988864Y-64233993D01*
X18370978Y-64310000D01*
X18629022Y-64310000D01*
X19011136Y-64233993D01*
X19444457Y-63944457D01*
X19733993Y-63511136D01*
X19835664Y-63000000D01*
X19733993Y-62488864D01*
X19444457Y-62055543D01*
X19361331Y-62000000D01*
X19444457Y-61944457D01*
X19733993Y-61511136D01*
X19835664Y-61000000D01*
X19733993Y-60488864D01*
X19444457Y-60055543D01*
X19361331Y-60000000D01*
X19444457Y-59944457D01*
X19733993Y-59511136D01*
X19784992Y-59254742D01*
X22888954Y-59254742D01*
X23142034Y-59797576D01*
X23583583Y-60202240D01*
X24015260Y-60381036D01*
X24253000Y-60260378D01*
X24253000Y-59017000D01*
X24507000Y-59017000D01*
X24507000Y-60260378D01*
X24744740Y-60381036D01*
X25176417Y-60202240D01*
X25617966Y-59797576D01*
X25871046Y-59254742D01*
X25750997Y-59017000D01*
X24507000Y-59017000D01*
X24253000Y-59017000D01*
X23009003Y-59017000D01*
X22888954Y-59254742D01*
X19784992Y-59254742D01*
X19835664Y-59000000D01*
X19821713Y-58929865D01*
X20689157Y-58062422D01*
X20763050Y-58013048D01*
X20834383Y-57906292D01*
X20886948Y-57827623D01*
X20958653Y-57720309D01*
X21010001Y-57462164D01*
X21010001Y-57462160D01*
X21027338Y-57375000D01*
X21010001Y-57287840D01*
X21010001Y-48271577D01*
X22964577Y-46317002D01*
X23009621Y-46317002D01*
X22888964Y-46554740D01*
X23067760Y-46986417D01*
X23472424Y-47427966D01*
X23527368Y-47453582D01*
X23273327Y-47623327D01*
X22934062Y-48131073D01*
X22814928Y-48730000D01*
X22934062Y-49328927D01*
X23273327Y-49836673D01*
X23517763Y-50000000D01*
X23273327Y-50163327D01*
X22934062Y-50671073D01*
X22814928Y-51270000D01*
X22934062Y-51868927D01*
X23273327Y-52376673D01*
X23517763Y-52540000D01*
X23273327Y-52703327D01*
X22934062Y-53211073D01*
X22814928Y-53810000D01*
X22934062Y-54408927D01*
X23273327Y-54916673D01*
X23517763Y-55080000D01*
X23273327Y-55243327D01*
X22934062Y-55751073D01*
X22814928Y-56350000D01*
X22934062Y-56948927D01*
X23273327Y-57456673D01*
X23529174Y-57627624D01*
X23142034Y-57982424D01*
X22888954Y-58525258D01*
X23009003Y-58763000D01*
X24253000Y-58763000D01*
X24253000Y-58743000D01*
X24507000Y-58743000D01*
X24507000Y-58763000D01*
X25750997Y-58763000D01*
X25871046Y-58525258D01*
X25617966Y-57982424D01*
X25230826Y-57627624D01*
X25486673Y-57456673D01*
X25825938Y-56948927D01*
X25945072Y-56350000D01*
X25825938Y-55751073D01*
X25486673Y-55243327D01*
X25242237Y-55080000D01*
X25486673Y-54916673D01*
X25825938Y-54408927D01*
X25945072Y-53810000D01*
X25825938Y-53211073D01*
X25486673Y-52703327D01*
X25242237Y-52540000D01*
X25486673Y-52376673D01*
X25825938Y-51868927D01*
X25945072Y-51270000D01*
X25825938Y-50671073D01*
X25486673Y-50163327D01*
X25242237Y-50000000D01*
X25486673Y-49836673D01*
X25825938Y-49328927D01*
X25945072Y-48730000D01*
X25825938Y-48131073D01*
X25486673Y-47623327D01*
X25232632Y-47453582D01*
X25287576Y-47427966D01*
X25692240Y-46986417D01*
X25871036Y-46554740D01*
X25750378Y-46317000D01*
X24507000Y-46317000D01*
X24507000Y-46337000D01*
X24253000Y-46337000D01*
X24253000Y-46317000D01*
X24233000Y-46317000D01*
X24233000Y-46063000D01*
X24253000Y-46063000D01*
X24253000Y-46043000D01*
X24507000Y-46043000D01*
X24507000Y-46063000D01*
X25750378Y-46063000D01*
X25871036Y-45825260D01*
X25692240Y-45393583D01*
X25287576Y-44952034D01*
X25232632Y-44926418D01*
X25486673Y-44756673D01*
X25825938Y-44248927D01*
X25945072Y-43650000D01*
X25825938Y-43051073D01*
X25486673Y-42543327D01*
X25242237Y-42380000D01*
X25486673Y-42216673D01*
X25825938Y-41708927D01*
X25935125Y-41160006D01*
X28660132Y-38435000D01*
X29330651Y-38435000D01*
X29315853Y-38457147D01*
X29227764Y-38900001D01*
X29250000Y-39011789D01*
X29249999Y-64048218D01*
X29227764Y-64160001D01*
X29249999Y-64271783D01*
X29315853Y-64602855D01*
X29566710Y-64978290D01*
X29661481Y-65041614D01*
X31194866Y-66575000D01*
X27372835Y-66575000D01*
X27114690Y-66626348D01*
X26821951Y-66821951D01*
X26626348Y-67114690D01*
X26557662Y-67460000D01*
X26626348Y-67805310D01*
X26821951Y-68098049D01*
X27114690Y-68293652D01*
X27372835Y-68345000D01*
X35509522Y-68345000D01*
X35551843Y-68557765D01*
X35692191Y-68767809D01*
X35902235Y-68908157D01*
X35947619Y-68917184D01*
X35929375Y-68929375D01*
X35601161Y-69420582D01*
X35485908Y-70000000D01*
X35601161Y-70579418D01*
X35929375Y-71070625D01*
X36248478Y-71283843D01*
X36118642Y-71344817D01*
X35728355Y-71773076D01*
X35558524Y-72183110D01*
X35679845Y-72413000D01*
X36873000Y-72413000D01*
X36873000Y-72393000D01*
X37127000Y-72393000D01*
X37127000Y-72413000D01*
X38320155Y-72413000D01*
X38441476Y-72183110D01*
X38271645Y-71773076D01*
X37881358Y-71344817D01*
X37751522Y-71283843D01*
X38070625Y-71070625D01*
X38398839Y-70579418D01*
X38514092Y-70000000D01*
X38398839Y-69420582D01*
X38070625Y-68929375D01*
X38052381Y-68917184D01*
X38097765Y-68908157D01*
X38307809Y-68767809D01*
X38347231Y-68708810D01*
X43903421Y-74265000D01*
X20032731Y-74265000D01*
X19245252Y-74194719D01*
X18514357Y-73994769D01*
X17830425Y-73668550D01*
X17215072Y-73226374D01*
X16895780Y-72896890D01*
X35558524Y-72896890D01*
X35728355Y-73306924D01*
X36118642Y-73735183D01*
X36643108Y-73981486D01*
X36873000Y-73860819D01*
X36873000Y-72667000D01*
X37127000Y-72667000D01*
X37127000Y-73860819D01*
X37356892Y-73981486D01*
X37881358Y-73735183D01*
X38271645Y-73306924D01*
X38441476Y-72896890D01*
X38320155Y-72667000D01*
X37127000Y-72667000D01*
X36873000Y-72667000D01*
X35679845Y-72667000D01*
X35558524Y-72896890D01*
X16895780Y-72896890D01*
X16687741Y-72682211D01*
X16265114Y-72053274D01*
X15960536Y-71359429D01*
X15782286Y-70616961D01*
X15736980Y-70000000D01*
X17645000Y-70000000D01*
X17760262Y-70727735D01*
X18094765Y-71384234D01*
X18615766Y-71905235D01*
X19272265Y-72239738D01*
X20000000Y-72355000D01*
X20727735Y-72239738D01*
X21384234Y-71905235D01*
X21905235Y-71384234D01*
X22239738Y-70727735D01*
X22355000Y-70000000D01*
X22239738Y-69272265D01*
X22177441Y-69150000D01*
X25252560Y-69150000D01*
X25252560Y-70850000D01*
X25301843Y-71097765D01*
X25442191Y-71307809D01*
X25652235Y-71448157D01*
X25900000Y-71497440D01*
X27600000Y-71497440D01*
X27847765Y-71448157D01*
X28057809Y-71307809D01*
X28198157Y-71097765D01*
X28207184Y-71052381D01*
X28219375Y-71070625D01*
X28710582Y-71398839D01*
X29143744Y-71485000D01*
X29436256Y-71485000D01*
X29869418Y-71398839D01*
X30360625Y-71070625D01*
X30688839Y-70579418D01*
X30804092Y-70000000D01*
X30688839Y-69420582D01*
X30360625Y-68929375D01*
X29869418Y-68601161D01*
X29436256Y-68515000D01*
X29143744Y-68515000D01*
X28710582Y-68601161D01*
X28219375Y-68929375D01*
X28207184Y-68947619D01*
X28198157Y-68902235D01*
X28057809Y-68692191D01*
X27847765Y-68551843D01*
X27600000Y-68502560D01*
X25900000Y-68502560D01*
X25652235Y-68551843D01*
X25442191Y-68692191D01*
X25301843Y-68902235D01*
X25252560Y-69150000D01*
X22177441Y-69150000D01*
X21905235Y-68615766D01*
X21384234Y-68094765D01*
X20727735Y-67760262D01*
X20000000Y-67645000D01*
X19272265Y-67760262D01*
X18615766Y-68094765D01*
X18094765Y-68615766D01*
X17760262Y-69272265D01*
X17645000Y-70000000D01*
X15736980Y-70000000D01*
X15735000Y-69973051D01*
X15735000Y-56198690D01*
X17190000Y-56198690D01*
X17190000Y-56714250D01*
X17348750Y-56873000D01*
X18373000Y-56873000D01*
X18373000Y-55848750D01*
X18214250Y-55690000D01*
X17698691Y-55690000D01*
X17465302Y-55786673D01*
X17286673Y-55965301D01*
X17190000Y-56198690D01*
X15735000Y-56198690D01*
X15735000Y-36198690D01*
X17190000Y-36198690D01*
X17190000Y-36714250D01*
X17348750Y-36873000D01*
X18373000Y-36873000D01*
X18373000Y-35848750D01*
X18214250Y-35690000D01*
X17698691Y-35690000D01*
X17465302Y-35786673D01*
X17286673Y-35965301D01*
X17190000Y-36198690D01*
X15735000Y-36198690D01*
X15735000Y-30032731D01*
X15737921Y-30000000D01*
X17645000Y-30000000D01*
X17760262Y-30727735D01*
X18094765Y-31384234D01*
X18615766Y-31905235D01*
X19272265Y-32239738D01*
X20000000Y-32355000D01*
X20727735Y-32239738D01*
X21384234Y-31905235D01*
X21905235Y-31384234D01*
X22239738Y-30727735D01*
X22355000Y-30000000D01*
X22239738Y-29272265D01*
X22177441Y-29150000D01*
X25252560Y-29150000D01*
X25252560Y-30850000D01*
X25301843Y-31097765D01*
X25442191Y-31307809D01*
X25652235Y-31448157D01*
X25900000Y-31497440D01*
X27600000Y-31497440D01*
X27847765Y-31448157D01*
X28057809Y-31307809D01*
X28198157Y-31097765D01*
X28207184Y-31052381D01*
X28219375Y-31070625D01*
X28710582Y-31398839D01*
X29143744Y-31485000D01*
X29436256Y-31485000D01*
X29869418Y-31398839D01*
X30360625Y-31070625D01*
X30688839Y-30579418D01*
X30804092Y-30000000D01*
X30688839Y-29420582D01*
X30360625Y-28929375D01*
X29869418Y-28601161D01*
X29436256Y-28515000D01*
X29143744Y-28515000D01*
X28710582Y-28601161D01*
X28219375Y-28929375D01*
X28207184Y-28947619D01*
X28198157Y-28902235D01*
X28057809Y-28692191D01*
X27847765Y-28551843D01*
X27600000Y-28502560D01*
X25900000Y-28502560D01*
X25652235Y-28551843D01*
X25442191Y-28692191D01*
X25301843Y-28902235D01*
X25252560Y-29150000D01*
X22177441Y-29150000D01*
X21905235Y-28615766D01*
X21384234Y-28094765D01*
X20727735Y-27760262D01*
X20000000Y-27645000D01*
X19272265Y-27760262D01*
X18615766Y-28094765D01*
X18094765Y-28615766D01*
X17760262Y-29272265D01*
X17645000Y-30000000D01*
X15737921Y-30000000D01*
X15805281Y-29245253D01*
X16005231Y-28514357D01*
X16331450Y-27830425D01*
X16773626Y-27215072D01*
X16889161Y-27103110D01*
X35558524Y-27103110D01*
X35679845Y-27333000D01*
X36873000Y-27333000D01*
X36873000Y-26139181D01*
X37127000Y-26139181D01*
X37127000Y-27333000D01*
X38320155Y-27333000D01*
X38441476Y-27103110D01*
X38271645Y-26693076D01*
X37881358Y-26264817D01*
X37356892Y-26018514D01*
X37127000Y-26139181D01*
X36873000Y-26139181D01*
X36643108Y-26018514D01*
X36118642Y-26264817D01*
X35728355Y-26693076D01*
X35558524Y-27103110D01*
X16889161Y-27103110D01*
X17317789Y-26687741D01*
X17946726Y-26265114D01*
X18640570Y-25960537D01*
X19383039Y-25782285D01*
X20026949Y-25735000D01*
X43903421Y-25735000D01*
X38347231Y-31291190D01*
X38347231Y-31291190D01*
G37*
X38347231Y-31291190D02*
X38307809Y-31232191D01*
X38097765Y-31091843D01*
X38052381Y-31082816D01*
X38070625Y-31070625D01*
X38398839Y-30579418D01*
X38514092Y-30000000D01*
X38398839Y-29420582D01*
X38070625Y-28929375D01*
X37751522Y-28716157D01*
X37881358Y-28655183D01*
X38271645Y-28226924D01*
X38441476Y-27816890D01*
X38320155Y-27587000D01*
X37127000Y-27587000D01*
X37127000Y-27607000D01*
X36873000Y-27607000D01*
X36873000Y-27587000D01*
X35679845Y-27587000D01*
X35558524Y-27816890D01*
X35728355Y-28226924D01*
X36118642Y-28655183D01*
X36248478Y-28716157D01*
X35929375Y-28929375D01*
X35601161Y-29420582D01*
X35485908Y-30000000D01*
X35601161Y-30579418D01*
X35929375Y-31070625D01*
X35947619Y-31082816D01*
X35902235Y-31091843D01*
X35692191Y-31232191D01*
X35551843Y-31442235D01*
X35509522Y-31655000D01*
X23547161Y-31655000D01*
X23460000Y-31637663D01*
X23372839Y-31655000D01*
X23372835Y-31655000D01*
X23114690Y-31706348D01*
X22895845Y-31852576D01*
X22895844Y-31852577D01*
X22821951Y-31901951D01*
X22772577Y-31975844D01*
X19060848Y-35687574D01*
X19057217Y-35690000D01*
X18785750Y-35690000D01*
X18627000Y-35848750D01*
X18627000Y-36873000D01*
X18647000Y-36873000D01*
X18647000Y-37127000D01*
X18627000Y-37127000D01*
X18627000Y-37147000D01*
X18373000Y-37147000D01*
X18373000Y-37127000D01*
X17348750Y-37127000D01*
X17190000Y-37285750D01*
X17190000Y-37801310D01*
X17286673Y-38034699D01*
X17456198Y-38204223D01*
X17266007Y-38488864D01*
X17164336Y-39000000D01*
X17266007Y-39511136D01*
X17555543Y-39944457D01*
X17638669Y-40000000D01*
X17555543Y-40055543D01*
X17266007Y-40488864D01*
X17164336Y-41000000D01*
X17266007Y-41511136D01*
X17555543Y-41944457D01*
X17638669Y-42000000D01*
X17555543Y-42055543D01*
X17266007Y-42488864D01*
X17164336Y-43000000D01*
X17266007Y-43511136D01*
X17555543Y-43944457D01*
X17988864Y-44233993D01*
X18370978Y-44310000D01*
X18629022Y-44310000D01*
X19011136Y-44233993D01*
X19444457Y-43944457D01*
X19733993Y-43511136D01*
X19835664Y-43000000D01*
X19733993Y-42488864D01*
X19444457Y-42055543D01*
X19361331Y-42000000D01*
X19444457Y-41944457D01*
X19733993Y-41511136D01*
X19835664Y-41000000D01*
X19733993Y-40488864D01*
X19444457Y-40055543D01*
X19361331Y-40000000D01*
X19431522Y-39953100D01*
X22810834Y-43332412D01*
X22747662Y-43650000D01*
X22810834Y-43967588D01*
X19560846Y-47217576D01*
X19486953Y-47266950D01*
X19437579Y-47340843D01*
X19437577Y-47340845D01*
X19291349Y-47559690D01*
X19222664Y-47904999D01*
X19240002Y-47992164D01*
X19240001Y-55690000D01*
X18785750Y-55690000D01*
X18627000Y-55848750D01*
X18627000Y-56873000D01*
X18647000Y-56873000D01*
X18647000Y-57127000D01*
X18627000Y-57127000D01*
X18627000Y-57147000D01*
X18373000Y-57147000D01*
X18373000Y-57127000D01*
X17348750Y-57127000D01*
X17190000Y-57285750D01*
X17190000Y-57801310D01*
X17286673Y-58034699D01*
X17456198Y-58204223D01*
X17266007Y-58488864D01*
X17164336Y-59000000D01*
X17266007Y-59511136D01*
X17555543Y-59944457D01*
X17638669Y-60000000D01*
X17555543Y-60055543D01*
X17266007Y-60488864D01*
X17164336Y-61000000D01*
X17266007Y-61511136D01*
X17555543Y-61944457D01*
X17638669Y-62000000D01*
X17555543Y-62055543D01*
X17266007Y-62488864D01*
X17164336Y-63000000D01*
X17266007Y-63511136D01*
X17555543Y-63944457D01*
X17988864Y-64233993D01*
X18370978Y-64310000D01*
X18629022Y-64310000D01*
X19011136Y-64233993D01*
X19444457Y-63944457D01*
X19733993Y-63511136D01*
X19835664Y-63000000D01*
X19733993Y-62488864D01*
X19444457Y-62055543D01*
X19361331Y-62000000D01*
X19444457Y-61944457D01*
X19733993Y-61511136D01*
X19835664Y-61000000D01*
X19733993Y-60488864D01*
X19444457Y-60055543D01*
X19361331Y-60000000D01*
X19444457Y-59944457D01*
X19733993Y-59511136D01*
X19784992Y-59254742D01*
X22888954Y-59254742D01*
X23142034Y-59797576D01*
X23583583Y-60202240D01*
X24015260Y-60381036D01*
X24253000Y-60260378D01*
X24253000Y-59017000D01*
X24507000Y-59017000D01*
X24507000Y-60260378D01*
X24744740Y-60381036D01*
X25176417Y-60202240D01*
X25617966Y-59797576D01*
X25871046Y-59254742D01*
X25750997Y-59017000D01*
X24507000Y-59017000D01*
X24253000Y-59017000D01*
X23009003Y-59017000D01*
X22888954Y-59254742D01*
X19784992Y-59254742D01*
X19835664Y-59000000D01*
X19821713Y-58929865D01*
X20689157Y-58062422D01*
X20763050Y-58013048D01*
X20834383Y-57906292D01*
X20886948Y-57827623D01*
X20958653Y-57720309D01*
X21010001Y-57462164D01*
X21010001Y-57462160D01*
X21027338Y-57375000D01*
X21010001Y-57287840D01*
X21010001Y-48271577D01*
X22964577Y-46317002D01*
X23009621Y-46317002D01*
X22888964Y-46554740D01*
X23067760Y-46986417D01*
X23472424Y-47427966D01*
X23527368Y-47453582D01*
X23273327Y-47623327D01*
X22934062Y-48131073D01*
X22814928Y-48730000D01*
X22934062Y-49328927D01*
X23273327Y-49836673D01*
X23517763Y-50000000D01*
X23273327Y-50163327D01*
X22934062Y-50671073D01*
X22814928Y-51270000D01*
X22934062Y-51868927D01*
X23273327Y-52376673D01*
X23517763Y-52540000D01*
X23273327Y-52703327D01*
X22934062Y-53211073D01*
X22814928Y-53810000D01*
X22934062Y-54408927D01*
X23273327Y-54916673D01*
X23517763Y-55080000D01*
X23273327Y-55243327D01*
X22934062Y-55751073D01*
X22814928Y-56350000D01*
X22934062Y-56948927D01*
X23273327Y-57456673D01*
X23529174Y-57627624D01*
X23142034Y-57982424D01*
X22888954Y-58525258D01*
X23009003Y-58763000D01*
X24253000Y-58763000D01*
X24253000Y-58743000D01*
X24507000Y-58743000D01*
X24507000Y-58763000D01*
X25750997Y-58763000D01*
X25871046Y-58525258D01*
X25617966Y-57982424D01*
X25230826Y-57627624D01*
X25486673Y-57456673D01*
X25825938Y-56948927D01*
X25945072Y-56350000D01*
X25825938Y-55751073D01*
X25486673Y-55243327D01*
X25242237Y-55080000D01*
X25486673Y-54916673D01*
X25825938Y-54408927D01*
X25945072Y-53810000D01*
X25825938Y-53211073D01*
X25486673Y-52703327D01*
X25242237Y-52540000D01*
X25486673Y-52376673D01*
X25825938Y-51868927D01*
X25945072Y-51270000D01*
X25825938Y-50671073D01*
X25486673Y-50163327D01*
X25242237Y-50000000D01*
X25486673Y-49836673D01*
X25825938Y-49328927D01*
X25945072Y-48730000D01*
X25825938Y-48131073D01*
X25486673Y-47623327D01*
X25232632Y-47453582D01*
X25287576Y-47427966D01*
X25692240Y-46986417D01*
X25871036Y-46554740D01*
X25750378Y-46317000D01*
X24507000Y-46317000D01*
X24507000Y-46337000D01*
X24253000Y-46337000D01*
X24253000Y-46317000D01*
X24233000Y-46317000D01*
X24233000Y-46063000D01*
X24253000Y-46063000D01*
X24253000Y-46043000D01*
X24507000Y-46043000D01*
X24507000Y-46063000D01*
X25750378Y-46063000D01*
X25871036Y-45825260D01*
X25692240Y-45393583D01*
X25287576Y-44952034D01*
X25232632Y-44926418D01*
X25486673Y-44756673D01*
X25825938Y-44248927D01*
X25945072Y-43650000D01*
X25825938Y-43051073D01*
X25486673Y-42543327D01*
X25242237Y-42380000D01*
X25486673Y-42216673D01*
X25825938Y-41708927D01*
X25935125Y-41160006D01*
X28660132Y-38435000D01*
X29330651Y-38435000D01*
X29315853Y-38457147D01*
X29227764Y-38900001D01*
X29250000Y-39011789D01*
X29249999Y-64048218D01*
X29227764Y-64160001D01*
X29249999Y-64271783D01*
X29315853Y-64602855D01*
X29566710Y-64978290D01*
X29661481Y-65041614D01*
X31194866Y-66575000D01*
X27372835Y-66575000D01*
X27114690Y-66626348D01*
X26821951Y-66821951D01*
X26626348Y-67114690D01*
X26557662Y-67460000D01*
X26626348Y-67805310D01*
X26821951Y-68098049D01*
X27114690Y-68293652D01*
X27372835Y-68345000D01*
X35509522Y-68345000D01*
X35551843Y-68557765D01*
X35692191Y-68767809D01*
X35902235Y-68908157D01*
X35947619Y-68917184D01*
X35929375Y-68929375D01*
X35601161Y-69420582D01*
X35485908Y-70000000D01*
X35601161Y-70579418D01*
X35929375Y-71070625D01*
X36248478Y-71283843D01*
X36118642Y-71344817D01*
X35728355Y-71773076D01*
X35558524Y-72183110D01*
X35679845Y-72413000D01*
X36873000Y-72413000D01*
X36873000Y-72393000D01*
X37127000Y-72393000D01*
X37127000Y-72413000D01*
X38320155Y-72413000D01*
X38441476Y-72183110D01*
X38271645Y-71773076D01*
X37881358Y-71344817D01*
X37751522Y-71283843D01*
X38070625Y-71070625D01*
X38398839Y-70579418D01*
X38514092Y-70000000D01*
X38398839Y-69420582D01*
X38070625Y-68929375D01*
X38052381Y-68917184D01*
X38097765Y-68908157D01*
X38307809Y-68767809D01*
X38347231Y-68708810D01*
X43903421Y-74265000D01*
X20032731Y-74265000D01*
X19245252Y-74194719D01*
X18514357Y-73994769D01*
X17830425Y-73668550D01*
X17215072Y-73226374D01*
X16895780Y-72896890D01*
X35558524Y-72896890D01*
X35728355Y-73306924D01*
X36118642Y-73735183D01*
X36643108Y-73981486D01*
X36873000Y-73860819D01*
X36873000Y-72667000D01*
X37127000Y-72667000D01*
X37127000Y-73860819D01*
X37356892Y-73981486D01*
X37881358Y-73735183D01*
X38271645Y-73306924D01*
X38441476Y-72896890D01*
X38320155Y-72667000D01*
X37127000Y-72667000D01*
X36873000Y-72667000D01*
X35679845Y-72667000D01*
X35558524Y-72896890D01*
X16895780Y-72896890D01*
X16687741Y-72682211D01*
X16265114Y-72053274D01*
X15960536Y-71359429D01*
X15782286Y-70616961D01*
X15736980Y-70000000D01*
X17645000Y-70000000D01*
X17760262Y-70727735D01*
X18094765Y-71384234D01*
X18615766Y-71905235D01*
X19272265Y-72239738D01*
X20000000Y-72355000D01*
X20727735Y-72239738D01*
X21384234Y-71905235D01*
X21905235Y-71384234D01*
X22239738Y-70727735D01*
X22355000Y-70000000D01*
X22239738Y-69272265D01*
X22177441Y-69150000D01*
X25252560Y-69150000D01*
X25252560Y-70850000D01*
X25301843Y-71097765D01*
X25442191Y-71307809D01*
X25652235Y-71448157D01*
X25900000Y-71497440D01*
X27600000Y-71497440D01*
X27847765Y-71448157D01*
X28057809Y-71307809D01*
X28198157Y-71097765D01*
X28207184Y-71052381D01*
X28219375Y-71070625D01*
X28710582Y-71398839D01*
X29143744Y-71485000D01*
X29436256Y-71485000D01*
X29869418Y-71398839D01*
X30360625Y-71070625D01*
X30688839Y-70579418D01*
X30804092Y-70000000D01*
X30688839Y-69420582D01*
X30360625Y-68929375D01*
X29869418Y-68601161D01*
X29436256Y-68515000D01*
X29143744Y-68515000D01*
X28710582Y-68601161D01*
X28219375Y-68929375D01*
X28207184Y-68947619D01*
X28198157Y-68902235D01*
X28057809Y-68692191D01*
X27847765Y-68551843D01*
X27600000Y-68502560D01*
X25900000Y-68502560D01*
X25652235Y-68551843D01*
X25442191Y-68692191D01*
X25301843Y-68902235D01*
X25252560Y-69150000D01*
X22177441Y-69150000D01*
X21905235Y-68615766D01*
X21384234Y-68094765D01*
X20727735Y-67760262D01*
X20000000Y-67645000D01*
X19272265Y-67760262D01*
X18615766Y-68094765D01*
X18094765Y-68615766D01*
X17760262Y-69272265D01*
X17645000Y-70000000D01*
X15736980Y-70000000D01*
X15735000Y-69973051D01*
X15735000Y-56198690D01*
X17190000Y-56198690D01*
X17190000Y-56714250D01*
X17348750Y-56873000D01*
X18373000Y-56873000D01*
X18373000Y-55848750D01*
X18214250Y-55690000D01*
X17698691Y-55690000D01*
X17465302Y-55786673D01*
X17286673Y-55965301D01*
X17190000Y-56198690D01*
X15735000Y-56198690D01*
X15735000Y-36198690D01*
X17190000Y-36198690D01*
X17190000Y-36714250D01*
X17348750Y-36873000D01*
X18373000Y-36873000D01*
X18373000Y-35848750D01*
X18214250Y-35690000D01*
X17698691Y-35690000D01*
X17465302Y-35786673D01*
X17286673Y-35965301D01*
X17190000Y-36198690D01*
X15735000Y-36198690D01*
X15735000Y-30032731D01*
X15737921Y-30000000D01*
X17645000Y-30000000D01*
X17760262Y-30727735D01*
X18094765Y-31384234D01*
X18615766Y-31905235D01*
X19272265Y-32239738D01*
X20000000Y-32355000D01*
X20727735Y-32239738D01*
X21384234Y-31905235D01*
X21905235Y-31384234D01*
X22239738Y-30727735D01*
X22355000Y-30000000D01*
X22239738Y-29272265D01*
X22177441Y-29150000D01*
X25252560Y-29150000D01*
X25252560Y-30850000D01*
X25301843Y-31097765D01*
X25442191Y-31307809D01*
X25652235Y-31448157D01*
X25900000Y-31497440D01*
X27600000Y-31497440D01*
X27847765Y-31448157D01*
X28057809Y-31307809D01*
X28198157Y-31097765D01*
X28207184Y-31052381D01*
X28219375Y-31070625D01*
X28710582Y-31398839D01*
X29143744Y-31485000D01*
X29436256Y-31485000D01*
X29869418Y-31398839D01*
X30360625Y-31070625D01*
X30688839Y-30579418D01*
X30804092Y-30000000D01*
X30688839Y-29420582D01*
X30360625Y-28929375D01*
X29869418Y-28601161D01*
X29436256Y-28515000D01*
X29143744Y-28515000D01*
X28710582Y-28601161D01*
X28219375Y-28929375D01*
X28207184Y-28947619D01*
X28198157Y-28902235D01*
X28057809Y-28692191D01*
X27847765Y-28551843D01*
X27600000Y-28502560D01*
X25900000Y-28502560D01*
X25652235Y-28551843D01*
X25442191Y-28692191D01*
X25301843Y-28902235D01*
X25252560Y-29150000D01*
X22177441Y-29150000D01*
X21905235Y-28615766D01*
X21384234Y-28094765D01*
X20727735Y-27760262D01*
X20000000Y-27645000D01*
X19272265Y-27760262D01*
X18615766Y-28094765D01*
X18094765Y-28615766D01*
X17760262Y-29272265D01*
X17645000Y-30000000D01*
X15737921Y-30000000D01*
X15805281Y-29245253D01*
X16005231Y-28514357D01*
X16331450Y-27830425D01*
X16773626Y-27215072D01*
X16889161Y-27103110D01*
X35558524Y-27103110D01*
X35679845Y-27333000D01*
X36873000Y-27333000D01*
X36873000Y-26139181D01*
X37127000Y-26139181D01*
X37127000Y-27333000D01*
X38320155Y-27333000D01*
X38441476Y-27103110D01*
X38271645Y-26693076D01*
X37881358Y-26264817D01*
X37356892Y-26018514D01*
X37127000Y-26139181D01*
X36873000Y-26139181D01*
X36643108Y-26018514D01*
X36118642Y-26264817D01*
X35728355Y-26693076D01*
X35558524Y-27103110D01*
X16889161Y-27103110D01*
X17317789Y-26687741D01*
X17946726Y-26265114D01*
X18640570Y-25960537D01*
X19383039Y-25782285D01*
X20026949Y-25735000D01*
X43903421Y-25735000D01*
X38347231Y-31291190D01*
G36*
X44728389Y-71243521D02*
X44791711Y-71338289D01*
X45121184Y-71558436D01*
X45167145Y-71589146D01*
X45610000Y-71677235D01*
X45721783Y-71655000D01*
X46036723Y-71655000D01*
X46128949Y-71793025D01*
X46071673Y-71850302D01*
X45975000Y-72083691D01*
X45975000Y-72774250D01*
X46133750Y-72933000D01*
X47333000Y-72933000D01*
X47333000Y-72913000D01*
X47587000Y-72913000D01*
X47587000Y-72933000D01*
X49873000Y-72933000D01*
X49873000Y-72913000D01*
X50127000Y-72913000D01*
X50127000Y-72933000D01*
X52413000Y-72933000D01*
X52413000Y-72913000D01*
X52667000Y-72913000D01*
X52667000Y-72933000D01*
X53860819Y-72933000D01*
X53981486Y-72703108D01*
X53735183Y-72178642D01*
X53310214Y-71791353D01*
X53610625Y-71590625D01*
X53938839Y-71099418D01*
X54054092Y-70520000D01*
X53938839Y-69940582D01*
X53610625Y-69449375D01*
X53312239Y-69250000D01*
X53610625Y-69050625D01*
X53768065Y-68815000D01*
X59043421Y-68815000D01*
X54383421Y-73475001D01*
X53954196Y-73475001D01*
X53981486Y-73416892D01*
X53860819Y-73187000D01*
X52667000Y-73187000D01*
X52667000Y-73207000D01*
X52413000Y-73207000D01*
X52413000Y-73187000D01*
X50127000Y-73187000D01*
X50127000Y-73207000D01*
X49873000Y-73207000D01*
X49873000Y-73187000D01*
X47587000Y-73187000D01*
X47587000Y-73207000D01*
X47333000Y-73207000D01*
X47333000Y-73187000D01*
X46133750Y-73187000D01*
X45975000Y-73345750D01*
X45975000Y-73475001D01*
X45616580Y-73475001D01*
X39186577Y-67044999D01*
X40529868Y-67044999D01*
X44728389Y-71243521D01*
X44728389Y-71243521D01*
G37*
X44728389Y-71243521D02*
X44791711Y-71338289D01*
X45121184Y-71558436D01*
X45167145Y-71589146D01*
X45610000Y-71677235D01*
X45721783Y-71655000D01*
X46036723Y-71655000D01*
X46128949Y-71793025D01*
X46071673Y-71850302D01*
X45975000Y-72083691D01*
X45975000Y-72774250D01*
X46133750Y-72933000D01*
X47333000Y-72933000D01*
X47333000Y-72913000D01*
X47587000Y-72913000D01*
X47587000Y-72933000D01*
X49873000Y-72933000D01*
X49873000Y-72913000D01*
X50127000Y-72913000D01*
X50127000Y-72933000D01*
X52413000Y-72933000D01*
X52413000Y-72913000D01*
X52667000Y-72913000D01*
X52667000Y-72933000D01*
X53860819Y-72933000D01*
X53981486Y-72703108D01*
X53735183Y-72178642D01*
X53310214Y-71791353D01*
X53610625Y-71590625D01*
X53938839Y-71099418D01*
X54054092Y-70520000D01*
X53938839Y-69940582D01*
X53610625Y-69449375D01*
X53312239Y-69250000D01*
X53610625Y-69050625D01*
X53768065Y-68815000D01*
X59043421Y-68815000D01*
X54383421Y-73475001D01*
X53954196Y-73475001D01*
X53981486Y-73416892D01*
X53860819Y-73187000D01*
X52667000Y-73187000D01*
X52667000Y-73207000D01*
X52413000Y-73207000D01*
X52413000Y-73187000D01*
X50127000Y-73187000D01*
X50127000Y-73207000D01*
X49873000Y-73207000D01*
X49873000Y-73187000D01*
X47587000Y-73187000D01*
X47587000Y-73207000D01*
X47333000Y-73207000D01*
X47333000Y-73187000D01*
X46133750Y-73187000D01*
X45975000Y-73345750D01*
X45975000Y-73475001D01*
X45616580Y-73475001D01*
X39186577Y-67044999D01*
X40529868Y-67044999D01*
X44728389Y-71243521D01*
G36*
X38174062Y-51868927D02*
X38513327Y-52376673D01*
X38757763Y-52540000D01*
X38513327Y-52703327D01*
X38174062Y-53211073D01*
X38054928Y-53810000D01*
X38174062Y-54408927D01*
X38513327Y-54916673D01*
X38757763Y-55080000D01*
X38513327Y-55243327D01*
X38174062Y-55751073D01*
X38054928Y-56350000D01*
X38174062Y-56948927D01*
X38345035Y-57204806D01*
X37464589Y-58085252D01*
X37399047Y-58129046D01*
X37355253Y-58194588D01*
X37355250Y-58194591D01*
X37225545Y-58388708D01*
X37164621Y-58694999D01*
X37180000Y-58772316D01*
X37179999Y-61165000D01*
X36759670Y-61165000D01*
X36195493Y-61398690D01*
X35763690Y-61830493D01*
X35755562Y-61850115D01*
X35605159Y-61799446D01*
X34704605Y-62700000D01*
X34718748Y-62714143D01*
X34539143Y-62893748D01*
X34525000Y-62879605D01*
X34510858Y-62893748D01*
X34331253Y-62714143D01*
X34345395Y-62700000D01*
X34331253Y-62685858D01*
X34510858Y-62506253D01*
X34525000Y-62520395D01*
X35425554Y-61619841D01*
X35339148Y-61363357D01*
X34765664Y-61153542D01*
X34155540Y-61179161D01*
X33710852Y-61363357D01*
X33624447Y-61619839D01*
X33509890Y-61505282D01*
X33475058Y-61540114D01*
X33342809Y-61342191D01*
X33132765Y-61201843D01*
X32885000Y-61152560D01*
X32870000Y-61152560D01*
X32870000Y-56731578D01*
X38100827Y-51500751D01*
X38174062Y-51868927D01*
X38174062Y-51868927D01*
G37*
X38174062Y-51868927D02*
X38513327Y-52376673D01*
X38757763Y-52540000D01*
X38513327Y-52703327D01*
X38174062Y-53211073D01*
X38054928Y-53810000D01*
X38174062Y-54408927D01*
X38513327Y-54916673D01*
X38757763Y-55080000D01*
X38513327Y-55243327D01*
X38174062Y-55751073D01*
X38054928Y-56350000D01*
X38174062Y-56948927D01*
X38345035Y-57204806D01*
X37464589Y-58085252D01*
X37399047Y-58129046D01*
X37355253Y-58194588D01*
X37355250Y-58194591D01*
X37225545Y-58388708D01*
X37164621Y-58694999D01*
X37180000Y-58772316D01*
X37179999Y-61165000D01*
X36759670Y-61165000D01*
X36195493Y-61398690D01*
X35763690Y-61830493D01*
X35755562Y-61850115D01*
X35605159Y-61799446D01*
X34704605Y-62700000D01*
X34718748Y-62714143D01*
X34539143Y-62893748D01*
X34525000Y-62879605D01*
X34510858Y-62893748D01*
X34331253Y-62714143D01*
X34345395Y-62700000D01*
X34331253Y-62685858D01*
X34510858Y-62506253D01*
X34525000Y-62520395D01*
X35425554Y-61619841D01*
X35339148Y-61363357D01*
X34765664Y-61153542D01*
X34155540Y-61179161D01*
X33710852Y-61363357D01*
X33624447Y-61619839D01*
X33509890Y-61505282D01*
X33475058Y-61540114D01*
X33342809Y-61342191D01*
X33132765Y-61201843D01*
X32885000Y-61152560D01*
X32870000Y-61152560D01*
X32870000Y-56731578D01*
X38100827Y-51500751D01*
X38174062Y-51868927D01*
G36*
X42535000Y-58094406D02*
X42883186Y-58935001D01*
X42662310Y-58935001D01*
X42584998Y-58919623D01*
X42507686Y-58935001D01*
X42507683Y-58935001D01*
X42278707Y-58980547D01*
X42084590Y-59110252D01*
X42084588Y-59110254D01*
X42019046Y-59154048D01*
X41975252Y-59219590D01*
X40004592Y-61190251D01*
X40004590Y-61190252D01*
X39994838Y-61200004D01*
X39910330Y-61165000D01*
X39299670Y-61165000D01*
X38749999Y-61392681D01*
X38749999Y-60145484D01*
X39255258Y-60381046D01*
X39493000Y-60260997D01*
X39493000Y-59017000D01*
X39747000Y-59017000D01*
X39747000Y-60260997D01*
X39984742Y-60381046D01*
X40527576Y-60127966D01*
X40932240Y-59686417D01*
X41111036Y-59254740D01*
X40990378Y-59017000D01*
X39747000Y-59017000D01*
X39493000Y-59017000D01*
X39473000Y-59017000D01*
X39473000Y-58763000D01*
X39493000Y-58763000D01*
X39493000Y-58743000D01*
X39747000Y-58743000D01*
X39747000Y-58763000D01*
X40990378Y-58763000D01*
X41111036Y-58525260D01*
X41052942Y-58385001D01*
X41791685Y-58385001D01*
X41868997Y-58400379D01*
X41946309Y-58385001D01*
X41946313Y-58385001D01*
X42175289Y-58339455D01*
X42434950Y-58165954D01*
X42478746Y-58100409D01*
X42535000Y-58044155D01*
X42535000Y-58094406D01*
X42535000Y-58094406D01*
G37*
X42535000Y-58094406D02*
X42883186Y-58935001D01*
X42662310Y-58935001D01*
X42584998Y-58919623D01*
X42507686Y-58935001D01*
X42507683Y-58935001D01*
X42278707Y-58980547D01*
X42084590Y-59110252D01*
X42084588Y-59110254D01*
X42019046Y-59154048D01*
X41975252Y-59219590D01*
X40004592Y-61190251D01*
X40004590Y-61190252D01*
X39994838Y-61200004D01*
X39910330Y-61165000D01*
X39299670Y-61165000D01*
X38749999Y-61392681D01*
X38749999Y-60145484D01*
X39255258Y-60381046D01*
X39493000Y-60260997D01*
X39493000Y-59017000D01*
X39747000Y-59017000D01*
X39747000Y-60260997D01*
X39984742Y-60381046D01*
X40527576Y-60127966D01*
X40932240Y-59686417D01*
X41111036Y-59254740D01*
X40990378Y-59017000D01*
X39747000Y-59017000D01*
X39493000Y-59017000D01*
X39473000Y-59017000D01*
X39473000Y-58763000D01*
X39493000Y-58763000D01*
X39493000Y-58743000D01*
X39747000Y-58743000D01*
X39747000Y-58763000D01*
X40990378Y-58763000D01*
X41111036Y-58525260D01*
X41052942Y-58385001D01*
X41791685Y-58385001D01*
X41868997Y-58400379D01*
X41946309Y-58385001D01*
X41946313Y-58385001D01*
X42175289Y-58339455D01*
X42434950Y-58165954D01*
X42478746Y-58100409D01*
X42535000Y-58044155D01*
X42535000Y-58094406D01*
G36*
X73630403Y-54189439D02*
X68489842Y-59330001D01*
X63672684Y-59330001D01*
X63547000Y-59355001D01*
X61324303Y-59355001D01*
X61371046Y-59254742D01*
X61250997Y-59017000D01*
X60007000Y-59017000D01*
X60007000Y-59037000D01*
X59753000Y-59037000D01*
X59753000Y-59017000D01*
X58509003Y-59017000D01*
X58388954Y-59254742D01*
X58435697Y-59355001D01*
X57964040Y-59355001D01*
X57964040Y-58335001D01*
X58477656Y-58335001D01*
X58388954Y-58525258D01*
X58509003Y-58763000D01*
X59753000Y-58763000D01*
X59753000Y-58743000D01*
X60007000Y-58743000D01*
X60007000Y-58763000D01*
X61250997Y-58763000D01*
X61371046Y-58525258D01*
X61282344Y-58335001D01*
X68740152Y-58335001D01*
X68814999Y-58349889D01*
X68889846Y-58335001D01*
X68889851Y-58335001D01*
X69111536Y-58290905D01*
X69362928Y-58122930D01*
X69405330Y-58059471D01*
X73571498Y-53893304D01*
X73630403Y-54189439D01*
X73630403Y-54189439D01*
G37*
X73630403Y-54189439D02*
X68489842Y-59330001D01*
X63672684Y-59330001D01*
X63547000Y-59355001D01*
X61324303Y-59355001D01*
X61371046Y-59254742D01*
X61250997Y-59017000D01*
X60007000Y-59017000D01*
X60007000Y-59037000D01*
X59753000Y-59037000D01*
X59753000Y-59017000D01*
X58509003Y-59017000D01*
X58388954Y-59254742D01*
X58435697Y-59355001D01*
X57964040Y-59355001D01*
X57964040Y-58335001D01*
X58477656Y-58335001D01*
X58388954Y-58525258D01*
X58509003Y-58763000D01*
X59753000Y-58763000D01*
X59753000Y-58743000D01*
X60007000Y-58743000D01*
X60007000Y-58763000D01*
X61250997Y-58763000D01*
X61371046Y-58525258D01*
X61282344Y-58335001D01*
X68740152Y-58335001D01*
X68814999Y-58349889D01*
X68889846Y-58335001D01*
X68889851Y-58335001D01*
X69111536Y-58290905D01*
X69362928Y-58122930D01*
X69405330Y-58059471D01*
X73571498Y-53893304D01*
X73630403Y-54189439D01*
G36*
X54952508Y-53818400D02*
X55067761Y-54397818D01*
X55395975Y-54889025D01*
X55715078Y-55102243D01*
X55585242Y-55163217D01*
X55194955Y-55591476D01*
X55025124Y-56001510D01*
X55146445Y-56231400D01*
X56339600Y-56231400D01*
X56339600Y-56211400D01*
X56593600Y-56211400D01*
X56593600Y-56231400D01*
X57786755Y-56231400D01*
X57908076Y-56001510D01*
X57738245Y-55591476D01*
X57347958Y-55163217D01*
X57218122Y-55102243D01*
X57537225Y-54889025D01*
X57865439Y-54397818D01*
X57980692Y-53818400D01*
X57878571Y-53305001D01*
X58415379Y-53305001D01*
X58314928Y-53810000D01*
X58434062Y-54408927D01*
X58773327Y-54916673D01*
X59017763Y-55080000D01*
X58773327Y-55243327D01*
X58434062Y-55751073D01*
X58314928Y-56350000D01*
X58407422Y-56815001D01*
X57866777Y-56815001D01*
X57908076Y-56715290D01*
X57786755Y-56485400D01*
X56593600Y-56485400D01*
X56593600Y-56505400D01*
X56339600Y-56505400D01*
X56339600Y-56485400D01*
X55146445Y-56485400D01*
X55025124Y-56715290D01*
X55066423Y-56815001D01*
X50650279Y-56815001D01*
X54160279Y-53305001D01*
X55054629Y-53305001D01*
X54952508Y-53818400D01*
X54952508Y-53818400D01*
G37*
X54952508Y-53818400D02*
X55067761Y-54397818D01*
X55395975Y-54889025D01*
X55715078Y-55102243D01*
X55585242Y-55163217D01*
X55194955Y-55591476D01*
X55025124Y-56001510D01*
X55146445Y-56231400D01*
X56339600Y-56231400D01*
X56339600Y-56211400D01*
X56593600Y-56211400D01*
X56593600Y-56231400D01*
X57786755Y-56231400D01*
X57908076Y-56001510D01*
X57738245Y-55591476D01*
X57347958Y-55163217D01*
X57218122Y-55102243D01*
X57537225Y-54889025D01*
X57865439Y-54397818D01*
X57980692Y-53818400D01*
X57878571Y-53305001D01*
X58415379Y-53305001D01*
X58314928Y-53810000D01*
X58434062Y-54408927D01*
X58773327Y-54916673D01*
X59017763Y-55080000D01*
X58773327Y-55243327D01*
X58434062Y-55751073D01*
X58314928Y-56350000D01*
X58407422Y-56815001D01*
X57866777Y-56815001D01*
X57908076Y-56715290D01*
X57786755Y-56485400D01*
X56593600Y-56485400D01*
X56593600Y-56505400D01*
X56339600Y-56505400D01*
X56339600Y-56485400D01*
X55146445Y-56485400D01*
X55025124Y-56715290D01*
X55066423Y-56815001D01*
X50650279Y-56815001D01*
X54160279Y-53305001D01*
X55054629Y-53305001D01*
X54952508Y-53818400D01*
G36*
X73674062Y-49328927D02*
X74013327Y-49836673D01*
X74257763Y-50000000D01*
X74013327Y-50163327D01*
X73674062Y-50671073D01*
X73554928Y-51270000D01*
X73636269Y-51678929D01*
X68500198Y-56815001D01*
X61352578Y-56815001D01*
X61445072Y-56350000D01*
X61325938Y-55751073D01*
X60986673Y-55243327D01*
X60742237Y-55080000D01*
X60986673Y-54916673D01*
X61325938Y-54408927D01*
X61445072Y-53810000D01*
X61344621Y-53305001D01*
X68712687Y-53305001D01*
X68789999Y-53320379D01*
X68867311Y-53305001D01*
X68867315Y-53305001D01*
X69096291Y-53259455D01*
X69355952Y-53085954D01*
X69399749Y-53020408D01*
X69834750Y-52585406D01*
X69905946Y-52478855D01*
X73571498Y-48813304D01*
X73674062Y-49328927D01*
X73674062Y-49328927D01*
G37*
X73674062Y-49328927D02*
X74013327Y-49836673D01*
X74257763Y-50000000D01*
X74013327Y-50163327D01*
X73674062Y-50671073D01*
X73554928Y-51270000D01*
X73636269Y-51678929D01*
X68500198Y-56815001D01*
X61352578Y-56815001D01*
X61445072Y-56350000D01*
X61325938Y-55751073D01*
X60986673Y-55243327D01*
X60742237Y-55080000D01*
X60986673Y-54916673D01*
X61325938Y-54408927D01*
X61445072Y-53810000D01*
X61344621Y-53305001D01*
X68712687Y-53305001D01*
X68789999Y-53320379D01*
X68867311Y-53305001D01*
X68867315Y-53305001D01*
X69096291Y-53259455D01*
X69355952Y-53085954D01*
X69399749Y-53020408D01*
X69834750Y-52585406D01*
X69905946Y-52478855D01*
X73571498Y-48813304D01*
X73674062Y-49328927D01*
G36*
X34718748Y-37285858D02*
X34704605Y-37300000D01*
X35605159Y-38200554D01*
X35755562Y-38149885D01*
X35763690Y-38169507D01*
X36195493Y-38601310D01*
X36759670Y-38835000D01*
X37370330Y-38835000D01*
X37934507Y-38601310D01*
X38335000Y-38200817D01*
X38735493Y-38601310D01*
X39299670Y-38835000D01*
X39910330Y-38835000D01*
X40474507Y-38601310D01*
X40875000Y-38200817D01*
X41275493Y-38601310D01*
X41839670Y-38835000D01*
X42450330Y-38835000D01*
X43014507Y-38601310D01*
X43415000Y-38200817D01*
X43815493Y-38601310D01*
X44379670Y-38835000D01*
X44990330Y-38835000D01*
X45554507Y-38601310D01*
X45955000Y-38200817D01*
X46355493Y-38601310D01*
X46919670Y-38835000D01*
X47530330Y-38835000D01*
X48094507Y-38601310D01*
X48495000Y-38200817D01*
X48895493Y-38601310D01*
X49459670Y-38835000D01*
X50070330Y-38835000D01*
X50634507Y-38601310D01*
X50662830Y-38572987D01*
X52565000Y-40475158D01*
X52565000Y-40605874D01*
X52722569Y-40986280D01*
X53013720Y-41277431D01*
X53054216Y-41294205D01*
X46503422Y-47845000D01*
X40874790Y-47845000D01*
X40726673Y-47623327D01*
X40482237Y-47460000D01*
X40726673Y-47296673D01*
X41065938Y-46788927D01*
X41185072Y-46190000D01*
X41065938Y-45591073D01*
X40726673Y-45083327D01*
X40482237Y-44920000D01*
X40726673Y-44756673D01*
X41065938Y-44248927D01*
X41185072Y-43650000D01*
X41065938Y-43051073D01*
X40726673Y-42543327D01*
X40482237Y-42380000D01*
X40726673Y-42216673D01*
X40934529Y-41905594D01*
X42535000Y-41905594D01*
X42535000Y-42854406D01*
X42898095Y-43730994D01*
X43569006Y-44401905D01*
X44445594Y-44765000D01*
X45394406Y-44765000D01*
X46270994Y-44401905D01*
X46941905Y-43730994D01*
X47305000Y-42854406D01*
X47305000Y-41905594D01*
X46941905Y-41029006D01*
X46270994Y-40358095D01*
X45394406Y-39995000D01*
X44445594Y-39995000D01*
X43569006Y-40358095D01*
X42898095Y-41029006D01*
X42535000Y-41905594D01*
X40934529Y-41905594D01*
X41065938Y-41708927D01*
X41185072Y-41110000D01*
X41065938Y-40511073D01*
X40726673Y-40003327D01*
X40218927Y-39664062D01*
X39771182Y-39575000D01*
X39468818Y-39575000D01*
X39021073Y-39664062D01*
X38513327Y-40003327D01*
X38174062Y-40511073D01*
X38054928Y-41110000D01*
X38174062Y-41708927D01*
X38513327Y-42216673D01*
X38757763Y-42380000D01*
X38513327Y-42543327D01*
X38174062Y-43051073D01*
X38054928Y-43650000D01*
X38174062Y-44248927D01*
X38513327Y-44756673D01*
X38757763Y-44920000D01*
X38513327Y-45083327D01*
X38174062Y-45591073D01*
X38054928Y-46190000D01*
X38174062Y-46788927D01*
X38513327Y-47296673D01*
X38757763Y-47460000D01*
X38513327Y-47623327D01*
X38174062Y-48131073D01*
X38054928Y-48730000D01*
X38106940Y-48991481D01*
X31519999Y-55578423D01*
X31519999Y-39370132D01*
X32055131Y-38835000D01*
X32290330Y-38835000D01*
X32854507Y-38601310D01*
X33075658Y-38380159D01*
X33624446Y-38380159D01*
X33710852Y-38636643D01*
X34284336Y-38846458D01*
X34894460Y-38820839D01*
X35339148Y-38636643D01*
X35425554Y-38380159D01*
X34525000Y-37479605D01*
X33624446Y-38380159D01*
X33075658Y-38380159D01*
X33286310Y-38169507D01*
X33294438Y-38149885D01*
X33444841Y-38200554D01*
X34345395Y-37300000D01*
X34331253Y-37285858D01*
X34510858Y-37106253D01*
X34525000Y-37120395D01*
X34539143Y-37106253D01*
X34718748Y-37285858D01*
X34718748Y-37285858D01*
G37*
X34718748Y-37285858D02*
X34704605Y-37300000D01*
X35605159Y-38200554D01*
X35755562Y-38149885D01*
X35763690Y-38169507D01*
X36195493Y-38601310D01*
X36759670Y-38835000D01*
X37370330Y-38835000D01*
X37934507Y-38601310D01*
X38335000Y-38200817D01*
X38735493Y-38601310D01*
X39299670Y-38835000D01*
X39910330Y-38835000D01*
X40474507Y-38601310D01*
X40875000Y-38200817D01*
X41275493Y-38601310D01*
X41839670Y-38835000D01*
X42450330Y-38835000D01*
X43014507Y-38601310D01*
X43415000Y-38200817D01*
X43815493Y-38601310D01*
X44379670Y-38835000D01*
X44990330Y-38835000D01*
X45554507Y-38601310D01*
X45955000Y-38200817D01*
X46355493Y-38601310D01*
X46919670Y-38835000D01*
X47530330Y-38835000D01*
X48094507Y-38601310D01*
X48495000Y-38200817D01*
X48895493Y-38601310D01*
X49459670Y-38835000D01*
X50070330Y-38835000D01*
X50634507Y-38601310D01*
X50662830Y-38572987D01*
X52565000Y-40475158D01*
X52565000Y-40605874D01*
X52722569Y-40986280D01*
X53013720Y-41277431D01*
X53054216Y-41294205D01*
X46503422Y-47845000D01*
X40874790Y-47845000D01*
X40726673Y-47623327D01*
X40482237Y-47460000D01*
X40726673Y-47296673D01*
X41065938Y-46788927D01*
X41185072Y-46190000D01*
X41065938Y-45591073D01*
X40726673Y-45083327D01*
X40482237Y-44920000D01*
X40726673Y-44756673D01*
X41065938Y-44248927D01*
X41185072Y-43650000D01*
X41065938Y-43051073D01*
X40726673Y-42543327D01*
X40482237Y-42380000D01*
X40726673Y-42216673D01*
X40934529Y-41905594D01*
X42535000Y-41905594D01*
X42535000Y-42854406D01*
X42898095Y-43730994D01*
X43569006Y-44401905D01*
X44445594Y-44765000D01*
X45394406Y-44765000D01*
X46270994Y-44401905D01*
X46941905Y-43730994D01*
X47305000Y-42854406D01*
X47305000Y-41905594D01*
X46941905Y-41029006D01*
X46270994Y-40358095D01*
X45394406Y-39995000D01*
X44445594Y-39995000D01*
X43569006Y-40358095D01*
X42898095Y-41029006D01*
X42535000Y-41905594D01*
X40934529Y-41905594D01*
X41065938Y-41708927D01*
X41185072Y-41110000D01*
X41065938Y-40511073D01*
X40726673Y-40003327D01*
X40218927Y-39664062D01*
X39771182Y-39575000D01*
X39468818Y-39575000D01*
X39021073Y-39664062D01*
X38513327Y-40003327D01*
X38174062Y-40511073D01*
X38054928Y-41110000D01*
X38174062Y-41708927D01*
X38513327Y-42216673D01*
X38757763Y-42380000D01*
X38513327Y-42543327D01*
X38174062Y-43051073D01*
X38054928Y-43650000D01*
X38174062Y-44248927D01*
X38513327Y-44756673D01*
X38757763Y-44920000D01*
X38513327Y-45083327D01*
X38174062Y-45591073D01*
X38054928Y-46190000D01*
X38174062Y-46788927D01*
X38513327Y-47296673D01*
X38757763Y-47460000D01*
X38513327Y-47623327D01*
X38174062Y-48131073D01*
X38054928Y-48730000D01*
X38106940Y-48991481D01*
X31519999Y-55578423D01*
X31519999Y-39370132D01*
X32055131Y-38835000D01*
X32290330Y-38835000D01*
X32854507Y-38601310D01*
X33075658Y-38380159D01*
X33624446Y-38380159D01*
X33710852Y-38636643D01*
X34284336Y-38846458D01*
X34894460Y-38820839D01*
X35339148Y-38636643D01*
X35425554Y-38380159D01*
X34525000Y-37479605D01*
X33624446Y-38380159D01*
X33075658Y-38380159D01*
X33286310Y-38169507D01*
X33294438Y-38149885D01*
X33444841Y-38200554D01*
X34345395Y-37300000D01*
X34331253Y-37285858D01*
X34510858Y-37106253D01*
X34525000Y-37120395D01*
X34539143Y-37106253D01*
X34718748Y-37285858D01*
G36*
X73603953Y-41356467D02*
X73630403Y-41489439D01*
X68424844Y-46694999D01*
X61312942Y-46694999D01*
X61371036Y-46554740D01*
X61250378Y-46317000D01*
X60007000Y-46317000D01*
X60007000Y-46337000D01*
X59753000Y-46337000D01*
X59753000Y-46317000D01*
X58509622Y-46317000D01*
X58388964Y-46554740D01*
X58420136Y-46630001D01*
X57894842Y-46630001D01*
X57980692Y-46198400D01*
X57865439Y-45618982D01*
X57537225Y-45127775D01*
X57238839Y-44928400D01*
X57537225Y-44729025D01*
X57865439Y-44237818D01*
X57980692Y-43658400D01*
X57865439Y-43078982D01*
X57537225Y-42587775D01*
X57238839Y-42388400D01*
X57315559Y-42337137D01*
X58366940Y-43388519D01*
X58314928Y-43650000D01*
X58434062Y-44248927D01*
X58773327Y-44756673D01*
X59027368Y-44926418D01*
X58972424Y-44952034D01*
X58567760Y-45393583D01*
X58388964Y-45825260D01*
X58509622Y-46063000D01*
X59753000Y-46063000D01*
X59753000Y-46043000D01*
X60007000Y-46043000D01*
X60007000Y-46063000D01*
X61250378Y-46063000D01*
X61371036Y-45825260D01*
X61192240Y-45393583D01*
X60787576Y-44952034D01*
X60732632Y-44926418D01*
X60986673Y-44756673D01*
X61325938Y-44248927D01*
X61445072Y-43650000D01*
X61393060Y-43388518D01*
X63436570Y-41345009D01*
X73546347Y-41345009D01*
X73603953Y-41356467D01*
X73603953Y-41356467D01*
G37*
X73603953Y-41356467D02*
X73630403Y-41489439D01*
X68424844Y-46694999D01*
X61312942Y-46694999D01*
X61371036Y-46554740D01*
X61250378Y-46317000D01*
X60007000Y-46317000D01*
X60007000Y-46337000D01*
X59753000Y-46337000D01*
X59753000Y-46317000D01*
X58509622Y-46317000D01*
X58388964Y-46554740D01*
X58420136Y-46630001D01*
X57894842Y-46630001D01*
X57980692Y-46198400D01*
X57865439Y-45618982D01*
X57537225Y-45127775D01*
X57238839Y-44928400D01*
X57537225Y-44729025D01*
X57865439Y-44237818D01*
X57980692Y-43658400D01*
X57865439Y-43078982D01*
X57537225Y-42587775D01*
X57238839Y-42388400D01*
X57315559Y-42337137D01*
X58366940Y-43388519D01*
X58314928Y-43650000D01*
X58434062Y-44248927D01*
X58773327Y-44756673D01*
X59027368Y-44926418D01*
X58972424Y-44952034D01*
X58567760Y-45393583D01*
X58388964Y-45825260D01*
X58509622Y-46063000D01*
X59753000Y-46063000D01*
X59753000Y-46043000D01*
X60007000Y-46043000D01*
X60007000Y-46063000D01*
X61250378Y-46063000D01*
X61371036Y-45825260D01*
X61192240Y-45393583D01*
X60787576Y-44952034D01*
X60732632Y-44926418D01*
X60986673Y-44756673D01*
X61325938Y-44248927D01*
X61445072Y-43650000D01*
X61393060Y-43388518D01*
X63436570Y-41345009D01*
X73546347Y-41345009D01*
X73603953Y-41356467D01*
G36*
X45975000Y-26654250D02*
X46133750Y-26813000D01*
X47333000Y-26813000D01*
X47333000Y-26793000D01*
X47587000Y-26793000D01*
X47587000Y-26813000D01*
X49873000Y-26813000D01*
X49873000Y-26793000D01*
X50127000Y-26793000D01*
X50127000Y-26813000D01*
X52413000Y-26813000D01*
X52413000Y-26793000D01*
X52667000Y-26793000D01*
X52667000Y-26813000D01*
X53860819Y-26813000D01*
X53981486Y-26583108D01*
X53954196Y-26524999D01*
X54383421Y-26524999D01*
X60962576Y-33104155D01*
X61011951Y-33178049D01*
X61085844Y-33227423D01*
X61085845Y-33227424D01*
X61236081Y-33327809D01*
X61304690Y-33373652D01*
X61507326Y-33413959D01*
X61547315Y-33615000D01*
X59970133Y-33615000D01*
X55111613Y-28756482D01*
X55048289Y-28661711D01*
X54672855Y-28410854D01*
X54341783Y-28345000D01*
X54230000Y-28322765D01*
X54118217Y-28345000D01*
X53514281Y-28345000D01*
X53310214Y-28208647D01*
X53735183Y-27821358D01*
X53981486Y-27296892D01*
X53860819Y-27067000D01*
X52667000Y-27067000D01*
X52667000Y-27087000D01*
X52413000Y-27087000D01*
X52413000Y-27067000D01*
X50127000Y-27067000D01*
X50127000Y-27087000D01*
X49873000Y-27087000D01*
X49873000Y-27067000D01*
X47587000Y-27067000D01*
X47587000Y-27087000D01*
X47333000Y-27087000D01*
X47333000Y-27067000D01*
X46133750Y-27067000D01*
X45975000Y-27225750D01*
X45975000Y-27916309D01*
X46071673Y-28149698D01*
X46128949Y-28206975D01*
X46036723Y-28345000D01*
X45721783Y-28345000D01*
X45610000Y-28322765D01*
X45314839Y-28381476D01*
X45167145Y-28410854D01*
X44791711Y-28661711D01*
X44728389Y-28756479D01*
X38919870Y-34564999D01*
X33696783Y-34564999D01*
X33585000Y-34542764D01*
X33142146Y-34630853D01*
X32766712Y-34881710D01*
X32703390Y-34976478D01*
X31914869Y-35765000D01*
X31679670Y-35765000D01*
X31115493Y-35998690D01*
X30949183Y-36165000D01*
X28301783Y-36165000D01*
X28190000Y-36142765D01*
X27908845Y-36198690D01*
X27747145Y-36230854D01*
X27371711Y-36481711D01*
X27308389Y-36576479D01*
X24309869Y-39575000D01*
X24228818Y-39575000D01*
X23781073Y-39664062D01*
X23273327Y-40003327D01*
X22934062Y-40511073D01*
X22860827Y-40879249D01*
X20417424Y-38435846D01*
X20368049Y-38361951D01*
X20365257Y-38360085D01*
X20458653Y-38220309D01*
X20510001Y-37962164D01*
X20510001Y-37962160D01*
X20527338Y-37874999D01*
X20510001Y-37787838D01*
X20510001Y-36741577D01*
X23826579Y-33425000D01*
X35509522Y-33425000D01*
X35551843Y-33637765D01*
X35692191Y-33847809D01*
X35902235Y-33988157D01*
X36150000Y-34037440D01*
X37850000Y-34037440D01*
X38097765Y-33988157D01*
X38307809Y-33847809D01*
X38448157Y-33637765D01*
X38492674Y-33413959D01*
X38695310Y-33373652D01*
X38988049Y-33178049D01*
X39037425Y-33104153D01*
X45616580Y-26524999D01*
X45975000Y-26524999D01*
X45975000Y-26654250D01*
X45975000Y-26654250D01*
G37*
X45975000Y-26654250D02*
X46133750Y-26813000D01*
X47333000Y-26813000D01*
X47333000Y-26793000D01*
X47587000Y-26793000D01*
X47587000Y-26813000D01*
X49873000Y-26813000D01*
X49873000Y-26793000D01*
X50127000Y-26793000D01*
X50127000Y-26813000D01*
X52413000Y-26813000D01*
X52413000Y-26793000D01*
X52667000Y-26793000D01*
X52667000Y-26813000D01*
X53860819Y-26813000D01*
X53981486Y-26583108D01*
X53954196Y-26524999D01*
X54383421Y-26524999D01*
X60962576Y-33104155D01*
X61011951Y-33178049D01*
X61085844Y-33227423D01*
X61085845Y-33227424D01*
X61236081Y-33327809D01*
X61304690Y-33373652D01*
X61507326Y-33413959D01*
X61547315Y-33615000D01*
X59970133Y-33615000D01*
X55111613Y-28756482D01*
X55048289Y-28661711D01*
X54672855Y-28410854D01*
X54341783Y-28345000D01*
X54230000Y-28322765D01*
X54118217Y-28345000D01*
X53514281Y-28345000D01*
X53310214Y-28208647D01*
X53735183Y-27821358D01*
X53981486Y-27296892D01*
X53860819Y-27067000D01*
X52667000Y-27067000D01*
X52667000Y-27087000D01*
X52413000Y-27087000D01*
X52413000Y-27067000D01*
X50127000Y-27067000D01*
X50127000Y-27087000D01*
X49873000Y-27087000D01*
X49873000Y-27067000D01*
X47587000Y-27067000D01*
X47587000Y-27087000D01*
X47333000Y-27087000D01*
X47333000Y-27067000D01*
X46133750Y-27067000D01*
X45975000Y-27225750D01*
X45975000Y-27916309D01*
X46071673Y-28149698D01*
X46128949Y-28206975D01*
X46036723Y-28345000D01*
X45721783Y-28345000D01*
X45610000Y-28322765D01*
X45314839Y-28381476D01*
X45167145Y-28410854D01*
X44791711Y-28661711D01*
X44728389Y-28756479D01*
X38919870Y-34564999D01*
X33696783Y-34564999D01*
X33585000Y-34542764D01*
X33142146Y-34630853D01*
X32766712Y-34881710D01*
X32703390Y-34976478D01*
X31914869Y-35765000D01*
X31679670Y-35765000D01*
X31115493Y-35998690D01*
X30949183Y-36165000D01*
X28301783Y-36165000D01*
X28190000Y-36142765D01*
X27908845Y-36198690D01*
X27747145Y-36230854D01*
X27371711Y-36481711D01*
X27308389Y-36576479D01*
X24309869Y-39575000D01*
X24228818Y-39575000D01*
X23781073Y-39664062D01*
X23273327Y-40003327D01*
X22934062Y-40511073D01*
X22860827Y-40879249D01*
X20417424Y-38435846D01*
X20368049Y-38361951D01*
X20365257Y-38360085D01*
X20458653Y-38220309D01*
X20510001Y-37962164D01*
X20510001Y-37962160D01*
X20527338Y-37874999D01*
X20510001Y-37787838D01*
X20510001Y-36741577D01*
X23826579Y-33425000D01*
X35509522Y-33425000D01*
X35551843Y-33637765D01*
X35692191Y-33847809D01*
X35902235Y-33988157D01*
X36150000Y-34037440D01*
X37850000Y-34037440D01*
X38097765Y-33988157D01*
X38307809Y-33847809D01*
X38448157Y-33637765D01*
X38492674Y-33413959D01*
X38695310Y-33373652D01*
X38988049Y-33178049D01*
X39037425Y-33104153D01*
X45616580Y-26524999D01*
X45975000Y-26524999D01*
X45975000Y-26654250D01*
G04 #@! TD*
M02*
