G04 #@! TF.GenerationSoftware,KiCad,Pcbnew,(5.0.1)-3*
G04 #@! TF.CreationDate,2022-06-15T15:10:59+08:00*
G04 #@! TF.ProjectId,Omnibot V1,4F6D6E69626F742056312E6B69636164,rev?*
G04 #@! TF.SameCoordinates,Original*
G04 #@! TF.FileFunction,Legend,Bot*
G04 #@! TF.FilePolarity,Positive*
%FSLAX46Y46*%
G04 Gerber Fmt 4.6, Leading zero omitted, Abs format (unit mm)*
G04 Created by KiCad (PCBNEW (5.0.1)-3) date 15-Jun-22 3:10:59 PM*
%MOMM*%
%LPD*%
G01*
G04 APERTURE LIST*
%ADD10C,0.250000*%
%ADD11C,0.300000*%
G04 APERTURE END LIST*
D10*
X30803571Y-40233928D02*
X30803571Y-39900595D01*
X31327380Y-39900595D02*
X30327380Y-39900595D01*
X30327380Y-40376785D01*
X31279761Y-41138690D02*
X31327380Y-41043452D01*
X31327380Y-40852976D01*
X31279761Y-40757738D01*
X31184523Y-40710119D01*
X30803571Y-40710119D01*
X30708333Y-40757738D01*
X30660714Y-40852976D01*
X30660714Y-41043452D01*
X30708333Y-41138690D01*
X30803571Y-41186309D01*
X30898809Y-41186309D01*
X30994047Y-40710119D01*
X31327380Y-42043452D02*
X30803571Y-42043452D01*
X30708333Y-41995833D01*
X30660714Y-41900595D01*
X30660714Y-41710119D01*
X30708333Y-41614880D01*
X31279761Y-42043452D02*
X31327380Y-41948214D01*
X31327380Y-41710119D01*
X31279761Y-41614880D01*
X31184523Y-41567261D01*
X31089285Y-41567261D01*
X30994047Y-41614880D01*
X30946428Y-41710119D01*
X30946428Y-41948214D01*
X30898809Y-42043452D01*
X30660714Y-42376785D02*
X30660714Y-42757738D01*
X30327380Y-42519642D02*
X31184523Y-42519642D01*
X31279761Y-42567261D01*
X31327380Y-42662500D01*
X31327380Y-42757738D01*
X30660714Y-43519642D02*
X31327380Y-43519642D01*
X30660714Y-43091071D02*
X31184523Y-43091071D01*
X31279761Y-43138690D01*
X31327380Y-43233928D01*
X31327380Y-43376785D01*
X31279761Y-43472023D01*
X31232142Y-43519642D01*
X31327380Y-43995833D02*
X30660714Y-43995833D01*
X30851190Y-43995833D02*
X30755952Y-44043452D01*
X30708333Y-44091071D01*
X30660714Y-44186309D01*
X30660714Y-44281547D01*
X31279761Y-44995833D02*
X31327380Y-44900595D01*
X31327380Y-44710119D01*
X31279761Y-44614880D01*
X31184523Y-44567261D01*
X30803571Y-44567261D01*
X30708333Y-44614880D01*
X30660714Y-44710119D01*
X30660714Y-44900595D01*
X30708333Y-44995833D01*
X30803571Y-45043452D01*
X30898809Y-45043452D01*
X30994047Y-44567261D01*
X31279761Y-45424404D02*
X31327380Y-45519642D01*
X31327380Y-45710119D01*
X31279761Y-45805357D01*
X31184523Y-45852976D01*
X31136904Y-45852976D01*
X31041666Y-45805357D01*
X30994047Y-45710119D01*
X30994047Y-45567261D01*
X30946428Y-45472023D01*
X30851190Y-45424404D01*
X30803571Y-45424404D01*
X30708333Y-45472023D01*
X30660714Y-45567261D01*
X30660714Y-45710119D01*
X30708333Y-45805357D01*
X31232142Y-46281547D02*
X31279761Y-46329166D01*
X31327380Y-46281547D01*
X31279761Y-46233928D01*
X31232142Y-46281547D01*
X31327380Y-46281547D01*
X30708333Y-46281547D02*
X30755952Y-46329166D01*
X30803571Y-46281547D01*
X30755952Y-46233928D01*
X30708333Y-46281547D01*
X30803571Y-46281547D01*
X32410714Y-40329166D02*
X33077380Y-40329166D01*
X32029761Y-40091071D02*
X32744047Y-39852976D01*
X32744047Y-40472023D01*
X33077380Y-40757738D02*
X32410714Y-41281547D01*
X32410714Y-40757738D02*
X33077380Y-41281547D01*
X33077380Y-42424404D02*
X32077380Y-42424404D01*
X32077380Y-42662500D01*
X32125000Y-42805357D01*
X32220238Y-42900595D01*
X32315476Y-42948214D01*
X32505952Y-42995833D01*
X32648809Y-42995833D01*
X32839285Y-42948214D01*
X32934523Y-42900595D01*
X33029761Y-42805357D01*
X33077380Y-42662500D01*
X33077380Y-42424404D01*
X32982142Y-43995833D02*
X33029761Y-43948214D01*
X33077380Y-43805357D01*
X33077380Y-43710119D01*
X33029761Y-43567261D01*
X32934523Y-43472023D01*
X32839285Y-43424404D01*
X32648809Y-43376785D01*
X32505952Y-43376785D01*
X32315476Y-43424404D01*
X32220238Y-43472023D01*
X32125000Y-43567261D01*
X32077380Y-43710119D01*
X32077380Y-43805357D01*
X32125000Y-43948214D01*
X32172619Y-43995833D01*
X33077380Y-45186309D02*
X32410714Y-45186309D01*
X32505952Y-45186309D02*
X32458333Y-45233928D01*
X32410714Y-45329166D01*
X32410714Y-45472023D01*
X32458333Y-45567261D01*
X32553571Y-45614880D01*
X33077380Y-45614880D01*
X32553571Y-45614880D02*
X32458333Y-45662500D01*
X32410714Y-45757738D01*
X32410714Y-45900595D01*
X32458333Y-45995833D01*
X32553571Y-46043452D01*
X33077380Y-46043452D01*
X33077380Y-46662500D02*
X33029761Y-46567261D01*
X32982142Y-46519642D01*
X32886904Y-46472023D01*
X32601190Y-46472023D01*
X32505952Y-46519642D01*
X32458333Y-46567261D01*
X32410714Y-46662500D01*
X32410714Y-46805357D01*
X32458333Y-46900595D01*
X32505952Y-46948214D01*
X32601190Y-46995833D01*
X32886904Y-46995833D01*
X32982142Y-46948214D01*
X33029761Y-46900595D01*
X33077380Y-46805357D01*
X33077380Y-46662500D01*
X32410714Y-47281547D02*
X32410714Y-47662500D01*
X32077380Y-47424404D02*
X32934523Y-47424404D01*
X33029761Y-47472023D01*
X33077380Y-47567261D01*
X33077380Y-47662500D01*
X33077380Y-48138690D02*
X33029761Y-48043452D01*
X32982142Y-47995833D01*
X32886904Y-47948214D01*
X32601190Y-47948214D01*
X32505952Y-47995833D01*
X32458333Y-48043452D01*
X32410714Y-48138690D01*
X32410714Y-48281547D01*
X32458333Y-48376785D01*
X32505952Y-48424404D01*
X32601190Y-48472023D01*
X32886904Y-48472023D01*
X32982142Y-48424404D01*
X33029761Y-48376785D01*
X33077380Y-48281547D01*
X33077380Y-48138690D01*
X33077380Y-48900595D02*
X32410714Y-48900595D01*
X32601190Y-48900595D02*
X32505952Y-48948214D01*
X32458333Y-48995833D01*
X32410714Y-49091071D01*
X32410714Y-49186309D01*
X33077380Y-50710119D02*
X32077380Y-50710119D01*
X33029761Y-50710119D02*
X33077380Y-50614880D01*
X33077380Y-50424404D01*
X33029761Y-50329166D01*
X32982142Y-50281547D01*
X32886904Y-50233928D01*
X32601190Y-50233928D01*
X32505952Y-50281547D01*
X32458333Y-50329166D01*
X32410714Y-50424404D01*
X32410714Y-50614880D01*
X32458333Y-50710119D01*
X33077380Y-51186309D02*
X32410714Y-51186309D01*
X32601190Y-51186309D02*
X32505952Y-51233928D01*
X32458333Y-51281547D01*
X32410714Y-51376785D01*
X32410714Y-51472023D01*
X33077380Y-51805357D02*
X32410714Y-51805357D01*
X32077380Y-51805357D02*
X32125000Y-51757738D01*
X32172619Y-51805357D01*
X32125000Y-51852976D01*
X32077380Y-51805357D01*
X32172619Y-51805357D01*
X32410714Y-52186309D02*
X33077380Y-52424404D01*
X32410714Y-52662500D01*
X33029761Y-53424404D02*
X33077380Y-53329166D01*
X33077380Y-53138690D01*
X33029761Y-53043452D01*
X32934523Y-52995833D01*
X32553571Y-52995833D01*
X32458333Y-53043452D01*
X32410714Y-53138690D01*
X32410714Y-53329166D01*
X32458333Y-53424404D01*
X32553571Y-53472023D01*
X32648809Y-53472023D01*
X32744047Y-52995833D01*
X33077380Y-53900595D02*
X32410714Y-53900595D01*
X32601190Y-53900595D02*
X32505952Y-53948214D01*
X32458333Y-53995833D01*
X32410714Y-54091071D01*
X32410714Y-54186309D01*
X34160714Y-40329166D02*
X34827380Y-40329166D01*
X33779761Y-40091071D02*
X34494047Y-39852976D01*
X34494047Y-40472023D01*
X34827380Y-40757738D02*
X34160714Y-41281547D01*
X34160714Y-40757738D02*
X34827380Y-41281547D01*
X34303571Y-42424404D02*
X34303571Y-42757738D01*
X34827380Y-42900595D02*
X34827380Y-42424404D01*
X33827380Y-42424404D01*
X33827380Y-42900595D01*
X34160714Y-43329166D02*
X34827380Y-43329166D01*
X34255952Y-43329166D02*
X34208333Y-43376785D01*
X34160714Y-43472023D01*
X34160714Y-43614880D01*
X34208333Y-43710119D01*
X34303571Y-43757738D01*
X34827380Y-43757738D01*
X34779761Y-44662500D02*
X34827380Y-44567261D01*
X34827380Y-44376785D01*
X34779761Y-44281547D01*
X34732142Y-44233928D01*
X34636904Y-44186309D01*
X34351190Y-44186309D01*
X34255952Y-44233928D01*
X34208333Y-44281547D01*
X34160714Y-44376785D01*
X34160714Y-44567261D01*
X34208333Y-44662500D01*
X34827380Y-45233928D02*
X34779761Y-45138690D01*
X34732142Y-45091071D01*
X34636904Y-45043452D01*
X34351190Y-45043452D01*
X34255952Y-45091071D01*
X34208333Y-45138690D01*
X34160714Y-45233928D01*
X34160714Y-45376785D01*
X34208333Y-45472023D01*
X34255952Y-45519642D01*
X34351190Y-45567261D01*
X34636904Y-45567261D01*
X34732142Y-45519642D01*
X34779761Y-45472023D01*
X34827380Y-45376785D01*
X34827380Y-45233928D01*
X34827380Y-46424404D02*
X33827380Y-46424404D01*
X34779761Y-46424404D02*
X34827380Y-46329166D01*
X34827380Y-46138690D01*
X34779761Y-46043452D01*
X34732142Y-45995833D01*
X34636904Y-45948214D01*
X34351190Y-45948214D01*
X34255952Y-45995833D01*
X34208333Y-46043452D01*
X34160714Y-46138690D01*
X34160714Y-46329166D01*
X34208333Y-46424404D01*
X34779761Y-47281547D02*
X34827380Y-47186309D01*
X34827380Y-46995833D01*
X34779761Y-46900595D01*
X34684523Y-46852976D01*
X34303571Y-46852976D01*
X34208333Y-46900595D01*
X34160714Y-46995833D01*
X34160714Y-47186309D01*
X34208333Y-47281547D01*
X34303571Y-47329166D01*
X34398809Y-47329166D01*
X34494047Y-46852976D01*
X34827380Y-47757738D02*
X34160714Y-47757738D01*
X34351190Y-47757738D02*
X34255952Y-47805357D01*
X34208333Y-47852976D01*
X34160714Y-47948214D01*
X34160714Y-48043452D01*
X34827380Y-49138690D02*
X34160714Y-49138690D01*
X33827380Y-49138690D02*
X33875000Y-49091071D01*
X33922619Y-49138690D01*
X33875000Y-49186309D01*
X33827380Y-49138690D01*
X33922619Y-49138690D01*
X34160714Y-49614880D02*
X34827380Y-49614880D01*
X34255952Y-49614880D02*
X34208333Y-49662500D01*
X34160714Y-49757738D01*
X34160714Y-49900595D01*
X34208333Y-49995833D01*
X34303571Y-50043452D01*
X34827380Y-50043452D01*
X34160714Y-50519642D02*
X35160714Y-50519642D01*
X34208333Y-50519642D02*
X34160714Y-50614880D01*
X34160714Y-50805357D01*
X34208333Y-50900595D01*
X34255952Y-50948214D01*
X34351190Y-50995833D01*
X34636904Y-50995833D01*
X34732142Y-50948214D01*
X34779761Y-50900595D01*
X34827380Y-50805357D01*
X34827380Y-50614880D01*
X34779761Y-50519642D01*
X34160714Y-51852976D02*
X34827380Y-51852976D01*
X34160714Y-51424404D02*
X34684523Y-51424404D01*
X34779761Y-51472023D01*
X34827380Y-51567261D01*
X34827380Y-51710119D01*
X34779761Y-51805357D01*
X34732142Y-51852976D01*
X34160714Y-52186309D02*
X34160714Y-52567261D01*
X33827380Y-52329166D02*
X34684523Y-52329166D01*
X34779761Y-52376785D01*
X34827380Y-52472023D01*
X34827380Y-52567261D01*
X35577380Y-40329166D02*
X35577380Y-40138690D01*
X35625000Y-40043452D01*
X35672619Y-39995833D01*
X35815476Y-39900595D01*
X36005952Y-39852976D01*
X36386904Y-39852976D01*
X36482142Y-39900595D01*
X36529761Y-39948214D01*
X36577380Y-40043452D01*
X36577380Y-40233928D01*
X36529761Y-40329166D01*
X36482142Y-40376785D01*
X36386904Y-40424404D01*
X36148809Y-40424404D01*
X36053571Y-40376785D01*
X36005952Y-40329166D01*
X35958333Y-40233928D01*
X35958333Y-40043452D01*
X36005952Y-39948214D01*
X36053571Y-39900595D01*
X36148809Y-39852976D01*
X36577380Y-40757738D02*
X35910714Y-41281547D01*
X35910714Y-40757738D02*
X36577380Y-41281547D01*
X36053571Y-42424404D02*
X36053571Y-42757738D01*
X36577380Y-42900595D02*
X36577380Y-42424404D01*
X35577380Y-42424404D01*
X35577380Y-42900595D01*
X36577380Y-43233928D02*
X35910714Y-43757738D01*
X35910714Y-43233928D02*
X36577380Y-43757738D01*
X35910714Y-43995833D02*
X35910714Y-44376785D01*
X35577380Y-44138690D02*
X36434523Y-44138690D01*
X36529761Y-44186309D01*
X36577380Y-44281547D01*
X36577380Y-44376785D01*
X36529761Y-45091071D02*
X36577380Y-44995833D01*
X36577380Y-44805357D01*
X36529761Y-44710119D01*
X36434523Y-44662500D01*
X36053571Y-44662500D01*
X35958333Y-44710119D01*
X35910714Y-44805357D01*
X35910714Y-44995833D01*
X35958333Y-45091071D01*
X36053571Y-45138690D01*
X36148809Y-45138690D01*
X36244047Y-44662500D01*
X36577380Y-45567261D02*
X35910714Y-45567261D01*
X36101190Y-45567261D02*
X36005952Y-45614880D01*
X35958333Y-45662500D01*
X35910714Y-45757738D01*
X35910714Y-45852976D01*
X35910714Y-46186309D02*
X36577380Y-46186309D01*
X36005952Y-46186309D02*
X35958333Y-46233928D01*
X35910714Y-46329166D01*
X35910714Y-46472023D01*
X35958333Y-46567261D01*
X36053571Y-46614880D01*
X36577380Y-46614880D01*
X36577380Y-47519642D02*
X36053571Y-47519642D01*
X35958333Y-47472023D01*
X35910714Y-47376785D01*
X35910714Y-47186309D01*
X35958333Y-47091071D01*
X36529761Y-47519642D02*
X36577380Y-47424404D01*
X36577380Y-47186309D01*
X36529761Y-47091071D01*
X36434523Y-47043452D01*
X36339285Y-47043452D01*
X36244047Y-47091071D01*
X36196428Y-47186309D01*
X36196428Y-47424404D01*
X36148809Y-47519642D01*
X36577380Y-48138690D02*
X36529761Y-48043452D01*
X36434523Y-47995833D01*
X35577380Y-47995833D01*
X35910714Y-49281547D02*
X36910714Y-49281547D01*
X35958333Y-49281547D02*
X35910714Y-49376785D01*
X35910714Y-49567261D01*
X35958333Y-49662500D01*
X36005952Y-49710119D01*
X36101190Y-49757738D01*
X36386904Y-49757738D01*
X36482142Y-49710119D01*
X36529761Y-49662500D01*
X36577380Y-49567261D01*
X36577380Y-49376785D01*
X36529761Y-49281547D01*
X35910714Y-50614880D02*
X36577380Y-50614880D01*
X35910714Y-50186309D02*
X36434523Y-50186309D01*
X36529761Y-50233928D01*
X36577380Y-50329166D01*
X36577380Y-50472023D01*
X36529761Y-50567261D01*
X36482142Y-50614880D01*
X36577380Y-51091071D02*
X35910714Y-51091071D01*
X36101190Y-51091071D02*
X36005952Y-51138690D01*
X35958333Y-51186309D01*
X35910714Y-51281547D01*
X35910714Y-51376785D01*
X35910714Y-51710119D02*
X36910714Y-51710119D01*
X35958333Y-51710119D02*
X35910714Y-51805357D01*
X35910714Y-51995833D01*
X35958333Y-52091071D01*
X36005952Y-52138690D01*
X36101190Y-52186309D01*
X36386904Y-52186309D01*
X36482142Y-52138690D01*
X36529761Y-52091071D01*
X36577380Y-51995833D01*
X36577380Y-51805357D01*
X36529761Y-51710119D01*
X36577380Y-52757738D02*
X36529761Y-52662500D01*
X36482142Y-52614880D01*
X36386904Y-52567261D01*
X36101190Y-52567261D01*
X36005952Y-52614880D01*
X35958333Y-52662500D01*
X35910714Y-52757738D01*
X35910714Y-52900595D01*
X35958333Y-52995833D01*
X36005952Y-53043452D01*
X36101190Y-53091071D01*
X36386904Y-53091071D01*
X36482142Y-53043452D01*
X36529761Y-52995833D01*
X36577380Y-52900595D01*
X36577380Y-52757738D01*
X36529761Y-53472023D02*
X36577380Y-53567261D01*
X36577380Y-53757738D01*
X36529761Y-53852976D01*
X36434523Y-53900595D01*
X36386904Y-53900595D01*
X36291666Y-53852976D01*
X36244047Y-53757738D01*
X36244047Y-53614880D01*
X36196428Y-53519642D01*
X36101190Y-53472023D01*
X36053571Y-53472023D01*
X35958333Y-53519642D01*
X35910714Y-53614880D01*
X35910714Y-53757738D01*
X35958333Y-53852976D01*
X36529761Y-54710119D02*
X36577380Y-54614880D01*
X36577380Y-54424404D01*
X36529761Y-54329166D01*
X36434523Y-54281547D01*
X36053571Y-54281547D01*
X35958333Y-54329166D01*
X35910714Y-54424404D01*
X35910714Y-54614880D01*
X35958333Y-54710119D01*
X36053571Y-54757738D01*
X36148809Y-54757738D01*
X36244047Y-54281547D01*
X35910714Y-55948214D02*
X36910714Y-55948214D01*
X35958333Y-55948214D02*
X35910714Y-56043452D01*
X35910714Y-56233928D01*
X35958333Y-56329166D01*
X36005952Y-56376785D01*
X36101190Y-56424404D01*
X36386904Y-56424404D01*
X36482142Y-56376785D01*
X36529761Y-56329166D01*
X36577380Y-56233928D01*
X36577380Y-56043452D01*
X36529761Y-55948214D01*
X36577380Y-56852976D02*
X35910714Y-56852976D01*
X35577380Y-56852976D02*
X35625000Y-56805357D01*
X35672619Y-56852976D01*
X35625000Y-56900595D01*
X35577380Y-56852976D01*
X35672619Y-56852976D01*
X35910714Y-57329166D02*
X36577380Y-57329166D01*
X36005952Y-57329166D02*
X35958333Y-57376785D01*
X35910714Y-57472023D01*
X35910714Y-57614880D01*
X35958333Y-57710119D01*
X36053571Y-57757738D01*
X36577380Y-57757738D01*
X36529761Y-58186309D02*
X36577380Y-58281547D01*
X36577380Y-58472023D01*
X36529761Y-58567261D01*
X36434523Y-58614880D01*
X36386904Y-58614880D01*
X36291666Y-58567261D01*
X36244047Y-58472023D01*
X36244047Y-58329166D01*
X36196428Y-58233928D01*
X36101190Y-58186309D01*
X36053571Y-58186309D01*
X35958333Y-58233928D01*
X35910714Y-58329166D01*
X35910714Y-58472023D01*
X35958333Y-58567261D01*
D11*
X67903571Y-44107142D02*
X67903571Y-44392857D01*
X67975000Y-44535714D01*
X68117857Y-44678571D01*
X68403571Y-44750000D01*
X68903571Y-44750000D01*
X69189285Y-44678571D01*
X69332142Y-44535714D01*
X69403571Y-44392857D01*
X69403571Y-44107142D01*
X69332142Y-43964285D01*
X69189285Y-43821428D01*
X68903571Y-43750000D01*
X68403571Y-43750000D01*
X68117857Y-43821428D01*
X67975000Y-43964285D01*
X67903571Y-44107142D01*
X69403571Y-45392857D02*
X68403571Y-45392857D01*
X68546428Y-45392857D02*
X68475000Y-45464285D01*
X68403571Y-45607142D01*
X68403571Y-45821428D01*
X68475000Y-45964285D01*
X68617857Y-46035714D01*
X69403571Y-46035714D01*
X68617857Y-46035714D02*
X68475000Y-46107142D01*
X68403571Y-46250000D01*
X68403571Y-46464285D01*
X68475000Y-46607142D01*
X68617857Y-46678571D01*
X69403571Y-46678571D01*
X68403571Y-47392857D02*
X69403571Y-47392857D01*
X68546428Y-47392857D02*
X68475000Y-47464285D01*
X68403571Y-47607142D01*
X68403571Y-47821428D01*
X68475000Y-47964285D01*
X68617857Y-48035714D01*
X69403571Y-48035714D01*
X69403571Y-48750000D02*
X68403571Y-48750000D01*
X67903571Y-48750000D02*
X67975000Y-48678571D01*
X68046428Y-48750000D01*
X67975000Y-48821428D01*
X67903571Y-48750000D01*
X68046428Y-48750000D01*
X69403571Y-49464285D02*
X67903571Y-49464285D01*
X68475000Y-49464285D02*
X68403571Y-49607142D01*
X68403571Y-49892857D01*
X68475000Y-50035714D01*
X68546428Y-50107142D01*
X68689285Y-50178571D01*
X69117857Y-50178571D01*
X69260714Y-50107142D01*
X69332142Y-50035714D01*
X69403571Y-49892857D01*
X69403571Y-49607142D01*
X69332142Y-49464285D01*
X69403571Y-51035714D02*
X69332142Y-50892857D01*
X69260714Y-50821428D01*
X69117857Y-50750000D01*
X68689285Y-50750000D01*
X68546428Y-50821428D01*
X68475000Y-50892857D01*
X68403571Y-51035714D01*
X68403571Y-51250000D01*
X68475000Y-51392857D01*
X68546428Y-51464285D01*
X68689285Y-51535714D01*
X69117857Y-51535714D01*
X69260714Y-51464285D01*
X69332142Y-51392857D01*
X69403571Y-51250000D01*
X69403571Y-51035714D01*
X68403571Y-51964285D02*
X68403571Y-52535714D01*
X67903571Y-52178571D02*
X69189285Y-52178571D01*
X69332142Y-52250000D01*
X69403571Y-52392857D01*
X69403571Y-52535714D01*
X67903571Y-53964285D02*
X69403571Y-54464285D01*
X67903571Y-54964285D01*
X69403571Y-56250000D02*
X69403571Y-55392857D01*
X69403571Y-55821428D02*
X67903571Y-55821428D01*
X68117857Y-55678571D01*
X68260714Y-55535714D01*
X68332142Y-55392857D01*
X71953571Y-42250000D02*
X70453571Y-42250000D01*
X71025000Y-42250000D02*
X70953571Y-42392857D01*
X70953571Y-42678571D01*
X71025000Y-42821428D01*
X71096428Y-42892857D01*
X71239285Y-42964285D01*
X71667857Y-42964285D01*
X71810714Y-42892857D01*
X71882142Y-42821428D01*
X71953571Y-42678571D01*
X71953571Y-42392857D01*
X71882142Y-42250000D01*
X70953571Y-43464285D02*
X71953571Y-43821428D01*
X70953571Y-44178571D02*
X71953571Y-43821428D01*
X72310714Y-43678571D01*
X72382142Y-43607142D01*
X72453571Y-43464285D01*
X71810714Y-44750000D02*
X71882142Y-44821428D01*
X71953571Y-44750000D01*
X71882142Y-44678571D01*
X71810714Y-44750000D01*
X71953571Y-44750000D01*
X71025000Y-44750000D02*
X71096428Y-44821428D01*
X71167857Y-44750000D01*
X71096428Y-44678571D01*
X71025000Y-44750000D01*
X71167857Y-44750000D01*
X71525000Y-46535714D02*
X71525000Y-47250000D01*
X71953571Y-46392857D02*
X70453571Y-46892857D01*
X71953571Y-47392857D01*
X70953571Y-47892857D02*
X71953571Y-47892857D01*
X71096428Y-47892857D02*
X71025000Y-47964285D01*
X70953571Y-48107142D01*
X70953571Y-48321428D01*
X71025000Y-48464285D01*
X71167857Y-48535714D01*
X71953571Y-48535714D01*
X71953571Y-49892857D02*
X70453571Y-49892857D01*
X71882142Y-49892857D02*
X71953571Y-49750000D01*
X71953571Y-49464285D01*
X71882142Y-49321428D01*
X71810714Y-49250000D01*
X71667857Y-49178571D01*
X71239285Y-49178571D01*
X71096428Y-49250000D01*
X71025000Y-49321428D01*
X70953571Y-49464285D01*
X70953571Y-49750000D01*
X71025000Y-49892857D01*
X71953571Y-50607142D02*
X70953571Y-50607142D01*
X71239285Y-50607142D02*
X71096428Y-50678571D01*
X71025000Y-50750000D01*
X70953571Y-50892857D01*
X70953571Y-51035714D01*
X71882142Y-52107142D02*
X71953571Y-51964285D01*
X71953571Y-51678571D01*
X71882142Y-51535714D01*
X71739285Y-51464285D01*
X71167857Y-51464285D01*
X71025000Y-51535714D01*
X70953571Y-51678571D01*
X70953571Y-51964285D01*
X71025000Y-52107142D01*
X71167857Y-52178571D01*
X71310714Y-52178571D01*
X71453571Y-51464285D01*
X70953571Y-52678571D02*
X71953571Y-52964285D01*
X71239285Y-53250000D01*
X71953571Y-53535714D01*
X70953571Y-53821428D01*
X70453571Y-54821428D02*
X71525000Y-54821428D01*
X71739285Y-54750000D01*
X71882142Y-54607142D01*
X71953571Y-54392857D01*
X71953571Y-54250000D01*
X71953571Y-55535714D02*
X70453571Y-55535714D01*
X71953571Y-56392857D01*
X70453571Y-56392857D01*
X70953571Y-57750000D02*
X72167857Y-57750000D01*
X72310714Y-57678571D01*
X72382142Y-57607142D01*
X72453571Y-57464285D01*
X72453571Y-57250000D01*
X72382142Y-57107142D01*
X71882142Y-57750000D02*
X71953571Y-57607142D01*
X71953571Y-57321428D01*
X71882142Y-57178571D01*
X71810714Y-57107142D01*
X71667857Y-57035714D01*
X71239285Y-57035714D01*
X71096428Y-57107142D01*
X71025000Y-57178571D01*
X70953571Y-57321428D01*
X70953571Y-57607142D01*
X71025000Y-57750000D01*
M02*
