M48
;DRILL file {KiCad (5.0.1)-3} date 15-Jun-22 3:11:01 PM
;FORMAT={-:-/ absolute / metric / decimal}
FMAT,2
METRIC,TZ
T1C0.400
T2C0.800
T3C1.000
T4C1.520
%
G90
G05
M71
T1
X53.6Y-40.4
X68.25Y-46.
X68.482Y-54.
X70.Y-65.5
T2
X18.5Y-37.
X18.5Y-39.
X18.5Y-41.
X18.5Y-43.
X18.5Y-57.
X18.5Y-59.
X18.5Y-61.
X18.5Y-63.
T3
X47.46Y-67.98
X50.Y-67.98
X52.54Y-67.98
X70.75Y-30.
X73.29Y-30.
X31.985Y-37.3
X31.985Y-62.7
X34.525Y-37.3
X34.525Y-62.7
X37.065Y-37.3
X37.065Y-62.7
X39.605Y-37.3
X39.605Y-62.7
X42.145Y-37.3
X42.145Y-62.7
X44.685Y-37.3
X44.685Y-62.7
X47.225Y-37.3
X47.225Y-62.7
X49.765Y-37.3
X49.765Y-62.7
X52.305Y-37.3
X52.305Y-62.7
X54.845Y-37.3
X54.845Y-62.7
X57.385Y-37.3
X57.385Y-62.7
X59.925Y-37.3
X59.925Y-62.7
X62.465Y-37.3
X62.465Y-62.7
X65.005Y-37.3
X65.005Y-62.7
X67.545Y-37.3
X67.545Y-62.7
X47.46Y-70.52
X50.Y-70.52
X52.54Y-70.52
X47.46Y-73.06
X50.Y-73.06
X52.54Y-73.06
X47.46Y-32.02
X50.Y-32.02
X52.54Y-32.02
X59.88Y-41.11
X59.88Y-43.65
X59.88Y-46.19
X59.88Y-48.73
X59.88Y-51.27
X59.88Y-53.81
X59.88Y-56.35
X59.88Y-58.89
X75.12Y-41.11
X75.12Y-43.65
X75.12Y-46.19
X75.12Y-48.73
X75.12Y-51.27
X75.12Y-53.81
X75.12Y-56.35
X75.12Y-58.89
X63.Y-27.46
X63.Y-30.
X63.Y-32.54
X56.467Y-41.118
X56.467Y-43.658
X56.467Y-46.198
X56.467Y-48.738
X56.467Y-51.278
X56.467Y-53.818
X56.467Y-56.358
X56.467Y-58.898
X47.46Y-29.48
X50.Y-29.48
X52.54Y-29.48
X70.75Y-70.
X73.29Y-70.
X37.Y-27.46
X37.Y-30.
X37.Y-32.54
X26.75Y-30.
X29.29Y-30.
X63.Y-67.46
X63.Y-70.
X63.Y-72.54
X26.75Y-70.
X29.29Y-70.
X37.Y-67.46
X37.Y-70.
X37.Y-72.54
X24.38Y-41.11
X24.38Y-43.65
X24.38Y-46.19
X24.38Y-48.73
X24.38Y-51.27
X24.38Y-53.81
X24.38Y-56.35
X24.38Y-58.89
X39.62Y-41.11
X39.62Y-43.65
X39.62Y-46.19
X39.62Y-48.73
X39.62Y-51.27
X39.62Y-53.81
X39.62Y-56.35
X39.62Y-58.89
X81.Y-36.75
X81.Y-39.29
X47.46Y-26.94
X50.Y-26.94
X52.54Y-26.94
T4
X82.Y-47.46
X82.Y-52.54
T0
M30
