M48
;DRILL file {KiCad (5.0.1)-3} date 14-Jun-22 8:04:17 PM
;FORMAT={-:-/ absolute / metric / decimal}
FMAT,2
METRIC,TZ
T1C0.400
T2C0.800
T3C1.000
%
G90
G05
M71
T1
X53.6Y-40.4
X68.25Y-46.
X68.482Y-54.
T2
X19.Y-37.
X19.Y-39.
X19.Y-41.
X19.Y-43.
X19.Y-57.
X19.Y-59.
X19.Y-61.
X19.Y-63.
T3
X56.467Y-41.118
X56.467Y-43.658
X56.467Y-46.198
X56.467Y-48.738
X56.467Y-51.278
X56.467Y-53.818
X56.467Y-56.358
X56.467Y-58.898
X47.46Y-29.48
X50.Y-29.48
X52.54Y-29.48
X70.75Y-70.
X73.29Y-70.
X63.Y-27.46
X63.Y-30.
X63.Y-32.54
X47.46Y-26.94
X50.Y-26.94
X52.54Y-26.94
X81.Y-48.75
X81.Y-51.29
X63.Y-67.46
X63.Y-70.
X63.Y-72.54
X26.75Y-30.
X29.29Y-30.
X24.38Y-41.11
X24.38Y-43.65
X24.38Y-46.19
X24.38Y-48.73
X24.38Y-51.27
X24.38Y-53.81
X24.38Y-56.35
X24.38Y-58.89
X39.62Y-41.11
X39.62Y-43.65
X39.62Y-46.19
X39.62Y-48.73
X39.62Y-51.27
X39.62Y-53.81
X39.62Y-56.35
X39.62Y-58.89
X60.38Y-41.11
X60.38Y-43.65
X60.38Y-46.19
X60.38Y-48.73
X60.38Y-51.27
X60.38Y-53.81
X60.38Y-56.35
X60.38Y-58.89
X75.62Y-41.11
X75.62Y-43.65
X75.62Y-46.19
X75.62Y-48.73
X75.62Y-51.27
X75.62Y-53.81
X75.62Y-56.35
X75.62Y-58.89
X34.485Y-37.3
X34.485Y-62.7
X37.025Y-37.3
X37.025Y-62.7
X39.565Y-37.3
X39.565Y-62.7
X42.105Y-37.3
X42.105Y-62.7
X44.645Y-37.3
X44.645Y-62.7
X47.185Y-37.3
X47.185Y-62.7
X49.725Y-37.3
X49.725Y-62.7
X52.265Y-37.3
X52.265Y-62.7
X54.805Y-37.3
X54.805Y-62.7
X57.345Y-37.3
X57.345Y-62.7
X59.885Y-37.3
X59.885Y-62.7
X62.425Y-37.3
X62.425Y-62.7
X64.965Y-37.3
X64.965Y-62.7
X67.505Y-37.3
X67.505Y-62.7
X70.045Y-37.3
X70.045Y-62.7
X70.75Y-30.
X73.29Y-30.
X37.Y-67.46
X37.Y-70.
X37.Y-72.54
X47.46Y-67.98
X50.Y-67.98
X52.54Y-67.98
X47.46Y-32.02
X50.Y-32.02
X52.54Y-32.02
X37.Y-27.46
X37.Y-30.
X37.Y-32.54
X47.46Y-70.52
X50.Y-70.52
X52.54Y-70.52
X26.75Y-70.
X29.29Y-70.
X47.46Y-73.06
X50.Y-73.06
X52.54Y-73.06
T0
M30
