G04 #@! TF.GenerationSoftware,KiCad,Pcbnew,(5.0.1)-3*
G04 #@! TF.CreationDate,2022-06-14T20:04:15+08:00*
G04 #@! TF.ProjectId,Omnibot V1,4F6D6E69626F742056312E6B69636164,rev?*
G04 #@! TF.SameCoordinates,Original*
G04 #@! TF.FileFunction,Legend,Top*
G04 #@! TF.FilePolarity,Positive*
%FSLAX46Y46*%
G04 Gerber Fmt 4.6, Leading zero omitted, Abs format (unit mm)*
G04 Created by KiCad (PCBNEW (5.0.1)-3) date 14-Jun-22 8:04:15 PM*
%MOMM*%
%LPD*%
G01*
G04 APERTURE LIST*
%ADD10C,0.300000*%
%ADD11C,0.250000*%
%ADD12C,0.200000*%
%ADD13C,0.127000*%
%ADD14C,0.120000*%
%ADD15C,0.150000*%
G04 APERTURE END LIST*
D10*
X25285714Y-37142857D02*
X25785714Y-37142857D01*
X26000000Y-37928571D02*
X25285714Y-37928571D01*
X25285714Y-36428571D01*
X26000000Y-36428571D01*
X26571428Y-37857142D02*
X26785714Y-37928571D01*
X27142857Y-37928571D01*
X27285714Y-37857142D01*
X27357142Y-37785714D01*
X27428571Y-37642857D01*
X27428571Y-37500000D01*
X27357142Y-37357142D01*
X27285714Y-37285714D01*
X27142857Y-37214285D01*
X26857142Y-37142857D01*
X26714285Y-37071428D01*
X26642857Y-37000000D01*
X26571428Y-36857142D01*
X26571428Y-36714285D01*
X26642857Y-36571428D01*
X26714285Y-36500000D01*
X26857142Y-36428571D01*
X27214285Y-36428571D01*
X27428571Y-36500000D01*
X28071428Y-37928571D02*
X28071428Y-36428571D01*
X28642857Y-36428571D01*
X28785714Y-36500000D01*
X28857142Y-36571428D01*
X28928571Y-36714285D01*
X28928571Y-36928571D01*
X28857142Y-37071428D01*
X28785714Y-37142857D01*
X28642857Y-37214285D01*
X28071428Y-37214285D01*
X29428571Y-36428571D02*
X30357142Y-36428571D01*
X29857142Y-37000000D01*
X30071428Y-37000000D01*
X30214285Y-37071428D01*
X30285714Y-37142857D01*
X30357142Y-37285714D01*
X30357142Y-37642857D01*
X30285714Y-37785714D01*
X30214285Y-37857142D01*
X30071428Y-37928571D01*
X29642857Y-37928571D01*
X29500000Y-37857142D01*
X29428571Y-37785714D01*
X30928571Y-36571428D02*
X31000000Y-36500000D01*
X31142857Y-36428571D01*
X31500000Y-36428571D01*
X31642857Y-36500000D01*
X31714285Y-36571428D01*
X31785714Y-36714285D01*
X31785714Y-36857142D01*
X31714285Y-37071428D01*
X30857142Y-37928571D01*
X31785714Y-37928571D01*
D11*
X72238095Y-58500000D02*
X72142857Y-58452380D01*
X72000000Y-58452380D01*
X71857142Y-58500000D01*
X71761904Y-58595238D01*
X71714285Y-58690476D01*
X71666666Y-58880952D01*
X71666666Y-59023809D01*
X71714285Y-59214285D01*
X71761904Y-59309523D01*
X71857142Y-59404761D01*
X72000000Y-59452380D01*
X72095238Y-59452380D01*
X72238095Y-59404761D01*
X72285714Y-59357142D01*
X72285714Y-59023809D01*
X72095238Y-59023809D01*
X72714285Y-59452380D02*
X72714285Y-58452380D01*
X73285714Y-59452380D01*
X73285714Y-58452380D01*
X73761904Y-59452380D02*
X73761904Y-58452380D01*
X74000000Y-58452380D01*
X74142857Y-58500000D01*
X74238095Y-58595238D01*
X74285714Y-58690476D01*
X74333333Y-58880952D01*
X74333333Y-59023809D01*
X74285714Y-59214285D01*
X74238095Y-59309523D01*
X74142857Y-59404761D01*
X74000000Y-59452380D01*
X73761904Y-59452380D01*
X73238095Y-55702380D02*
X72761904Y-55702380D01*
X72714285Y-56178571D01*
X72761904Y-56130952D01*
X72857142Y-56083333D01*
X73095238Y-56083333D01*
X73190476Y-56130952D01*
X73238095Y-56178571D01*
X73285714Y-56273809D01*
X73285714Y-56511904D01*
X73238095Y-56607142D01*
X73190476Y-56654761D01*
X73095238Y-56702380D01*
X72857142Y-56702380D01*
X72761904Y-56654761D01*
X72714285Y-56607142D01*
X72809523Y-54202380D02*
X72238095Y-54202380D01*
X72523809Y-54202380D02*
X72523809Y-53202380D01*
X72428571Y-53345238D01*
X72333333Y-53440476D01*
X72238095Y-53488095D01*
X73142857Y-53202380D02*
X73809523Y-53202380D01*
X73380952Y-54202380D01*
X72809523Y-51702380D02*
X72238095Y-51702380D01*
X72523809Y-51702380D02*
X72523809Y-50702380D01*
X72428571Y-50845238D01*
X72333333Y-50940476D01*
X72238095Y-50988095D01*
X73666666Y-50702380D02*
X73476190Y-50702380D01*
X73380952Y-50750000D01*
X73333333Y-50797619D01*
X73238095Y-50940476D01*
X73190476Y-51130952D01*
X73190476Y-51511904D01*
X73238095Y-51607142D01*
X73285714Y-51654761D01*
X73380952Y-51702380D01*
X73571428Y-51702380D01*
X73666666Y-51654761D01*
X73714285Y-51607142D01*
X73761904Y-51511904D01*
X73761904Y-51273809D01*
X73714285Y-51178571D01*
X73666666Y-51130952D01*
X73571428Y-51083333D01*
X73380952Y-51083333D01*
X73285714Y-51130952D01*
X73238095Y-51178571D01*
X73190476Y-51273809D01*
X72011904Y-48202380D02*
X72630952Y-48202380D01*
X72297619Y-48583333D01*
X72440476Y-48583333D01*
X72535714Y-48630952D01*
X72583333Y-48678571D01*
X72630952Y-48773809D01*
X72630952Y-49011904D01*
X72583333Y-49107142D01*
X72535714Y-49154761D01*
X72440476Y-49202380D01*
X72154761Y-49202380D01*
X72059523Y-49154761D01*
X72011904Y-49107142D01*
X72916666Y-48202380D02*
X73250000Y-49202380D01*
X73583333Y-48202380D01*
X73821428Y-48202380D02*
X74440476Y-48202380D01*
X74107142Y-48583333D01*
X74250000Y-48583333D01*
X74345238Y-48630952D01*
X74392857Y-48678571D01*
X74440476Y-48773809D01*
X74440476Y-49011904D01*
X74392857Y-49107142D01*
X74345238Y-49154761D01*
X74250000Y-49202380D01*
X73964285Y-49202380D01*
X73869047Y-49154761D01*
X73821428Y-49107142D01*
X73190476Y-46035714D02*
X73190476Y-46702380D01*
X72952380Y-45654761D02*
X72714285Y-46369047D01*
X73333333Y-46369047D01*
X72964285Y-43297619D02*
X73011904Y-43250000D01*
X73107142Y-43202380D01*
X73345238Y-43202380D01*
X73440476Y-43250000D01*
X73488095Y-43297619D01*
X73535714Y-43392857D01*
X73535714Y-43488095D01*
X73488095Y-43630952D01*
X72916666Y-44202380D01*
X73535714Y-44202380D01*
X72809523Y-41452380D02*
X72238095Y-41452380D01*
X72523809Y-41452380D02*
X72523809Y-40452380D01*
X72428571Y-40595238D01*
X72333333Y-40690476D01*
X72238095Y-40738095D01*
X73714285Y-40452380D02*
X73238095Y-40452380D01*
X73190476Y-40928571D01*
X73238095Y-40880952D01*
X73333333Y-40833333D01*
X73571428Y-40833333D01*
X73666666Y-40880952D01*
X73714285Y-40928571D01*
X73761904Y-41023809D01*
X73761904Y-41261904D01*
X73714285Y-41357142D01*
X73666666Y-41404761D01*
X73571428Y-41452380D01*
X73333333Y-41452380D01*
X73238095Y-41404761D01*
X73190476Y-41357142D01*
X15547619Y-36571428D02*
X16547619Y-36571428D01*
X16452380Y-37000000D02*
X16500000Y-37047619D01*
X16547619Y-37142857D01*
X16547619Y-37380952D01*
X16500000Y-37476190D01*
X16452380Y-37523809D01*
X16357142Y-37571428D01*
X16261904Y-37571428D01*
X16119047Y-37523809D01*
X15547619Y-36952380D01*
X15547619Y-37571428D01*
X15642857Y-38571428D02*
X15595238Y-38523809D01*
X15547619Y-38380952D01*
X15547619Y-38285714D01*
X15595238Y-38142857D01*
X15690476Y-38047619D01*
X15785714Y-38000000D01*
X15976190Y-37952380D01*
X16119047Y-37952380D01*
X16309523Y-38000000D01*
X16404761Y-38047619D01*
X16500000Y-38142857D01*
X16547619Y-38285714D01*
X16547619Y-38380952D01*
X16500000Y-38523809D01*
X16452380Y-38571428D01*
X16500000Y-40285714D02*
X16547619Y-40190476D01*
X16547619Y-40047619D01*
X16500000Y-39904761D01*
X16404761Y-39809523D01*
X16309523Y-39761904D01*
X16119047Y-39714285D01*
X15976190Y-39714285D01*
X15785714Y-39761904D01*
X15690476Y-39809523D01*
X15595238Y-39904761D01*
X15547619Y-40047619D01*
X15547619Y-40142857D01*
X15595238Y-40285714D01*
X15642857Y-40333333D01*
X15976190Y-40333333D01*
X15976190Y-40142857D01*
X15547619Y-40761904D02*
X16214285Y-40761904D01*
X16023809Y-40761904D02*
X16119047Y-40809523D01*
X16166666Y-40857142D01*
X16214285Y-40952380D01*
X16214285Y-41047619D01*
X15547619Y-41523809D02*
X15595238Y-41428571D01*
X15642857Y-41380952D01*
X15738095Y-41333333D01*
X16023809Y-41333333D01*
X16119047Y-41380952D01*
X16166666Y-41428571D01*
X16214285Y-41523809D01*
X16214285Y-41666666D01*
X16166666Y-41761904D01*
X16119047Y-41809523D01*
X16023809Y-41857142D01*
X15738095Y-41857142D01*
X15642857Y-41809523D01*
X15595238Y-41761904D01*
X15547619Y-41666666D01*
X15547619Y-41523809D01*
X16214285Y-42190476D02*
X15547619Y-42428571D01*
X16214285Y-42666666D01*
X15595238Y-43428571D02*
X15547619Y-43333333D01*
X15547619Y-43142857D01*
X15595238Y-43047619D01*
X15690476Y-43000000D01*
X16071428Y-43000000D01*
X16166666Y-43047619D01*
X16214285Y-43142857D01*
X16214285Y-43333333D01*
X16166666Y-43428571D01*
X16071428Y-43476190D01*
X15976190Y-43476190D01*
X15880952Y-43000000D01*
X15547619Y-56571428D02*
X16547619Y-56571428D01*
X16452380Y-57000000D02*
X16500000Y-57047619D01*
X16547619Y-57142857D01*
X16547619Y-57380952D01*
X16500000Y-57476190D01*
X16452380Y-57523809D01*
X16357142Y-57571428D01*
X16261904Y-57571428D01*
X16119047Y-57523809D01*
X15547619Y-56952380D01*
X15547619Y-57571428D01*
X15642857Y-58571428D02*
X15595238Y-58523809D01*
X15547619Y-58380952D01*
X15547619Y-58285714D01*
X15595238Y-58142857D01*
X15690476Y-58047619D01*
X15785714Y-58000000D01*
X15976190Y-57952380D01*
X16119047Y-57952380D01*
X16309523Y-58000000D01*
X16404761Y-58047619D01*
X16500000Y-58142857D01*
X16547619Y-58285714D01*
X16547619Y-58380952D01*
X16500000Y-58523809D01*
X16452380Y-58571428D01*
X16500000Y-60285714D02*
X16547619Y-60190476D01*
X16547619Y-60047619D01*
X16500000Y-59904761D01*
X16404761Y-59809523D01*
X16309523Y-59761904D01*
X16119047Y-59714285D01*
X15976190Y-59714285D01*
X15785714Y-59761904D01*
X15690476Y-59809523D01*
X15595238Y-59904761D01*
X15547619Y-60047619D01*
X15547619Y-60142857D01*
X15595238Y-60285714D01*
X15642857Y-60333333D01*
X15976190Y-60333333D01*
X15976190Y-60142857D01*
X15547619Y-60761904D02*
X16214285Y-60761904D01*
X16023809Y-60761904D02*
X16119047Y-60809523D01*
X16166666Y-60857142D01*
X16214285Y-60952380D01*
X16214285Y-61047619D01*
X15547619Y-61523809D02*
X15595238Y-61428571D01*
X15642857Y-61380952D01*
X15738095Y-61333333D01*
X16023809Y-61333333D01*
X16119047Y-61380952D01*
X16166666Y-61428571D01*
X16214285Y-61523809D01*
X16214285Y-61666666D01*
X16166666Y-61761904D01*
X16119047Y-61809523D01*
X16023809Y-61857142D01*
X15738095Y-61857142D01*
X15642857Y-61809523D01*
X15595238Y-61761904D01*
X15547619Y-61666666D01*
X15547619Y-61523809D01*
X16214285Y-62190476D02*
X15547619Y-62428571D01*
X16214285Y-62666666D01*
X15595238Y-63428571D02*
X15547619Y-63333333D01*
X15547619Y-63142857D01*
X15595238Y-63047619D01*
X15690476Y-63000000D01*
X16071428Y-63000000D01*
X16166666Y-63047619D01*
X16214285Y-63142857D01*
X16214285Y-63333333D01*
X16166666Y-63428571D01*
X16071428Y-63476190D01*
X15976190Y-63476190D01*
X15880952Y-63000000D01*
X67309523Y-30547619D02*
X66690476Y-30547619D01*
X67023809Y-30166666D01*
X66880952Y-30166666D01*
X66785714Y-30119047D01*
X66738095Y-30071428D01*
X66690476Y-29976190D01*
X66690476Y-29738095D01*
X66738095Y-29642857D01*
X66785714Y-29595238D01*
X66880952Y-29547619D01*
X67166666Y-29547619D01*
X67261904Y-29595238D01*
X67309523Y-29642857D01*
X66214285Y-29547619D02*
X66023809Y-29547619D01*
X65928571Y-29595238D01*
X65880952Y-29642857D01*
X65785714Y-29785714D01*
X65738095Y-29976190D01*
X65738095Y-30357142D01*
X65785714Y-30452380D01*
X65833333Y-30500000D01*
X65928571Y-30547619D01*
X66119047Y-30547619D01*
X66214285Y-30500000D01*
X66261904Y-30452380D01*
X66309523Y-30357142D01*
X66309523Y-30119047D01*
X66261904Y-30023809D01*
X66214285Y-29976190D01*
X66119047Y-29928571D01*
X65928571Y-29928571D01*
X65833333Y-29976190D01*
X65785714Y-30023809D01*
X65738095Y-30119047D01*
X67738095Y-33047619D02*
X67119047Y-33047619D01*
X67452380Y-32666666D01*
X67309523Y-32666666D01*
X67214285Y-32619047D01*
X67166666Y-32571428D01*
X67119047Y-32476190D01*
X67119047Y-32238095D01*
X67166666Y-32142857D01*
X67214285Y-32095238D01*
X67309523Y-32047619D01*
X67595238Y-32047619D01*
X67690476Y-32095238D01*
X67738095Y-32142857D01*
X66833333Y-33047619D02*
X66500000Y-32047619D01*
X66166666Y-33047619D01*
X65928571Y-33047619D02*
X65309523Y-33047619D01*
X65642857Y-32666666D01*
X65500000Y-32666666D01*
X65404761Y-32619047D01*
X65357142Y-32571428D01*
X65309523Y-32476190D01*
X65309523Y-32238095D01*
X65357142Y-32142857D01*
X65404761Y-32095238D01*
X65500000Y-32047619D01*
X65785714Y-32047619D01*
X65880952Y-32095238D01*
X65928571Y-32142857D01*
X67261904Y-28000000D02*
X67357142Y-28047619D01*
X67500000Y-28047619D01*
X67642857Y-28000000D01*
X67738095Y-27904761D01*
X67785714Y-27809523D01*
X67833333Y-27619047D01*
X67833333Y-27476190D01*
X67785714Y-27285714D01*
X67738095Y-27190476D01*
X67642857Y-27095238D01*
X67500000Y-27047619D01*
X67404761Y-27047619D01*
X67261904Y-27095238D01*
X67214285Y-27142857D01*
X67214285Y-27476190D01*
X67404761Y-27476190D01*
X66785714Y-27047619D02*
X66785714Y-28047619D01*
X66214285Y-27047619D01*
X66214285Y-28047619D01*
X65738095Y-27047619D02*
X65738095Y-28047619D01*
X65500000Y-28047619D01*
X65357142Y-28000000D01*
X65261904Y-27904761D01*
X65214285Y-27809523D01*
X65166666Y-27619047D01*
X65166666Y-27476190D01*
X65214285Y-27285714D01*
X65261904Y-27190476D01*
X65357142Y-27095238D01*
X65500000Y-27047619D01*
X65738095Y-27047619D01*
X34738095Y-33047619D02*
X34119047Y-33047619D01*
X34452380Y-32666666D01*
X34309523Y-32666666D01*
X34214285Y-32619047D01*
X34166666Y-32571428D01*
X34119047Y-32476190D01*
X34119047Y-32238095D01*
X34166666Y-32142857D01*
X34214285Y-32095238D01*
X34309523Y-32047619D01*
X34595238Y-32047619D01*
X34690476Y-32095238D01*
X34738095Y-32142857D01*
X33833333Y-33047619D02*
X33500000Y-32047619D01*
X33166666Y-33047619D01*
X32928571Y-33047619D02*
X32309523Y-33047619D01*
X32642857Y-32666666D01*
X32500000Y-32666666D01*
X32404761Y-32619047D01*
X32357142Y-32571428D01*
X32309523Y-32476190D01*
X32309523Y-32238095D01*
X32357142Y-32142857D01*
X32404761Y-32095238D01*
X32500000Y-32047619D01*
X32785714Y-32047619D01*
X32880952Y-32095238D01*
X32928571Y-32142857D01*
X34261904Y-28000000D02*
X34357142Y-28047619D01*
X34500000Y-28047619D01*
X34642857Y-28000000D01*
X34738095Y-27904761D01*
X34785714Y-27809523D01*
X34833333Y-27619047D01*
X34833333Y-27476190D01*
X34785714Y-27285714D01*
X34738095Y-27190476D01*
X34642857Y-27095238D01*
X34500000Y-27047619D01*
X34404761Y-27047619D01*
X34261904Y-27095238D01*
X34214285Y-27142857D01*
X34214285Y-27476190D01*
X34404761Y-27476190D01*
X33785714Y-27047619D02*
X33785714Y-28047619D01*
X33214285Y-27047619D01*
X33214285Y-28047619D01*
X32738095Y-27047619D02*
X32738095Y-28047619D01*
X32500000Y-28047619D01*
X32357142Y-28000000D01*
X32261904Y-27904761D01*
X32214285Y-27809523D01*
X32166666Y-27619047D01*
X32166666Y-27476190D01*
X32214285Y-27285714D01*
X32261904Y-27190476D01*
X32357142Y-27095238D01*
X32500000Y-27047619D01*
X32738095Y-27047619D01*
X34309523Y-30547619D02*
X33690476Y-30547619D01*
X34023809Y-30166666D01*
X33880952Y-30166666D01*
X33785714Y-30119047D01*
X33738095Y-30071428D01*
X33690476Y-29976190D01*
X33690476Y-29738095D01*
X33738095Y-29642857D01*
X33785714Y-29595238D01*
X33880952Y-29547619D01*
X34166666Y-29547619D01*
X34261904Y-29595238D01*
X34309523Y-29642857D01*
X32833333Y-30214285D02*
X32833333Y-29547619D01*
X33071428Y-30595238D02*
X33309523Y-29880952D01*
X32690476Y-29880952D01*
X65261904Y-66952380D02*
X65880952Y-66952380D01*
X65547619Y-67333333D01*
X65690476Y-67333333D01*
X65785714Y-67380952D01*
X65833333Y-67428571D01*
X65880952Y-67523809D01*
X65880952Y-67761904D01*
X65833333Y-67857142D01*
X65785714Y-67904761D01*
X65690476Y-67952380D01*
X65404761Y-67952380D01*
X65309523Y-67904761D01*
X65261904Y-67857142D01*
X66166666Y-66952380D02*
X66500000Y-67952380D01*
X66833333Y-66952380D01*
X67071428Y-66952380D02*
X67690476Y-66952380D01*
X67357142Y-67333333D01*
X67500000Y-67333333D01*
X67595238Y-67380952D01*
X67642857Y-67428571D01*
X67690476Y-67523809D01*
X67690476Y-67761904D01*
X67642857Y-67857142D01*
X67595238Y-67904761D01*
X67500000Y-67952380D01*
X67214285Y-67952380D01*
X67119047Y-67904761D01*
X67071428Y-67857142D01*
X65738095Y-72000000D02*
X65642857Y-71952380D01*
X65500000Y-71952380D01*
X65357142Y-72000000D01*
X65261904Y-72095238D01*
X65214285Y-72190476D01*
X65166666Y-72380952D01*
X65166666Y-72523809D01*
X65214285Y-72714285D01*
X65261904Y-72809523D01*
X65357142Y-72904761D01*
X65500000Y-72952380D01*
X65595238Y-72952380D01*
X65738095Y-72904761D01*
X65785714Y-72857142D01*
X65785714Y-72523809D01*
X65595238Y-72523809D01*
X66214285Y-72952380D02*
X66214285Y-71952380D01*
X66785714Y-72952380D01*
X66785714Y-71952380D01*
X67261904Y-72952380D02*
X67261904Y-71952380D01*
X67500000Y-71952380D01*
X67642857Y-72000000D01*
X67738095Y-72095238D01*
X67785714Y-72190476D01*
X67833333Y-72380952D01*
X67833333Y-72523809D01*
X67785714Y-72714285D01*
X67738095Y-72809523D01*
X67642857Y-72904761D01*
X67500000Y-72952380D01*
X67261904Y-72952380D01*
X65690476Y-69452380D02*
X66309523Y-69452380D01*
X65976190Y-69833333D01*
X66119047Y-69833333D01*
X66214285Y-69880952D01*
X66261904Y-69928571D01*
X66309523Y-70023809D01*
X66309523Y-70261904D01*
X66261904Y-70357142D01*
X66214285Y-70404761D01*
X66119047Y-70452380D01*
X65833333Y-70452380D01*
X65738095Y-70404761D01*
X65690476Y-70357142D01*
X67166666Y-69452380D02*
X66976190Y-69452380D01*
X66880952Y-69500000D01*
X66833333Y-69547619D01*
X66738095Y-69690476D01*
X66690476Y-69880952D01*
X66690476Y-70261904D01*
X66738095Y-70357142D01*
X66785714Y-70404761D01*
X66880952Y-70452380D01*
X67071428Y-70452380D01*
X67166666Y-70404761D01*
X67214285Y-70357142D01*
X67261904Y-70261904D01*
X67261904Y-70023809D01*
X67214285Y-69928571D01*
X67166666Y-69880952D01*
X67071428Y-69833333D01*
X66880952Y-69833333D01*
X66785714Y-69880952D01*
X66738095Y-69928571D01*
X66690476Y-70023809D01*
X32690476Y-69452380D02*
X33309523Y-69452380D01*
X32976190Y-69833333D01*
X33119047Y-69833333D01*
X33214285Y-69880952D01*
X33261904Y-69928571D01*
X33309523Y-70023809D01*
X33309523Y-70261904D01*
X33261904Y-70357142D01*
X33214285Y-70404761D01*
X33119047Y-70452380D01*
X32833333Y-70452380D01*
X32738095Y-70404761D01*
X32690476Y-70357142D01*
X34214285Y-69452380D02*
X33738095Y-69452380D01*
X33690476Y-69928571D01*
X33738095Y-69880952D01*
X33833333Y-69833333D01*
X34071428Y-69833333D01*
X34166666Y-69880952D01*
X34214285Y-69928571D01*
X34261904Y-70023809D01*
X34261904Y-70261904D01*
X34214285Y-70357142D01*
X34166666Y-70404761D01*
X34071428Y-70452380D01*
X33833333Y-70452380D01*
X33738095Y-70404761D01*
X33690476Y-70357142D01*
X32738095Y-72000000D02*
X32642857Y-71952380D01*
X32500000Y-71952380D01*
X32357142Y-72000000D01*
X32261904Y-72095238D01*
X32214285Y-72190476D01*
X32166666Y-72380952D01*
X32166666Y-72523809D01*
X32214285Y-72714285D01*
X32261904Y-72809523D01*
X32357142Y-72904761D01*
X32500000Y-72952380D01*
X32595238Y-72952380D01*
X32738095Y-72904761D01*
X32785714Y-72857142D01*
X32785714Y-72523809D01*
X32595238Y-72523809D01*
X33214285Y-72952380D02*
X33214285Y-71952380D01*
X33785714Y-72952380D01*
X33785714Y-71952380D01*
X34261904Y-72952380D02*
X34261904Y-71952380D01*
X34500000Y-71952380D01*
X34642857Y-72000000D01*
X34738095Y-72095238D01*
X34785714Y-72190476D01*
X34833333Y-72380952D01*
X34833333Y-72523809D01*
X34785714Y-72714285D01*
X34738095Y-72809523D01*
X34642857Y-72904761D01*
X34500000Y-72952380D01*
X34261904Y-72952380D01*
X32261904Y-66952380D02*
X32880952Y-66952380D01*
X32547619Y-67333333D01*
X32690476Y-67333333D01*
X32785714Y-67380952D01*
X32833333Y-67428571D01*
X32880952Y-67523809D01*
X32880952Y-67761904D01*
X32833333Y-67857142D01*
X32785714Y-67904761D01*
X32690476Y-67952380D01*
X32404761Y-67952380D01*
X32309523Y-67904761D01*
X32261904Y-67857142D01*
X33166666Y-66952380D02*
X33500000Y-67952380D01*
X33833333Y-66952380D01*
X34071428Y-66952380D02*
X34690476Y-66952380D01*
X34357142Y-67333333D01*
X34500000Y-67333333D01*
X34595238Y-67380952D01*
X34642857Y-67428571D01*
X34690476Y-67523809D01*
X34690476Y-67761904D01*
X34642857Y-67857142D01*
X34595238Y-67904761D01*
X34500000Y-67952380D01*
X34214285Y-67952380D01*
X34119047Y-67904761D01*
X34071428Y-67857142D01*
X46809523Y-65952380D02*
X46238095Y-65952380D01*
X46523809Y-65952380D02*
X46523809Y-64952380D01*
X46428571Y-65095238D01*
X46333333Y-65190476D01*
X46238095Y-65238095D01*
X47285714Y-65952380D02*
X47476190Y-65952380D01*
X47571428Y-65904761D01*
X47619047Y-65857142D01*
X47714285Y-65714285D01*
X47761904Y-65523809D01*
X47761904Y-65142857D01*
X47714285Y-65047619D01*
X47666666Y-65000000D01*
X47571428Y-64952380D01*
X47380952Y-64952380D01*
X47285714Y-65000000D01*
X47238095Y-65047619D01*
X47190476Y-65142857D01*
X47190476Y-65380952D01*
X47238095Y-65476190D01*
X47285714Y-65523809D01*
X47380952Y-65571428D01*
X47571428Y-65571428D01*
X47666666Y-65523809D01*
X47714285Y-65476190D01*
X47761904Y-65380952D01*
X49666666Y-64952380D02*
X50285714Y-64952380D01*
X49952380Y-65333333D01*
X50095238Y-65333333D01*
X50190476Y-65380952D01*
X50238095Y-65428571D01*
X50285714Y-65523809D01*
X50285714Y-65761904D01*
X50238095Y-65857142D01*
X50190476Y-65904761D01*
X50095238Y-65952380D01*
X49809523Y-65952380D01*
X49714285Y-65904761D01*
X49666666Y-65857142D01*
X53809523Y-35047619D02*
X53190476Y-35047619D01*
X53523809Y-34666666D01*
X53380952Y-34666666D01*
X53285714Y-34619047D01*
X53238095Y-34571428D01*
X53190476Y-34476190D01*
X53190476Y-34238095D01*
X53238095Y-34142857D01*
X53285714Y-34095238D01*
X53380952Y-34047619D01*
X53666666Y-34047619D01*
X53761904Y-34095238D01*
X53809523Y-34142857D01*
X52809523Y-34952380D02*
X52761904Y-35000000D01*
X52666666Y-35047619D01*
X52428571Y-35047619D01*
X52333333Y-35000000D01*
X52285714Y-34952380D01*
X52238095Y-34857142D01*
X52238095Y-34761904D01*
X52285714Y-34619047D01*
X52857142Y-34047619D01*
X52238095Y-34047619D01*
X50809523Y-35047619D02*
X50190476Y-35047619D01*
X50523809Y-34666666D01*
X50380952Y-34666666D01*
X50285714Y-34619047D01*
X50238095Y-34571428D01*
X50190476Y-34476190D01*
X50190476Y-34238095D01*
X50238095Y-34142857D01*
X50285714Y-34095238D01*
X50380952Y-34047619D01*
X50666666Y-34047619D01*
X50761904Y-34095238D01*
X50809523Y-34142857D01*
X49857142Y-35047619D02*
X49238095Y-35047619D01*
X49571428Y-34666666D01*
X49428571Y-34666666D01*
X49333333Y-34619047D01*
X49285714Y-34571428D01*
X49238095Y-34476190D01*
X49238095Y-34238095D01*
X49285714Y-34142857D01*
X49333333Y-34095238D01*
X49428571Y-34047619D01*
X49714285Y-34047619D01*
X49809523Y-34095238D01*
X49857142Y-34142857D01*
X47190476Y-34047619D02*
X47761904Y-34047619D01*
X47476190Y-34047619D02*
X47476190Y-35047619D01*
X47571428Y-34904761D01*
X47666666Y-34809523D01*
X47761904Y-34761904D01*
X46619047Y-34619047D02*
X46714285Y-34666666D01*
X46761904Y-34714285D01*
X46809523Y-34809523D01*
X46809523Y-34857142D01*
X46761904Y-34952380D01*
X46714285Y-35000000D01*
X46619047Y-35047619D01*
X46428571Y-35047619D01*
X46333333Y-35000000D01*
X46285714Y-34952380D01*
X46238095Y-34857142D01*
X46238095Y-34809523D01*
X46285714Y-34714285D01*
X46333333Y-34666666D01*
X46428571Y-34619047D01*
X46619047Y-34619047D01*
X46714285Y-34571428D01*
X46761904Y-34523809D01*
X46809523Y-34428571D01*
X46809523Y-34238095D01*
X46761904Y-34142857D01*
X46714285Y-34095238D01*
X46619047Y-34047619D01*
X46428571Y-34047619D01*
X46333333Y-34095238D01*
X46285714Y-34142857D01*
X46238095Y-34238095D01*
X46238095Y-34428571D01*
X46285714Y-34523809D01*
X46333333Y-34571428D01*
X46428571Y-34619047D01*
X53285714Y-65952380D02*
X52714285Y-65952380D01*
X53000000Y-65952380D02*
X53000000Y-64952380D01*
X52904761Y-65095238D01*
X52809523Y-65190476D01*
X52714285Y-65238095D01*
X56238095Y-72500000D02*
X56142857Y-72452380D01*
X56000000Y-72452380D01*
X55857142Y-72500000D01*
X55761904Y-72595238D01*
X55714285Y-72690476D01*
X55666666Y-72880952D01*
X55666666Y-73023809D01*
X55714285Y-73214285D01*
X55761904Y-73309523D01*
X55857142Y-73404761D01*
X56000000Y-73452380D01*
X56095238Y-73452380D01*
X56238095Y-73404761D01*
X56285714Y-73357142D01*
X56285714Y-73023809D01*
X56095238Y-73023809D01*
X56714285Y-73452380D02*
X56714285Y-72452380D01*
X57285714Y-73452380D01*
X57285714Y-72452380D01*
X57761904Y-73452380D02*
X57761904Y-72452380D01*
X58000000Y-72452380D01*
X58142857Y-72500000D01*
X58238095Y-72595238D01*
X58285714Y-72690476D01*
X58333333Y-72880952D01*
X58333333Y-73023809D01*
X58285714Y-73214285D01*
X58238095Y-73309523D01*
X58142857Y-73404761D01*
X58000000Y-73452380D01*
X57761904Y-73452380D01*
X56711904Y-69952380D02*
X56521428Y-69952380D01*
X56426190Y-70000000D01*
X56378571Y-70047619D01*
X56283333Y-70190476D01*
X56235714Y-70380952D01*
X56235714Y-70761904D01*
X56283333Y-70857142D01*
X56330952Y-70904761D01*
X56426190Y-70952380D01*
X56616666Y-70952380D01*
X56711904Y-70904761D01*
X56759523Y-70857142D01*
X56807142Y-70761904D01*
X56807142Y-70523809D01*
X56759523Y-70428571D01*
X56711904Y-70380952D01*
X56616666Y-70333333D01*
X56426190Y-70333333D01*
X56330952Y-70380952D01*
X56283333Y-70428571D01*
X56235714Y-70523809D01*
X57092857Y-69952380D02*
X57426190Y-70952380D01*
X57759523Y-69952380D01*
X43761904Y-27500000D02*
X43857142Y-27547619D01*
X44000000Y-27547619D01*
X44142857Y-27500000D01*
X44238095Y-27404761D01*
X44285714Y-27309523D01*
X44333333Y-27119047D01*
X44333333Y-26976190D01*
X44285714Y-26785714D01*
X44238095Y-26690476D01*
X44142857Y-26595238D01*
X44000000Y-26547619D01*
X43904761Y-26547619D01*
X43761904Y-26595238D01*
X43714285Y-26642857D01*
X43714285Y-26976190D01*
X43904761Y-26976190D01*
X43285714Y-26547619D02*
X43285714Y-27547619D01*
X42714285Y-26547619D01*
X42714285Y-27547619D01*
X42238095Y-26547619D02*
X42238095Y-27547619D01*
X42000000Y-27547619D01*
X41857142Y-27500000D01*
X41761904Y-27404761D01*
X41714285Y-27309523D01*
X41666666Y-27119047D01*
X41666666Y-26976190D01*
X41714285Y-26785714D01*
X41761904Y-26690476D01*
X41857142Y-26595238D01*
X42000000Y-26547619D01*
X42238095Y-26547619D01*
X43288095Y-30047619D02*
X43478571Y-30047619D01*
X43573809Y-30000000D01*
X43621428Y-29952380D01*
X43716666Y-29809523D01*
X43764285Y-29619047D01*
X43764285Y-29238095D01*
X43716666Y-29142857D01*
X43669047Y-29095238D01*
X43573809Y-29047619D01*
X43383333Y-29047619D01*
X43288095Y-29095238D01*
X43240476Y-29142857D01*
X43192857Y-29238095D01*
X43192857Y-29476190D01*
X43240476Y-29571428D01*
X43288095Y-29619047D01*
X43383333Y-29666666D01*
X43573809Y-29666666D01*
X43669047Y-29619047D01*
X43716666Y-29571428D01*
X43764285Y-29476190D01*
X42907142Y-30047619D02*
X42573809Y-29047619D01*
X42240476Y-30047619D01*
D10*
X80178571Y-43357142D02*
X80178571Y-43642857D01*
X80250000Y-43785714D01*
X80321428Y-43857142D01*
X80535714Y-44000000D01*
X80821428Y-44071428D01*
X81392857Y-44071428D01*
X81535714Y-44000000D01*
X81607142Y-43928571D01*
X81678571Y-43785714D01*
X81678571Y-43500000D01*
X81607142Y-43357142D01*
X81535714Y-43285714D01*
X81392857Y-43214285D01*
X81035714Y-43214285D01*
X80892857Y-43285714D01*
X80821428Y-43357142D01*
X80750000Y-43500000D01*
X80750000Y-43785714D01*
X80821428Y-43928571D01*
X80892857Y-44000000D01*
X81035714Y-44071428D01*
X80178571Y-42785714D02*
X81678571Y-42285714D01*
X80178571Y-41785714D01*
D12*
G04 #@! TO.C,U3*
X26124000Y-49238000D02*
X24854000Y-50000000D01*
X26124000Y-50762000D02*
X26124000Y-49238000D01*
X24854000Y-50000000D02*
X26124000Y-50762000D01*
X27648000Y-50000000D02*
X24854000Y-50000000D01*
X24854000Y-50000000D02*
X27648000Y-50000000D01*
D13*
X75475000Y-41220000D02*
X75475000Y-35770000D01*
X75475000Y-58910000D02*
X75475000Y-41220000D01*
X75475000Y-64280000D02*
X75475000Y-58910000D01*
X24525000Y-35770000D02*
X75475000Y-35770000D01*
X75475000Y-64280000D02*
X24525000Y-64280000D01*
X24525000Y-46500000D02*
X24525000Y-35770000D01*
X24525000Y-53211000D02*
X24525000Y-46500000D01*
X24525000Y-64280000D02*
X24525000Y-53211000D01*
X28415000Y-53211000D02*
X24525000Y-53211000D01*
X28415000Y-46500000D02*
X28415000Y-53211000D01*
X24525000Y-46500000D02*
X28415000Y-46500000D01*
D12*
X34585000Y-64850000D02*
G75*
G03X34585000Y-64850000I-100000J0D01*
G01*
D13*
X75475000Y-64280000D02*
X24525000Y-64280000D01*
X24525000Y-64280000D02*
X24525000Y-35770000D01*
X75475000Y-35770000D02*
X75475000Y-64280000D01*
X24525000Y-35770000D02*
X75475000Y-35770000D01*
D14*
G04 #@! TO.C,J7*
X81000000Y-47420000D02*
X82330000Y-47420000D01*
X82330000Y-47420000D02*
X82330000Y-48750000D01*
X82330000Y-50020000D02*
X82330000Y-52620000D01*
X79670000Y-52620000D02*
X82330000Y-52620000D01*
X79670000Y-50020000D02*
X79670000Y-52620000D01*
X79670000Y-50020000D02*
X82330000Y-50020000D01*
G04 #@! TO.C,J3*
X38330000Y-31270000D02*
X35670000Y-31270000D01*
X38330000Y-31270000D02*
X38330000Y-26130000D01*
X38330000Y-26130000D02*
X35670000Y-26130000D01*
X35670000Y-31270000D02*
X35670000Y-26130000D01*
X35670000Y-33870000D02*
X35670000Y-32540000D01*
X37000000Y-33870000D02*
X35670000Y-33870000D01*
G04 #@! TO.C,J2*
X35670000Y-68730000D02*
X38330000Y-68730000D01*
X35670000Y-68730000D02*
X35670000Y-73870000D01*
X35670000Y-73870000D02*
X38330000Y-73870000D01*
X38330000Y-68730000D02*
X38330000Y-73870000D01*
X38330000Y-66130000D02*
X38330000Y-67460000D01*
X37000000Y-66130000D02*
X38330000Y-66130000D01*
G04 #@! TO.C,J4*
X61670000Y-68730000D02*
X64330000Y-68730000D01*
X61670000Y-68730000D02*
X61670000Y-73870000D01*
X61670000Y-73870000D02*
X64330000Y-73870000D01*
X64330000Y-68730000D02*
X64330000Y-73870000D01*
X64330000Y-66130000D02*
X64330000Y-67460000D01*
X63000000Y-66130000D02*
X64330000Y-66130000D01*
G04 #@! TO.C,J5*
X64330000Y-31270000D02*
X61670000Y-31270000D01*
X64330000Y-31270000D02*
X64330000Y-26130000D01*
X64330000Y-26130000D02*
X61670000Y-26130000D01*
X61670000Y-31270000D02*
X61670000Y-26130000D01*
X61670000Y-33870000D02*
X61670000Y-32540000D01*
X63000000Y-33870000D02*
X61670000Y-33870000D01*
G04 #@! TO.C,J12*
X46130000Y-73060000D02*
X46130000Y-71730000D01*
X46130000Y-71730000D02*
X47460000Y-71730000D01*
X48730000Y-71730000D02*
X53870000Y-71730000D01*
X53870000Y-74390000D02*
X53870000Y-71730000D01*
X48730000Y-74390000D02*
X53870000Y-74390000D01*
X48730000Y-74390000D02*
X48730000Y-71730000D01*
G04 #@! TO.C,J11*
X46130000Y-70520000D02*
X46130000Y-69190000D01*
X46130000Y-69190000D02*
X47460000Y-69190000D01*
X48730000Y-69190000D02*
X53870000Y-69190000D01*
X53870000Y-71850000D02*
X53870000Y-69190000D01*
X48730000Y-71850000D02*
X53870000Y-71850000D01*
X48730000Y-71850000D02*
X48730000Y-69190000D01*
G04 #@! TO.C,J10*
X46130000Y-67980000D02*
X46130000Y-66650000D01*
X46130000Y-66650000D02*
X47460000Y-66650000D01*
X48730000Y-66650000D02*
X53870000Y-66650000D01*
X53870000Y-69310000D02*
X53870000Y-66650000D01*
X48730000Y-69310000D02*
X53870000Y-69310000D01*
X48730000Y-69310000D02*
X48730000Y-66650000D01*
G04 #@! TO.C,J14*
X46130000Y-26940000D02*
X46130000Y-25610000D01*
X46130000Y-25610000D02*
X47460000Y-25610000D01*
X48730000Y-25610000D02*
X53870000Y-25610000D01*
X53870000Y-28270000D02*
X53870000Y-25610000D01*
X48730000Y-28270000D02*
X53870000Y-28270000D01*
X48730000Y-28270000D02*
X48730000Y-25610000D01*
G04 #@! TO.C,J13*
X46130000Y-29480000D02*
X46130000Y-28150000D01*
X46130000Y-28150000D02*
X47460000Y-28150000D01*
X48730000Y-28150000D02*
X53870000Y-28150000D01*
X53870000Y-30810000D02*
X53870000Y-28150000D01*
X48730000Y-30810000D02*
X53870000Y-30810000D01*
X48730000Y-30810000D02*
X48730000Y-28150000D01*
G04 #@! TO.C,J9*
X53870000Y-32020000D02*
X53870000Y-33350000D01*
X53870000Y-33350000D02*
X52540000Y-33350000D01*
X51270000Y-33350000D02*
X46130000Y-33350000D01*
X46130000Y-30690000D02*
X46130000Y-33350000D01*
X51270000Y-30690000D02*
X46130000Y-30690000D01*
X51270000Y-30690000D02*
X51270000Y-33350000D01*
G04 #@! TO.C,U4*
X57796600Y-39788400D02*
X55136600Y-39788400D01*
X57796600Y-57628400D02*
X57796600Y-39788400D01*
X55136600Y-57628400D02*
X55136600Y-39788400D01*
X57796600Y-57628400D02*
X55136600Y-57628400D01*
X57796600Y-58898400D02*
X57796600Y-60228400D01*
X57796600Y-60228400D02*
X56466600Y-60228400D01*
D12*
X57493000Y-59906000D02*
X42507000Y-59906000D01*
X42507000Y-59906000D02*
X42507000Y-40094000D01*
X57493000Y-59906000D02*
X57493000Y-40094000D01*
X57493000Y-40094000D02*
X42507000Y-40094000D01*
D15*
G04 #@! TO.C,U1*
X64190000Y-48349000D02*
X64190000Y-57620000D01*
X71810000Y-48349000D02*
X64190000Y-48349000D01*
X71810000Y-57620000D02*
X71810000Y-48349000D01*
X64190000Y-57620000D02*
X71810000Y-57620000D01*
X77144000Y-39586000D02*
X58856000Y-39586000D01*
X58856000Y-39586000D02*
X58856000Y-60414000D01*
X58856000Y-60414000D02*
X77144000Y-60414000D01*
X77144000Y-60414000D02*
X77144000Y-39586000D01*
G04 #@! TO.C,U2*
X41144000Y-60414000D02*
X41144000Y-39586000D01*
X22856000Y-60414000D02*
X41144000Y-60414000D01*
X22856000Y-39586000D02*
X22856000Y-60414000D01*
X41144000Y-39586000D02*
X22856000Y-39586000D01*
X28190000Y-57620000D02*
X35810000Y-57620000D01*
X35810000Y-57620000D02*
X35810000Y-48349000D01*
X35810000Y-48349000D02*
X28190000Y-48349000D01*
X28190000Y-48349000D02*
X28190000Y-57620000D01*
D14*
G04 #@! TO.C,J1*
X19000000Y-55940000D02*
X20060000Y-55940000D01*
X20060000Y-55940000D02*
X20060000Y-57000000D01*
X20060000Y-58000000D02*
X20060000Y-64060000D01*
X17940000Y-64060000D02*
X20060000Y-64060000D01*
X17940000Y-58000000D02*
X17940000Y-64060000D01*
X17940000Y-58000000D02*
X20060000Y-58000000D01*
G04 #@! TO.C,M1*
X25420000Y-30000000D02*
X25420000Y-28670000D01*
X25420000Y-28670000D02*
X26750000Y-28670000D01*
X28020000Y-28670000D02*
X30620000Y-28670000D01*
X30620000Y-31330000D02*
X30620000Y-28670000D01*
X28020000Y-31330000D02*
X30620000Y-31330000D01*
X28020000Y-31330000D02*
X28020000Y-28670000D01*
G04 #@! TO.C,M3*
X69420000Y-30000000D02*
X69420000Y-28670000D01*
X69420000Y-28670000D02*
X70750000Y-28670000D01*
X72020000Y-28670000D02*
X74620000Y-28670000D01*
X74620000Y-31330000D02*
X74620000Y-28670000D01*
X72020000Y-31330000D02*
X74620000Y-31330000D01*
X72020000Y-31330000D02*
X72020000Y-28670000D01*
G04 #@! TO.C,M2*
X28020000Y-71330000D02*
X28020000Y-68670000D01*
X28020000Y-71330000D02*
X30620000Y-71330000D01*
X30620000Y-71330000D02*
X30620000Y-68670000D01*
X28020000Y-68670000D02*
X30620000Y-68670000D01*
X25420000Y-68670000D02*
X26750000Y-68670000D01*
X25420000Y-70000000D02*
X25420000Y-68670000D01*
G04 #@! TO.C,M4*
X69420000Y-70000000D02*
X69420000Y-68670000D01*
X69420000Y-68670000D02*
X70750000Y-68670000D01*
X72020000Y-68670000D02*
X74620000Y-68670000D01*
X74620000Y-71330000D02*
X74620000Y-68670000D01*
X72020000Y-71330000D02*
X74620000Y-71330000D01*
X72020000Y-71330000D02*
X72020000Y-68670000D01*
G04 #@! TO.C,J8*
X19000000Y-35940000D02*
X20060000Y-35940000D01*
X20060000Y-35940000D02*
X20060000Y-37000000D01*
X20060000Y-38000000D02*
X20060000Y-44060000D01*
X17940000Y-44060000D02*
X20060000Y-44060000D01*
X17940000Y-38000000D02*
X17940000Y-44060000D01*
X17940000Y-38000000D02*
X20060000Y-38000000D01*
G04 #@! TO.C,U3*
D15*
X22092380Y-62116904D02*
X22901904Y-62116904D01*
X22997142Y-62069285D01*
X23044761Y-62021666D01*
X23092380Y-61926428D01*
X23092380Y-61735952D01*
X23044761Y-61640714D01*
X22997142Y-61593095D01*
X22901904Y-61545476D01*
X22092380Y-61545476D01*
X22092380Y-61164523D02*
X22092380Y-60545476D01*
X22473333Y-60878809D01*
X22473333Y-60735952D01*
X22520952Y-60640714D01*
X22568571Y-60593095D01*
X22663809Y-60545476D01*
X22901904Y-60545476D01*
X22997142Y-60593095D01*
X23044761Y-60640714D01*
X23092380Y-60735952D01*
X23092380Y-61021666D01*
X23044761Y-61116904D01*
X22997142Y-61164523D01*
X28878380Y-51261904D02*
X29687904Y-51261904D01*
X29783142Y-51214285D01*
X29830761Y-51166666D01*
X29878380Y-51071428D01*
X29878380Y-50880952D01*
X29830761Y-50785714D01*
X29783142Y-50738095D01*
X29687904Y-50690476D01*
X28878380Y-50690476D01*
X29830761Y-50261904D02*
X29878380Y-50119047D01*
X29878380Y-49880952D01*
X29830761Y-49785714D01*
X29783142Y-49738095D01*
X29687904Y-49690476D01*
X29592666Y-49690476D01*
X29497428Y-49738095D01*
X29449809Y-49785714D01*
X29402190Y-49880952D01*
X29354571Y-50071428D01*
X29306952Y-50166666D01*
X29259333Y-50214285D01*
X29164095Y-50261904D01*
X29068857Y-50261904D01*
X28973619Y-50214285D01*
X28926000Y-50166666D01*
X28878380Y-50071428D01*
X28878380Y-49833333D01*
X28926000Y-49690476D01*
X29354571Y-48928571D02*
X29402190Y-48785714D01*
X29449809Y-48738095D01*
X29545047Y-48690476D01*
X29687904Y-48690476D01*
X29783142Y-48738095D01*
X29830761Y-48785714D01*
X29878380Y-48880952D01*
X29878380Y-49261904D01*
X28878380Y-49261904D01*
X28878380Y-48928571D01*
X28926000Y-48833333D01*
X28973619Y-48785714D01*
X29068857Y-48738095D01*
X29164095Y-48738095D01*
X29259333Y-48785714D01*
X29306952Y-48833333D01*
X29354571Y-48928571D01*
X29354571Y-49261904D01*
G04 #@! TO.C,U4*
X46738095Y-50452380D02*
X46738095Y-49452380D01*
X47071428Y-50166666D01*
X47404761Y-49452380D01*
X47404761Y-50452380D01*
X47880952Y-50452380D02*
X47880952Y-49452380D01*
X48261904Y-49452380D01*
X48357142Y-49500000D01*
X48404761Y-49547619D01*
X48452380Y-49642857D01*
X48452380Y-49785714D01*
X48404761Y-49880952D01*
X48357142Y-49928571D01*
X48261904Y-49976190D01*
X47880952Y-49976190D01*
X48880952Y-49452380D02*
X48880952Y-50261904D01*
X48928571Y-50357142D01*
X48976190Y-50404761D01*
X49071428Y-50452380D01*
X49261904Y-50452380D01*
X49357142Y-50404761D01*
X49404761Y-50357142D01*
X49452380Y-50261904D01*
X49452380Y-49452380D01*
X50357142Y-49452380D02*
X50166666Y-49452380D01*
X50071428Y-49500000D01*
X50023809Y-49547619D01*
X49928571Y-49690476D01*
X49880952Y-49880952D01*
X49880952Y-50261904D01*
X49928571Y-50357142D01*
X49976190Y-50404761D01*
X50071428Y-50452380D01*
X50261904Y-50452380D01*
X50357142Y-50404761D01*
X50404761Y-50357142D01*
X50452380Y-50261904D01*
X50452380Y-50023809D01*
X50404761Y-49928571D01*
X50357142Y-49880952D01*
X50261904Y-49833333D01*
X50071428Y-49833333D01*
X49976190Y-49880952D01*
X49928571Y-49928571D01*
X49880952Y-50023809D01*
X51071428Y-49452380D02*
X51166666Y-49452380D01*
X51261904Y-49500000D01*
X51309523Y-49547619D01*
X51357142Y-49642857D01*
X51404761Y-49833333D01*
X51404761Y-50071428D01*
X51357142Y-50261904D01*
X51309523Y-50357142D01*
X51261904Y-50404761D01*
X51166666Y-50452380D01*
X51071428Y-50452380D01*
X50976190Y-50404761D01*
X50928571Y-50357142D01*
X50880952Y-50261904D01*
X50833333Y-50071428D01*
X50833333Y-49833333D01*
X50880952Y-49642857D01*
X50928571Y-49547619D01*
X50976190Y-49500000D01*
X51071428Y-49452380D01*
X52309523Y-49452380D02*
X51833333Y-49452380D01*
X51785714Y-49928571D01*
X51833333Y-49880952D01*
X51928571Y-49833333D01*
X52166666Y-49833333D01*
X52261904Y-49880952D01*
X52309523Y-49928571D01*
X52357142Y-50023809D01*
X52357142Y-50261904D01*
X52309523Y-50357142D01*
X52261904Y-50404761D01*
X52166666Y-50452380D01*
X51928571Y-50452380D01*
X51833333Y-50404761D01*
X51785714Y-50357142D01*
X52976190Y-49452380D02*
X53071428Y-49452380D01*
X53166666Y-49500000D01*
X53214285Y-49547619D01*
X53261904Y-49642857D01*
X53309523Y-49833333D01*
X53309523Y-50071428D01*
X53261904Y-50261904D01*
X53214285Y-50357142D01*
X53166666Y-50404761D01*
X53071428Y-50452380D01*
X52976190Y-50452380D01*
X52880952Y-50404761D01*
X52833333Y-50357142D01*
X52785714Y-50261904D01*
X52738095Y-50071428D01*
X52738095Y-49833333D01*
X52785714Y-49642857D01*
X52833333Y-49547619D01*
X52880952Y-49500000D01*
X52976190Y-49452380D01*
G04 #@! TO.C,U1*
X64107142Y-46952380D02*
X64678571Y-46952380D01*
X64392857Y-47952380D02*
X64392857Y-46952380D01*
X65345238Y-47428571D02*
X65488095Y-47476190D01*
X65535714Y-47523809D01*
X65583333Y-47619047D01*
X65583333Y-47761904D01*
X65535714Y-47857142D01*
X65488095Y-47904761D01*
X65392857Y-47952380D01*
X65011904Y-47952380D01*
X65011904Y-46952380D01*
X65345238Y-46952380D01*
X65440476Y-47000000D01*
X65488095Y-47047619D01*
X65535714Y-47142857D01*
X65535714Y-47238095D01*
X65488095Y-47333333D01*
X65440476Y-47380952D01*
X65345238Y-47428571D01*
X65011904Y-47428571D01*
X66440476Y-46952380D02*
X66250000Y-46952380D01*
X66154761Y-47000000D01*
X66107142Y-47047619D01*
X66011904Y-47190476D01*
X65964285Y-47380952D01*
X65964285Y-47761904D01*
X66011904Y-47857142D01*
X66059523Y-47904761D01*
X66154761Y-47952380D01*
X66345238Y-47952380D01*
X66440476Y-47904761D01*
X66488095Y-47857142D01*
X66535714Y-47761904D01*
X66535714Y-47523809D01*
X66488095Y-47428571D01*
X66440476Y-47380952D01*
X66345238Y-47333333D01*
X66154761Y-47333333D01*
X66059523Y-47380952D01*
X66011904Y-47428571D01*
X65964285Y-47523809D01*
X67392857Y-46952380D02*
X67202380Y-46952380D01*
X67107142Y-47000000D01*
X67059523Y-47047619D01*
X66964285Y-47190476D01*
X66916666Y-47380952D01*
X66916666Y-47761904D01*
X66964285Y-47857142D01*
X67011904Y-47904761D01*
X67107142Y-47952380D01*
X67297619Y-47952380D01*
X67392857Y-47904761D01*
X67440476Y-47857142D01*
X67488095Y-47761904D01*
X67488095Y-47523809D01*
X67440476Y-47428571D01*
X67392857Y-47380952D01*
X67297619Y-47333333D01*
X67107142Y-47333333D01*
X67011904Y-47380952D01*
X66964285Y-47428571D01*
X66916666Y-47523809D01*
X68440476Y-47952380D02*
X67869047Y-47952380D01*
X68154761Y-47952380D02*
X68154761Y-46952380D01*
X68059523Y-47095238D01*
X67964285Y-47190476D01*
X67869047Y-47238095D01*
X68821428Y-47047619D02*
X68869047Y-47000000D01*
X68964285Y-46952380D01*
X69202380Y-46952380D01*
X69297619Y-47000000D01*
X69345238Y-47047619D01*
X69392857Y-47142857D01*
X69392857Y-47238095D01*
X69345238Y-47380952D01*
X68773809Y-47952380D01*
X69392857Y-47952380D01*
X70154761Y-47428571D02*
X69821428Y-47428571D01*
X69821428Y-47952380D02*
X69821428Y-46952380D01*
X70297619Y-46952380D01*
X70678571Y-47952380D02*
X70678571Y-46952380D01*
X71250000Y-47952380D01*
X71250000Y-46952380D01*
X72250000Y-47000000D02*
X72154761Y-46952380D01*
X72011904Y-46952380D01*
X71869047Y-47000000D01*
X71773809Y-47095238D01*
X71726190Y-47190476D01*
X71678571Y-47380952D01*
X71678571Y-47523809D01*
X71726190Y-47714285D01*
X71773809Y-47809523D01*
X71869047Y-47904761D01*
X72011904Y-47952380D01*
X72107142Y-47952380D01*
X72250000Y-47904761D01*
X72297619Y-47857142D01*
X72297619Y-47523809D01*
X72107142Y-47523809D01*
G04 #@! TO.C,U2*
X28857142Y-46702380D02*
X29428571Y-46702380D01*
X29142857Y-47702380D02*
X29142857Y-46702380D01*
X30095238Y-47178571D02*
X30238095Y-47226190D01*
X30285714Y-47273809D01*
X30333333Y-47369047D01*
X30333333Y-47511904D01*
X30285714Y-47607142D01*
X30238095Y-47654761D01*
X30142857Y-47702380D01*
X29761904Y-47702380D01*
X29761904Y-46702380D01*
X30095238Y-46702380D01*
X30190476Y-46750000D01*
X30238095Y-46797619D01*
X30285714Y-46892857D01*
X30285714Y-46988095D01*
X30238095Y-47083333D01*
X30190476Y-47130952D01*
X30095238Y-47178571D01*
X29761904Y-47178571D01*
X31190476Y-46702380D02*
X31000000Y-46702380D01*
X30904761Y-46750000D01*
X30857142Y-46797619D01*
X30761904Y-46940476D01*
X30714285Y-47130952D01*
X30714285Y-47511904D01*
X30761904Y-47607142D01*
X30809523Y-47654761D01*
X30904761Y-47702380D01*
X31095238Y-47702380D01*
X31190476Y-47654761D01*
X31238095Y-47607142D01*
X31285714Y-47511904D01*
X31285714Y-47273809D01*
X31238095Y-47178571D01*
X31190476Y-47130952D01*
X31095238Y-47083333D01*
X30904761Y-47083333D01*
X30809523Y-47130952D01*
X30761904Y-47178571D01*
X30714285Y-47273809D01*
X32142857Y-46702380D02*
X31952380Y-46702380D01*
X31857142Y-46750000D01*
X31809523Y-46797619D01*
X31714285Y-46940476D01*
X31666666Y-47130952D01*
X31666666Y-47511904D01*
X31714285Y-47607142D01*
X31761904Y-47654761D01*
X31857142Y-47702380D01*
X32047619Y-47702380D01*
X32142857Y-47654761D01*
X32190476Y-47607142D01*
X32238095Y-47511904D01*
X32238095Y-47273809D01*
X32190476Y-47178571D01*
X32142857Y-47130952D01*
X32047619Y-47083333D01*
X31857142Y-47083333D01*
X31761904Y-47130952D01*
X31714285Y-47178571D01*
X31666666Y-47273809D01*
X33190476Y-47702380D02*
X32619047Y-47702380D01*
X32904761Y-47702380D02*
X32904761Y-46702380D01*
X32809523Y-46845238D01*
X32714285Y-46940476D01*
X32619047Y-46988095D01*
X33571428Y-46797619D02*
X33619047Y-46750000D01*
X33714285Y-46702380D01*
X33952380Y-46702380D01*
X34047619Y-46750000D01*
X34095238Y-46797619D01*
X34142857Y-46892857D01*
X34142857Y-46988095D01*
X34095238Y-47130952D01*
X33523809Y-47702380D01*
X34142857Y-47702380D01*
X34904761Y-47178571D02*
X34571428Y-47178571D01*
X34571428Y-47702380D02*
X34571428Y-46702380D01*
X35047619Y-46702380D01*
X35428571Y-47702380D02*
X35428571Y-46702380D01*
X36000000Y-47702380D01*
X36000000Y-46702380D01*
X37000000Y-46750000D02*
X36904761Y-46702380D01*
X36761904Y-46702380D01*
X36619047Y-46750000D01*
X36523809Y-46845238D01*
X36476190Y-46940476D01*
X36428571Y-47130952D01*
X36428571Y-47273809D01*
X36476190Y-47464285D01*
X36523809Y-47559523D01*
X36619047Y-47654761D01*
X36761904Y-47702380D01*
X36857142Y-47702380D01*
X37000000Y-47654761D01*
X37047619Y-47607142D01*
X37047619Y-47273809D01*
X36857142Y-47273809D01*
G04 #@! TD*
M02*
