G04 #@! TF.GenerationSoftware,KiCad,Pcbnew,(5.0.1)-3*
G04 #@! TF.CreationDate,2022-06-14T20:04:15+08:00*
G04 #@! TF.ProjectId,Omnibot V1,4F6D6E69626F742056312E6B69636164,rev?*
G04 #@! TF.SameCoordinates,Original*
G04 #@! TF.FileFunction,Legend,Bot*
G04 #@! TF.FilePolarity,Positive*
%FSLAX46Y46*%
G04 Gerber Fmt 4.6, Leading zero omitted, Abs format (unit mm)*
G04 Created by KiCad (PCBNEW (5.0.1)-3) date 14-Jun-22 8:04:15 PM*
%MOMM*%
%LPD*%
G01*
G04 APERTURE LIST*
%ADD10C,0.300000*%
G04 APERTURE END LIST*
D10*
X70678571Y-42250000D02*
X69178571Y-42250000D01*
X69750000Y-42250000D02*
X69678571Y-42392857D01*
X69678571Y-42678571D01*
X69750000Y-42821428D01*
X69821428Y-42892857D01*
X69964285Y-42964285D01*
X70392857Y-42964285D01*
X70535714Y-42892857D01*
X70607142Y-42821428D01*
X70678571Y-42678571D01*
X70678571Y-42392857D01*
X70607142Y-42250000D01*
X69678571Y-43464285D02*
X70678571Y-43821428D01*
X69678571Y-44178571D02*
X70678571Y-43821428D01*
X71035714Y-43678571D01*
X71107142Y-43607142D01*
X71178571Y-43464285D01*
X70535714Y-44750000D02*
X70607142Y-44821428D01*
X70678571Y-44750000D01*
X70607142Y-44678571D01*
X70535714Y-44750000D01*
X70678571Y-44750000D01*
X69750000Y-44750000D02*
X69821428Y-44821428D01*
X69892857Y-44750000D01*
X69821428Y-44678571D01*
X69750000Y-44750000D01*
X69892857Y-44750000D01*
X70250000Y-46535714D02*
X70250000Y-47250000D01*
X70678571Y-46392857D02*
X69178571Y-46892857D01*
X70678571Y-47392857D01*
X69678571Y-47892857D02*
X70678571Y-47892857D01*
X69821428Y-47892857D02*
X69750000Y-47964285D01*
X69678571Y-48107142D01*
X69678571Y-48321428D01*
X69750000Y-48464285D01*
X69892857Y-48535714D01*
X70678571Y-48535714D01*
X70678571Y-49892857D02*
X69178571Y-49892857D01*
X70607142Y-49892857D02*
X70678571Y-49750000D01*
X70678571Y-49464285D01*
X70607142Y-49321428D01*
X70535714Y-49250000D01*
X70392857Y-49178571D01*
X69964285Y-49178571D01*
X69821428Y-49250000D01*
X69750000Y-49321428D01*
X69678571Y-49464285D01*
X69678571Y-49750000D01*
X69750000Y-49892857D01*
X70678571Y-50607142D02*
X69678571Y-50607142D01*
X69964285Y-50607142D02*
X69821428Y-50678571D01*
X69750000Y-50750000D01*
X69678571Y-50892857D01*
X69678571Y-51035714D01*
X70607142Y-52107142D02*
X70678571Y-51964285D01*
X70678571Y-51678571D01*
X70607142Y-51535714D01*
X70464285Y-51464285D01*
X69892857Y-51464285D01*
X69750000Y-51535714D01*
X69678571Y-51678571D01*
X69678571Y-51964285D01*
X69750000Y-52107142D01*
X69892857Y-52178571D01*
X70035714Y-52178571D01*
X70178571Y-51464285D01*
X69678571Y-52678571D02*
X70678571Y-52964285D01*
X69964285Y-53250000D01*
X70678571Y-53535714D01*
X69678571Y-53821428D01*
X69178571Y-54821428D02*
X70250000Y-54821428D01*
X70464285Y-54750000D01*
X70607142Y-54607142D01*
X70678571Y-54392857D01*
X70678571Y-54250000D01*
X70678571Y-55535714D02*
X69178571Y-55535714D01*
X70678571Y-56392857D01*
X69178571Y-56392857D01*
X69678571Y-57750000D02*
X70892857Y-57750000D01*
X71035714Y-57678571D01*
X71107142Y-57607142D01*
X71178571Y-57464285D01*
X71178571Y-57250000D01*
X71107142Y-57107142D01*
X70607142Y-57750000D02*
X70678571Y-57607142D01*
X70678571Y-57321428D01*
X70607142Y-57178571D01*
X70535714Y-57107142D01*
X70392857Y-57035714D01*
X69964285Y-57035714D01*
X69821428Y-57107142D01*
X69750000Y-57178571D01*
X69678571Y-57321428D01*
X69678571Y-57607142D01*
X69750000Y-57750000D01*
M02*
